<?xml version="1.0" encoding="utf-8"?>
<!-- Generator: Adobe Illustrator 26.0.3, SVG Export Plug-In . SVG Version: 6.00 Build 0)  -->
<svg version="1.1" id="レイヤー_1" xmlns="http://www.w3.org/2000/svg" xmlns:xlink="http://www.w3.org/1999/xlink" x="0px"
	 y="0px" width="58px" height="87px" viewBox="0 0 58 87" style="enable-background:new 0 0 58 87;" xml:space="preserve">
<style type="text/css">
	.st0{fill:#AB8976;}
	.st1{fill:#BEE5D7;}
	.st2{fill:#ADE2D5;}
	.st3{fill:#8D968E;}
	.st4{fill:#F2F2E9;}
	.st5{fill:#1E396A;}
</style>
<path class="st0" d="M13.872,1.383c0.748-0.006,1.335,0.78,1.293,1.527c-0.042,0.747-0.572,1.395-1.209,1.786
	c-0.637,0.391-1.377,0.573-2.1,0.765c-0.268,0.071-0.584,0.195-0.63,0.468c-0.02,0.116,0.017,0.233,0.053,0.345
	c0.407,1.263,0.814,2.527,1.222,3.79c-0.513-0.135-1.035-0.27-1.564-0.241c-0.529,0.029-1.076,0.249-1.368,0.691
	c-1.329-0.43-2.295-1.71-2.511-3.09c-0.216-1.38,0.257-2.818,1.115-3.92s2.073-1.89,3.371-2.407
	C12.516,0.71,12.914,0.961,13.872,1.383z"/>
<path class="st1" d="M9.166,45.527c0.707,1.697-0.116,3.784,0.191,5.296c-0.433,0.519-0.166,1.515-0.594,2.197
	c-0.227,0.362-0.618,0.584-0.992,0.79c-0.703,0.388-1.464,0.789-2.263,0.702c-0.351-0.039-0.712-0.191-0.897-0.492
	c-0.122-0.197-0.155-0.435-0.171-0.666c-0.128-1.852,0.552-3.938,1.029-5.718C5.89,46.061,7.744,45.753,9.166,45.527z"/>
<path class="st2" d="M30.305,81.242c0.326,0.154,0.664,0.333,0.852,0.64c0.36,0.587,0.015,1.372-0.49,1.841
	c-1.192,1.108-3.123,1.204-4.336,1.767c-1.023-0.159-3.038,0.657-4.376-0.197c-1.781-1.136-1.274-4.653,0.587-5.48
	C24.689,78.859,28.368,80.328,30.305,81.242z"/>
<path class="st2" d="M2.836,83.536c-0.317-0.022-0.502-0.357-0.626-0.649c-0.454-1.072-0.867-2.162-1.239-3.265
	c-0.031-0.093-0.062-0.198-0.019-0.287c0.073-0.149,0.286-0.139,0.449-0.106c1.295,0.26,2.59,0.521,3.885,0.781
	c0.859,0.173,1.732,0.35,2.508,0.759c0.776,0.408,1.454,1.088,1.651,1.942c0.101,0.436,0.072,0.89,0.043,1.337
	c-0.048,0.726-0.19,1.594-0.858,1.881c-0.277,0.119-0.59,0.107-0.891,0.092c-1.504-0.073-3.151-0.204-4.232-1.252"/>
<path class="st3" d="M9.348,45.545c6.712-1.461,13.362-3.202,19.929-5.217l-11.689,0.061c-1.643,0.009-3.404,0.012-4.897-0.771
	c-0.739-0.387-1.351-0.953-1.902-1.572c-0.313-0.352-0.868-1.524-1.402-1.528C7.137,36.502,9.199,44.494,9.348,45.545z"/>
<path class="st4" d="M29.068,38.688c0.326-0.084,0.681-0.166,0.99-0.033c0.391,0.168,0.572,0.615,0.885,0.904
	c0.802,0.74,2.181,0.257,3.113,0.826c0.276,0.169,0.491,0.419,0.702,0.665c1.396,1.631,2.812,3.294,3.675,5.261
	c0.086,0.196,0.167,0.42,0.087,0.619c-0.122,0.305-0.523,0.359-0.851,0.365c-2.299,0.046-4.597,0.092-6.896,0.138
	c-0.771,0.015-1.565,0.027-2.282-0.255c-1.138-0.447-1.872-1.535-2.534-2.563c-0.548-0.85-2.964-3.606-2.287-4.47
	c0.376-0.479,2.051-0.596,2.64-0.747C27.161,39.179,28.285,39.08,29.068,38.688z"/>
<path class="st4" d="M39.818,35.691c0.669-1.286,0.622-2.675,0.287-4.042c-0.245-0.998,0.024-2.245,0.975-2.872
	c0.679-0.448,1.771-1.035,2.6-0.952c1.045,0.105,1.735,1.242,1.725,2.291c-0.01,1.05-0.53,2.019-1.037,2.938
	c-1.178,2.139-2.357,4.279-3.535,6.418c2.497-0.267,4.277-3.429,6.74-2.936c-0.315,2.225-1.752,4.135-3.372,5.693
	c-1.62,1.558-3.47,2.877-4.97,4.55c-1.756-1.711-3.158-3.783-4.094-6.049c-0.125-0.303-0.244-0.625-0.206-0.951
	c0.126-1.086,1.817-1.478,1.882-2.57C38.269,37.18,39.145,36.984,39.818,35.691z"/>
<path class="st3" d="M12.319,18.279c0.404,0.046,0.778,0.225,1.145,0.4c1.112,0.533,2.224,1.067,3.336,1.6
	c0.168,0.081,0.347,0.163,0.532,0.148c0.326-0.027,0.545-0.334,0.729-0.604c0.451-0.661,0.968-1.276,1.541-1.834
	c0.104-0.102,0.24-0.209,0.38-0.169c0.102,0.03,0.165,0.128,0.219,0.22c0.44,0.747,0.88,1.493,1.32,2.24
	c0.16,0.272,0.324,0.552,0.376,0.864c0.082,0.488-0.118,0.975-0.321,1.427c-1.237,2.767-2.704,5.431-4.378,7.957
	c-0.095,0.143-0.206,0.296-0.374,0.332c-0.159,0.034-0.317-0.05-0.458-0.131c-0.515-0.295-1.03-0.591-1.545-0.886
	c-0.16-0.092-0.329-0.186-0.514-0.193c-0.214-0.008-0.412,0.103-0.597,0.21c-2.407,1.401-4.751,2.911-7.022,4.522
	c-0.888-2.392-1.61-4.845-2.159-7.336c-0.217-0.987-0.406-2.029-0.109-2.995c1.146,0.615,2.265,1.029,3.503,0.306
	c0.678-0.396,1.182-1.077,1.364-1.841c0.126-0.532,0.101-1.086,0.137-1.632C9.527,19.336,10.661,18.089,12.319,18.279z"/>
<g>
	<g>
		<path class="st5" d="M24.15,27.622c0.703,0.085,1.234-0.186,1.794-0.262c0.103-0.014,0.184-0.102,0.143-0.208
			c-0.275-0.701,0.279-1.07,0.621-1.498c4.19-5.233,8.392-10.458,12.591-15.684c0.105-0.131,0.216-0.258,0.329-0.382
			c0.199-0.219,0.438-0.312,0.704-0.138c0.289,0.189,0.319,0.481,0.188,0.765c-0.099,0.214-0.259,0.403-0.409,0.59
			c-4.168,5.19-8.339,10.377-12.505,15.568c-0.159,0.198-0.375,0.371-0.417,0.692c0.34,0.093,0.665,0.025,0.989-0.028
			c0.417-0.069,0.888-0.157,0.966,0.418c0.072,0.528-0.346,0.678-0.789,0.725c-1.844,0.198-3.647,0.589-5.425,1.111
			c-1.548,0.455-3.045,1.04-4.506,1.72c-0.26,0.121-0.519,0.281-0.82,0.143c-0.212-0.097-0.338-0.263-0.338-0.508
			c-0.001-0.919,1.868-0.328,0.612-2.182c2.942,0.716,3.935,0.188,4.789-0.89c3.553-4.482,7.117-8.954,10.678-13.429
			c0.06-0.075,0.117-0.153,0.177-0.227c0.239-0.294,0.515-0.589,0.901-0.288c0.389,0.303,0.262,0.674-0.007,1.012
			c-1.465,1.844-2.928,3.689-4.394,5.532c-1.869,2.351-3.741,4.701-5.61,7.052C24.34,27.315,24.283,27.419,24.15,27.622z"/>
		<path class="st5" d="M26.799,34.571c-0.698-0.203-1.446-0.353-2.225-0.336c-2.539,0.055-5.004,0.55-7.438,1.234
			c-0.116,0.032-0.229,0.071-0.344,0.106c-1.697,0.515-1.405,0.426-1.949-1.893c-1.516-2.952-1.063-3.719-3.359-0.935
			c-3.886,1.653-2.147,1.048,0.388,5.355c-0.534,0.39,0.953,1.226,0.054,1.748c-0.89,0.517-0.974-1.199-1.572-0.887
			c-1.857-2.94-1.796-4.638-2.772-3.817c-0.441,0.371-0.919,0.697-1.381,1.041c-0.286,0.212-0.585,0.276-0.819-0.047
			c-0.213-0.293-0.156-0.609,0.11-0.843c0.288-0.253,0.609-0.468,0.917-0.698c2.272-1.697,4.543-3.395,6.816-5.09
			c0.212-0.158,0.427-0.313,0.651-0.452c0.224-0.139,0.46-0.162,0.655,0.052c0.173,0.19,0.285,0.453,0.107,0.655
			c-0.349,0.395-0.132,0.676,0.084,1.013c0.614,0.956,1.09,1.98,1.335,3.095c0.107,0.488,0.313,0.617,0.808,0.473
			c2.335-0.683,4.724-1.081,7.148-1.266c1.017-0.078,2.013,0.051,2.981,0.372c0.337,0.112,0.519,0.353,0.44,0.721
			C27.365,34.477,27.152,34.603,26.799,34.571z"/>
		<path class="st5" d="M30.049,69.315c0.086,3.173-0.504,6.085-1.859,8.833c-0.126,0.255-0.224,0.546-0.552,0.62
			c-0.209,0.047-0.379-0.045-0.514-0.193c-0.233-0.256-0.164-0.53-0.03-0.803c0.658-1.343,1.143-2.743,1.453-4.209
			c0.741-3.503,0.121-7.045,0.086-10.554c-0.365-3.994-1.324-7.853-2.479-11.663c-0.404-1.331-0.908-2.632-1.357-3.949
			c-0.128-0.374-0.388-0.833,0.16-1.054c0.551-0.222,0.762,0.228,0.925,0.648c1.384,3.569,2.301,7.27,3.184,10.987
			c0.605,2.547,0.688,5.131,0.83,7.715C29.963,66.937,30.136,68.18,30.049,69.315z"/>
		<path class="st5" d="M8.361,81.695c-0.415,0.394-0.829,0.79-1.245,1.183c-0.292,0.276-0.603,0.308-0.886,0.008
			c-0.273-0.291-0.155-0.581,0.087-0.827c0.318-0.324,0.65-0.634,0.956-1.011c-0.349,0.143-0.686,0.285-0.963-0.054
			c-0.302-0.37-0.046-0.679,0.156-0.974c2.103-3.077,4.392-6.019,6.571-9.04c0.59-0.819,1.164-1.649,1.743-2.476
			c0.225-0.321,0.502-0.575,0.901-0.354c0.529,0.293,0.295,0.676,0.042,1.026c-1.321,1.832-2.643,3.665-3.97,5.493
			c-1.172,1.615-2.339,3.233-3.532,4.831c-0.36,0.482-0.426,0.758,0.272,0.926c0.608,0.146,1.178,0.423,1.682,0.804
			c0.828,0.626,1.165,1.477,0.945,2.479c-0.203,0.929-0.926,1.387-1.797,1.569c-1.959,0.409-3.814-0.021-5.615-0.788
			c-0.325-0.138-0.528-0.377-0.351-0.739c0.177-0.361,0.487-0.433,0.853-0.276c1.321,0.566,2.686,0.896,4.137,0.78
			c0.413-0.033,0.819-0.085,1.171-0.312c0.365-0.235,0.616-0.553,0.493-1.023c-0.054-0.205-0.124-0.448-0.361-0.501
			c-0.232-0.052-0.305,0.192-0.424,0.33c-0.188,0.218-0.348,0.463-0.552,0.664C8.44,83.647,8.15,83.66,7.894,83.447
			c-0.243-0.202-0.226-0.476-0.074-0.719c0.201-0.322,0.435-0.622,0.656-0.932C8.437,81.762,8.399,81.729,8.361,81.695z"/>
		<path class="st5" d="M34.217,7.984c-0.031,0.297-0.259,0.526-0.448,0.769c-3.637,4.659-7.278,9.316-10.918,13.973
			c-1.702,2.177-3.402,4.355-5.108,6.529c-0.174,0.221-0.309,0.504-0.636,0.546c-0.243,0.031-0.42-0.086-0.53-0.295
			c-0.175-0.33-0.028-0.601,0.174-0.858c1.066-1.362,2.132-2.725,3.198-4.088c4.217-5.395,8.434-10.791,12.651-16.186
			c0.222-0.284,0.445-0.567,0.68-0.84c0.177-0.205,0.411-0.254,0.651-0.127C34.138,7.516,34.23,7.71,34.217,7.984z"/>
		<path class="st5" d="M41.182,47.688c-0.207-0.016-0.372-0.103-0.463-0.294c-0.13-0.271-0.063-0.517,0.13-0.731
			c0.484-0.534,0.973-1.064,1.459-1.597c5.124-5.614,9.56-11.73,13.359-18.311c0.218-0.378,0.386-1.044,1.033-0.682
			c0.629,0.352,0.206,0.832-0.024,1.234c-4.079,7.123-8.945,13.665-14.534,19.672C41.585,47.579,41.424,47.695,41.182,47.688z"/>
		<path class="st5" d="M47.74,8.776c-0.022,0.266-0.204,0.464-0.366,0.671c-4.776,6.081-9.553,12.16-14.329,18.241
			c-0.252,0.321-0.497,0.647-0.749,0.969c-0.263,0.336-0.588,0.56-0.976,0.235c-0.373-0.313-0.151-0.65,0.08-0.946
			c1.681-2.16,3.358-4.324,5.048-6.478c3.292-4.193,6.591-8.38,9.888-12.569c0.177-0.226,0.329-0.483,0.606-0.602
			C47.303,8.14,47.725,8.392,47.74,8.776z"/>
		<path class="st5" d="M15.932,66.864c0.268-0.908,0.544-1.853,0.826-2.795c1.712-5.727,3.42-11.455,5.148-17.178
			c0.144-0.477,0.149-1.309,0.958-1.029c0.744,0.257,0.261,0.911,0.127,1.365c-1.935,6.537-3.888,13.069-5.838,19.602
			c-0.041,0.138-0.081,0.279-0.146,0.406c-0.153,0.299-0.409,0.406-0.723,0.3C15.992,67.435,15.896,67.199,15.932,66.864z"/>
		<path class="st5" d="M7.197,63.418C7.151,60.69,7.6,58.016,8.11,55.35c0.154-0.806,0.156-0.815-0.642-0.565
			c-0.401,0.125-0.807,0.11-1.214,0.097c-0.387-0.012-0.656-0.186-0.645-0.609c0.018-0.682,0.81-0.464,1.289-0.414
			c0.959-0.507,1.771-0.943,1.914-2.03c0.163-1.235,0.446-2.455,0.674-3.682c0.065-0.351,0.152-0.704,0.604-0.643
			c0.44,0.059,0.57,0.375,0.513,0.797c-0.266,1.976-0.716,3.918-1.098,5.873c-0.646,3.301-1.228,6.608-1.22,9.987
			c0.001,0.43,0.071,0.86,0.092,1.291c0.018,0.364-0.067,0.706-0.504,0.734c-0.446,0.029-0.659-0.265-0.67-0.677
			C7.184,64.811,7.197,64.114,7.197,63.418z"/>
		<path class="st5" d="M39.288,7.139c-1.233-0.089-2.291,0.129-3.348,0.328c-0.418,0.079-0.807,0.104-0.929-0.387
			c-0.256-1.036,1.608-0.581,1.344-1.083c3.432-0.182,6.871-0.041,10.303-0.252c0.144-0.009,0.288-0.003,0.432-0.005
			c0.346-0.006,0.649,0.077,0.651,0.49c0.002,0.369-0.245,0.55-0.596,0.601c-0.833,0.12-1.671,0.157-2.513,0.154
			c-1.177-0.004-2.353,0.001-3.53-0.001c-0.322-0.001-0.631-0.03-0.628,0.453c0.002,0.278-0.239,0.46-0.412,0.658
			c-1.315,1.497-2.631,2.993-3.951,4.486c-0.283,0.32-0.595,0.772-1.057,0.335c-0.421-0.398-0.091-0.783,0.205-1.12
			c1.204-1.371,2.406-2.743,3.607-4.117C38.991,7.539,39.097,7.386,39.288,7.139z"/>
		<path class="st5" d="M48.717,6.935c0.301,0.028,0.429,0.233,0.531,0.455c2.438,5.311,5.626,10.23,8.11,15.516
			c0.123,0.261,0.249,0.52,0.356,0.788c0.151,0.379,0.12,0.729-0.298,0.908c-0.433,0.185-0.604-0.138-0.751-0.456
			c-1.308-2.839-2.814-5.574-4.33-8.305c-1.364-2.457-2.738-4.91-3.892-7.476c-0.108-0.239-0.234-0.484-0.27-0.738
			C48.117,7.231,48.347,7.004,48.717,6.935z"/>
		<path class="st5" d="M16.461,39.94c3.93,0.001,7.804-0.485,11.634-1.347c0.14-0.032,0.28-0.072,0.423-0.086
			c0.354-0.034,0.623,0.086,0.691,0.467c0.063,0.353-0.139,0.555-0.453,0.626c-1.053,0.239-2.104,0.495-3.167,0.682
			c-3.436,0.606-6.903,0.87-10.391,0.853c-0.358-0.002-0.716-0.06-1.075-0.087c-0.382-0.029-0.674-0.179-0.639-0.609
			c0.036-0.44,0.38-0.5,0.742-0.5C14.971,39.941,15.716,39.94,16.461,39.94z"/>
		<path class="st5" d="M7.439,47.188c-0.318-0.005-0.54-0.164-0.592-0.495c-0.07-0.445,0.248-0.587,0.591-0.673
			c1.374-0.344,2.75-0.682,4.126-1.018c2.916-0.711,5.832-1.419,8.748-2.128c0.14-0.034,0.284-0.051,0.423-0.087
			c0.39-0.1,0.683,0.015,0.775,0.418c0.098,0.427-0.186,0.607-0.548,0.696c-0.886,0.219-1.772,0.437-2.658,0.653
			c-3.429,0.837-6.858,1.674-10.287,2.51C7.831,47.11,7.642,47.144,7.439,47.188z"/>
		<path class="st5" d="M14.99,15.504c-0.16,0-0.208,0.002-0.256,0c-0.469-0.022-1.081,0.087-1.074-0.621
			c0.006-0.671,0.605-0.462,0.999-0.483c1.446-0.078,2.583-0.672,3.33-1.94c0.201-0.342,0.404-0.732,0.881-0.478
			c0.495,0.263,0.344,0.676,0.122,1.053c-0.146,0.247-0.302,0.492-0.481,0.716c-1.033,1.292-0.35,0.419,3.458,3.972
			c-1.532,0.043,0.434,1.147-0.616,1.616c-0.48,0.215-0.751-0.133-0.936-0.539c-0.437-0.959-1.098-1.741-1.9-2.414
			c-0.338-0.283-0.582-0.272-0.766,0.166c-0.102,0.242-0.242,0.469-0.376,0.697c-0.174,0.294-0.441,0.385-0.738,0.229
			c-0.289-0.152-0.397-0.422-0.261-0.734c0.164-0.373,0.356-0.734,0.534-1.101c0.064-0.132,0.128-0.28,0.041-0.411
			c-0.128-0.194-0.306-0.07-0.453-0.02C15.971,15.389,15.443,15.545,14.99,15.504z"/>
		<path class="st5" d="M11.255,14.302c-0.901-0.033-1.711-0.269-2.263-1.05c-0.604-0.855-0.629-1.889-0.076-2.7
			c0.559-0.819,1.268-1.039,2.538-0.75c-0.026-0.67-0.357-1.232-0.532-1.833c-0.141-0.484-0.319-0.957-0.473-1.438
			c-0.094-0.294-0.002-0.53,0.281-0.655c0.31-0.136,0.625-0.054,0.736,0.247c0.49,1.329,0.944,2.67,1.398,4.012
			c0.064,0.189,0,0.478-0.176,0.501c-0.698,0.091-1.326,0.764-2.096,0.021c-0.974,0.377-1.036,1.022-0.804,1.625
			c0.299,0.777,1.272,1.079,1.991,0.629c0.161-0.101,0.3-0.24,0.437-0.373c0.271-0.265,0.569-0.397,0.886-0.107
			c0.365,0.334,0.16,0.646-0.086,0.941c-0.458,0.548-1.093,0.759-1.752,0.925L11.255,14.302z"/>
		<path class="st5" d="M11.262,14.296c0.524-0.085,0.922,0.029,0.966,0.649c0.023,0.328,0.297,0.349,0.507,0.429
			c0.853,0.324,1.711,0.634,2.568,0.947c0.414,0.151,0.793,0.365,0.608,0.881c-0.402,1.123-1.876-1.019-1.521,1.135
			c-2.592-2.255-3.205-2.677-4.159-2.046c-1.396,0.923-2.603,2.047-3.683,3.317c-0.25,0.294-0.501,0.682-0.938,0.325
			c-0.42-0.343-0.23-0.716,0.056-1.065c0.963-1.179,2.056-2.22,3.294-3.105c0.279-0.199,0.5-0.366,0.484-0.793
			c-0.019-0.503,0.36-0.641,0.806-0.504c0.372,0.114,0.707,0.126,1.004-0.163C11.255,14.302,11.262,14.296,11.262,14.296z"/>
		<path class="st5" d="M29.547,81.821c-0.372,0.05-0.752,0.142-1.131,0.144c-1.733,0.007-3.301,0.654-4.889,1.224
			c-0.355,0.127-0.688,0.147-0.843-0.261c-0.163-0.428,0.09-0.692,0.467-0.83c0.946-0.347,1.884-0.896,2.853-0.963
			c1.6-0.111,3.156-0.744,4.804-0.375c1.387,0.311,2.263,0.985,2.47,2.093c0.126,0.675-0.108,1.23-0.61,1.674
			c-0.185,0.164-0.414,0.266-0.654,0.085c-0.234-0.177-0.316-0.405-0.218-0.697c0.442-1.32,0.236-1.672-1.166-1.959
			C30.279,81.883,29.918,81.865,29.547,81.821z"/>
		<path class="st5" d="M3.883,28.335c0.056-2.39,0.243-4.684,0.715-6.948c0.081-0.387,0.116-0.904,0.703-0.801
			c0.598,0.105,0.521,0.572,0.43,1.026c-0.729,3.609-0.865,7.24-0.386,10.892c0.059,0.45-0.023,0.865-0.542,0.934
			c-0.509,0.067-0.557-0.389-0.602-0.732C4.01,31.228,3.926,29.742,3.883,28.335z"/>
		<path class="st5" d="M40.878,33.733c0.002,2.314-1.698,4.333-3.958,4.73c-0.461,0.081-0.859,0.037-0.956-0.475
			c-0.093-0.491,0.328-0.558,0.686-0.646c1.488-0.364,2.552-1.214,2.978-2.722c0.43-1.523-0.102-2.778-1.182-3.851
			c-0.068-0.068-0.142-0.13-0.21-0.198c-0.276-0.275-0.354-0.59-0.078-0.892c0.268-0.294,0.574-0.184,0.833,0.036
			c1.067,0.906,1.758,2.022,1.885,3.443C40.893,33.348,40.878,33.541,40.878,33.733z"/>
		<path class="st5" d="M4.228,47.175c0.345,0.016,0.54,0.191,0.578,0.527c0.043,0.381,0.107,0.764,0.108,1.146
			c0.001,0.524,0.268,0.656,0.734,0.621c0.607-0.046,1.103-0.304,1.527-0.724c0.278-0.276,0.571-0.621,0.961-0.213
			c0.373,0.39,0.133,0.749-0.171,1.067c-0.63,0.657-1.423,1.01-2.308,1.048c-0.664,0.029-0.755,0.33-0.666,0.873
			c0.145,0.881,0.085,1.774,0.108,2.662c0.01,0.368-0.066,0.7-0.516,0.714c-0.43,0.013-0.569-0.273-0.586-0.659
			c-0.091-2.086-0.188-4.172-0.28-6.258C3.699,47.594,3.751,47.244,4.228,47.175z"/>
		<path class="st5" d="M7.123,19.473c0.27,0.016,0.439,0.154,0.61,0.286c2.557,1.966,4.543,4.404,6.001,7.276
			c0.097,0.191,0.18,0.396,0.227,0.605c0.067,0.301-0.091,0.514-0.359,0.63c-0.255,0.111-0.473,0.026-0.629-0.195
			c-0.082-0.117-0.149-0.247-0.212-0.376c-1.356-2.764-3.236-5.101-5.678-6.98c-0.172-0.132-0.36-0.261-0.42-0.48
			C6.545,19.807,6.714,19.545,7.123,19.473z"/>
		<path class="st5" d="M23.7,69.333c-0.139,0.567-0.299,1.268-0.482,1.964c-0.593,2.252-1.25,4.484-2.179,6.626
			c-0.166,0.382-0.281,0.934-0.877,0.69c-0.556-0.228-0.365-0.691-0.188-1.106c1.099-2.569,1.824-5.255,2.486-7.96
			c0.046-0.186,0.1-0.37,0.148-0.556c0.093-0.358,0.319-0.541,0.688-0.461C23.644,68.604,23.72,68.881,23.7,69.333z"/>
		<path class="st5" d="M18.999,32.329c-0.333,0.02-0.572-0.126-0.64-0.451c-0.089-0.423,0.183-0.617,0.543-0.707
			c1.14-0.283,2.283-0.558,3.425-0.835c1.748-0.424,3.497-0.843,5.244-1.274c0.39-0.096,0.686,0.004,0.808,0.383
			c0.134,0.417-0.142,0.641-0.499,0.728c-2.911,0.715-5.825,1.418-8.739,2.125C19.094,32.31,19.046,32.318,18.999,32.329z"/>
		<path class="st5" d="M3.137,75.712c-0.492,0.007-0.709-0.48-0.394-1.012c0.659-1.114,1.353-2.208,2.039-3.306
			c0.75-1.2,1.514-2.39,2.257-3.594c0.229-0.371,0.494-0.629,0.927-0.373c0.421,0.249,0.286,0.612,0.083,0.937
			c-1.447,2.319-2.9,4.634-4.351,6.951C3.566,75.525,3.408,75.699,3.137,75.712z"/>
		<path class="st5" d="M7.395,87c-1.537-0.067-3.002-0.38-4.32-1.219c-0.375-0.238-0.697-0.526-0.414-0.989
			c0.289-0.471,0.671-0.198,1.002-0.007c2.171,1.246,4.405,1.394,6.704,0.385c0.377-0.166,0.768-0.307,0.995,0.159
			c0.256,0.526-0.176,0.725-0.548,0.908C9.736,86.768,8.57,86.918,7.395,87z"/>
		<path class="st5" d="M7.766,36.34c0.492,0.053,0.506,0.417,0.513,0.792c0.033,1.754,0.22,3.488,0.714,5.177
			c0.202,0.688,0.452,1.363,0.697,2.038c0.148,0.406,0.172,0.785-0.291,0.963c-0.46,0.176-0.637-0.18-0.776-0.531
			c-0.985-2.476-1.528-5.035-1.453-7.711C7.181,36.667,7.275,36.348,7.766,36.34z"/>
		<path class="st5" d="M5.871,6.812C5.885,5.36,6.326,4.064,7.16,2.899C7.374,2.6,7.627,2.27,8.041,2.548
			c0.413,0.277,0.313,0.648,0.066,1.004C6.658,5.639,6.688,7.751,8.012,9.878c0.194,0.311,0.333,0.62-0.044,0.876
			c-0.377,0.256-0.693,0.095-0.924-0.239C6.271,9.399,5.884,8.158,5.871,6.812z"/>
		<path class="st5" d="M18.211,18.687c-0.068,0.382-0.151,0.902-0.257,1.417c-0.134,0.652-0.441,0.84-1.08,0.602
			c-0.492-0.183-0.956-0.441-1.427-0.676c-1.093-0.545-2.188-1.088-3.272-1.651c-0.381-0.198-0.99-0.348-0.686-0.955
			c0.315-0.629,0.821-0.257,1.238-0.05c1.181,0.585,2.36,1.172,3.527,1.782c0.465,0.243,0.763,0.286,0.766-0.374
			c0.001-0.14,0.068-0.279,0.09-0.42c0.059-0.38,0.148-0.749,0.65-0.656C18.225,17.791,18.245,18.168,18.211,18.687z"/>
		<path class="st5" d="M39.849,47.071c0.026,0.351-0.074,0.531-0.281,0.646c-0.214,0.118-0.428,0.094-0.597-0.073
			c-0.134-0.132-0.244-0.295-0.344-0.457c-1.191-1.916-2.379-3.834-3.565-5.754c-0.101-0.163-0.194-0.333-0.263-0.511
			c-0.1-0.255-0.025-0.482,0.201-0.63c0.249-0.164,0.504-0.148,0.718,0.074c0.099,0.103,0.181,0.224,0.257,0.345
			c1.215,1.958,2.43,3.916,3.639,5.877C39.724,46.769,39.801,46.971,39.849,47.071z"/>
		<path class="st5" d="M34.387,32.674c0.055,0.442,0.057,0.86-0.478,0.902c-0.579,0.045-0.62-0.432-0.663-0.839
			c-0.222-2.079,2.561-4.156,4.416-2.765c0.656,1.115,0.298,2.262-0.609,2.652c-0.301,0.13-0.615,0.217-0.825-0.138
			c-0.188-0.318-0.099-0.599,0.192-0.818c0.077-0.058,0.16-0.107,0.232-0.17c0.175-0.153,0.293-0.333,0.158-0.566
			c-0.119-0.206-0.314-0.294-0.55-0.266C35.494,30.755,34.192,31.713,34.387,32.674z"/>
		<path class="st5" d="M23.514,80.409c-0.427,0-0.854,0.003-1.282-0.001c-0.355-0.004-0.613-0.161-0.659-0.529
			c-0.051-0.41,0.227-0.526,0.572-0.581c1.694-0.269,3.345-0.067,4.967,0.448c0.397,0.126,0.634,0.382,0.48,0.811
			c-0.151,0.423-0.513,0.371-0.849,0.27c-0.48-0.145-0.862-0.261-1.339,0.2c-0.379,0.366-1.042,0.445-1.587,0.63
			c-0.316,0.107-0.634,0.102-0.797-0.262c-0.157-0.352,0.007-0.597,0.309-0.778C23.406,80.571,23.52,80.559,23.514,80.409z"/>
		<path class="st5" d="M24.442,85.752c-0.264,0-0.529-0.001-0.793,0c-0.347,0.002-0.641-0.102-0.678-0.491
			c-0.036-0.376,0.194-0.568,0.556-0.617c0.19-0.026,0.379-0.075,0.57-0.084c2.11-0.099,4.22-0.195,6.33-0.286
			c0.379-0.016,0.768,0.028,0.806,0.511c0.039,0.507-0.319,0.646-0.748,0.666c-2.014,0.093-4.028,0.185-6.042,0.278
			C24.442,85.738,24.442,85.745,24.442,85.752z"/>
		<path class="st5" d="M19.933,59.898c0.306,0.009,0.48,0.243,0.608,0.505c0.295,0.603,0.59,1.207,0.852,1.824
			c0.562,1.324,1.012,2.695,1.711,3.96c0.19,0.344,0.27,0.706-0.157,0.928c-0.425,0.221-0.689-0.053-0.859-0.4
			c-0.802-1.64-1.599-3.292-1.847-5.148C19.084,60.934,19.201,59.931,19.933,59.898z"/>
		<path class="st5" d="M13.053,1.363c-0.934,0.025-1.779,0.357-2.595,0.773c-0.365,0.185-0.736,0.368-0.999-0.087
			c-0.289-0.5,0.09-0.747,0.468-0.944C11,0.544,12.121,0.126,13.353,0.14c0.836,0.01,1.554,0.307,2.025,1.037
			c0.364,0.564,0.346,1.137-0.07,1.672c-0.18,0.231-0.439,0.295-0.713,0.186c-0.253-0.1-0.358-0.298-0.317-0.575
			c0.133-0.899,0.006-1.046-0.937-1.097C13.245,1.358,13.149,1.363,13.053,1.363z"/>
		<path class="st5" d="M30.788,46.71c1.95,0.214,3.857,0.419,5.762,0.638c0.306,0.035,0.633,0.086,0.788,0.421
			c0.208,0.45-0.135,0.811-0.781,0.747c-1.431-0.141-2.859-0.319-4.288-0.485c-0.524-0.061-1.045-0.14-1.57-0.192
			c-0.45-0.045-0.943-0.088-0.89-0.687C29.87,46.472,30.439,46.747,30.788,46.71z"/>
		<path class="st5" d="M28.449,46.843c-0.033,0.311-0.159,0.508-0.411,0.591c-0.311,0.103-0.497-0.106-0.663-0.315
			c-0.834-1.053-1.664-2.109-2.491-3.167c-0.191-0.245-0.396-0.487-0.54-0.759c-0.151-0.286-0.071-0.573,0.204-0.758
			c0.268-0.18,0.517-0.079,0.698,0.149c1.027,1.297,2.047,2.6,3.061,3.907C28.391,46.598,28.414,46.751,28.449,46.843z"/>
		<path class="st5" d="M28.81,35.481c0-0.024-0.001-0.048,0-0.072c0.023-0.491-0.103-1.161,0.616-1.162
			c0.765-0.001,0.456,0.697,0.489,1.12c0.091,1.173,0.494,2.193,1.363,3.008c0.287,0.269,0.631,0.553,0.244,0.958
			c-0.383,0.4-0.751,0.156-1.062-0.144C29.41,38.178,28.817,36.959,28.81,35.481z"/>
		<path class="st5" d="M0.782,77.637c1.075,0.717,2.319,1.349,3.321,2.326c0.19,0.186,0.081,0.459-0.099,0.65
			c-0.461,0.49-1.326,0.03-1.102-2.67c-2.357,1.4-2.998,0.671-2.739,0.026C0.254,77.746,0.427,77.636,0.782,77.637z"/>
		<path class="st5" d="M17.098,7.398c-0.389-0.035-0.497-0.319-0.569-0.639c-0.09-0.401-0.185-0.752-0.75-0.507
			c-0.263,0.114-0.527-0.033-0.628-0.328c-0.095-0.279-0.021-0.537,0.24-0.686c0.56-0.321,1.127-0.632,1.702-0.927
			c0.256-0.131,0.518-0.09,0.724,0.129c0.19,0.202,0.239,0.509,0.042,0.646c-0.592,0.409-0.347,0.888-0.221,1.388
			C17.785,7.059,17.557,7.422,17.098,7.398z"/>
		<path class="st5" d="M7.221,44.152c0.434-0.029,0.655,0.086,0.76,0.369c0.111,0.297-0.01,0.522-0.274,0.66
			c-0.807,0.421-1.616,0.838-2.432,1.241c-0.314,0.156-0.612,0.112-0.817-0.205c-0.152-0.235-0.126-0.494,0.092-0.645
			C5.419,44.969,6.408,44.593,7.221,44.152z"/>
		<path class="st5" d="M17.401,21.982c0.012-0.26-0.009-0.482,0.041-0.688c0.06-0.248,0.283-0.318,0.513-0.296
			c0.334,0.031,0.513,0.243,0.551,0.567c0.103,0.881,0.207,1.763,0.294,2.645c0.035,0.358-0.024,0.718-0.479,0.734
			c-0.405,0.014-0.582-0.27-0.628-0.649C17.596,23.509,17.495,22.725,17.401,21.982z"/>
		<path class="st5" d="M20.59,82.658c-0.021-0.364,0.027-0.717,0.16-1.058c0.112-0.285,0.267-0.539,0.626-0.452
			c0.322,0.078,0.521,0.341,0.438,0.646c-0.227,0.836-0.076,1.549,0.491,2.206c0.197,0.228,0.109,0.508-0.121,0.702
			c-0.264,0.222-0.541,0.188-0.774-0.046C20.863,84.107,20.549,83.453,20.59,82.658z"/>
		<path class="st5" d="M1.664,80.504c0.661,0.056,0.766,0.721-0.009,1.776c0.733,0.192,1.599,1.272,0.838,1.665
			c-0.369,0.191-0.635,0.014-0.831-0.32c-0.466-0.793-0.624-1.65-0.542-2.558C1.151,80.735,1.337,80.549,1.664,80.504z"/>
		<path class="st5" d="M18.918,7.881c-0.237-0.034-0.379-0.041-0.513-0.078c-0.256-0.069-0.413-0.233-0.422-0.511
			c-0.011-0.304,0.134-0.498,0.424-0.585c0.561-0.168,1.06-0.043,1.421,0.409c0.388,0.484,0.381,1.031,0.015,1.526
			C19.58,8.997,19.2,9.336,18.751,9.044C18.231,8.705,18.552,8.306,18.918,7.881z"/>
		<path class="st5" d="M31.443,30.314c-0.016,0.21-0.128,0.36-0.31,0.45c-0.209,0.104-0.452,0.113-0.602-0.062
			c-0.418-0.488-0.818-0.995-1.197-1.514c-0.134-0.183-0.091-0.414,0.065-0.599c0.136-0.161,0.317-0.207,0.518-0.176
			C30.279,28.469,31.463,29.947,31.443,30.314z"/>
		<path class="st5" d="M18.201,11.606c-0.364,0.018-0.719-0.021-1.047-0.195c-0.26-0.137-0.408-0.335-0.315-0.643
			c0.089-0.296,0.313-0.446,0.601-0.394c0.498,0.09,0.979,0.144,1.486,0.012c0.31-0.081,0.561,0.108,0.636,0.439
			c0.071,0.315-0.125,0.488-0.38,0.613C18.871,11.59,18.54,11.621,18.201,11.606z"/>
		<path class="st5" d="M31.375,34.815c-0.51,0.033-0.823-0.045-0.889-0.42c-0.072-0.411,0.197-0.607,0.572-0.673
			c0.469-0.082,0.938-0.173,1.411-0.23c0.341-0.041,0.637,0.085,0.708,0.451c0.081,0.417-0.194,0.621-0.556,0.69
			C32.153,34.722,31.678,34.772,31.375,34.815z"/>
	</g>
</g>
</svg>
