<?xml version="1.0" encoding="utf-8"?>
<!-- Generator: Adobe Illustrator 26.0.3, SVG Export Plug-In . SVG Version: 6.00 Build 0)  -->
<svg version="1.1" id="レイヤー_1" xmlns="http://www.w3.org/2000/svg" xmlns:xlink="http://www.w3.org/1999/xlink" x="0px"
	 y="0px" width="269.291px" height="209.764px" viewBox="0 0 269.291 209.764" style="enable-background:new 0 0 269.291 209.764;"
	 xml:space="preserve">
<style type="text/css">
	.st0{fill:#DFEEDA;}
	.st1{fill:#1E396A;}
	.st2{fill:#BEE5D7;}
	.st3{fill:none;}
</style>
<path class="st0" d="M145.85,113.223c3.55-2.694,7.253-6.215,7.221-10.702c-0.01-1.452-0.55-3.039-1.823-3.711
	c-2.058-1.087-4.363,0.738-6.162,2.222c-2.69,2.22-5.789,3.931-9.09,5.02c-0.512,0.169-1.055,0.325-1.584,0.219
	c-0.463-0.092-0.869-0.377-1.326-0.497c-1.35-0.353-2.628,0.802-3.358,2.003c-2.244,3.687-11.1,9.318-2.479,12.876
	C133.172,123.097,141.445,116.565,145.85,113.223z"/>
<path class="st0" d="M165.345,117.316c4.203-0.466,8.588,1.381,11.219,4.726c8.841-1.388,18.042-0.351,26.363,2.971
	c0.899-17.464,2.803-34.876,5.699-52.118c-1.704-0.419-3.359-1.038-4.922-1.841c-3.329,8.431-5.687,17.252-7.014,26.229
	c-7.518,0.176-15.047-0.123-22.528-0.893c0.656-4.349,5.09-17.863,3.301-21.631c-2.131-4.488-5.536-1.571-7.486,2.068
	C167.984,80.547,166.383,117.201,165.345,117.316z"/>
<path class="st0" d="M27.444,100.663c2.703-0.556,5.501-0.123,8.215,0.377c4.743,0.874,9.45,1.95,14.104,3.224
	c3.613,0.989,7.308,2.159,10.156,4.615c3.452,2.977,5.214,7.443,6.792,11.743c5.37,14.631,10.091,29.504,14.145,44.561
	c-14.734-1.898-27.462,15.357-41.969,12.134c-2.306-0.512-4.624-1.547-6.937-1.071c-3.075,0.633-5.323,3.8-8.457,3.946
	c-3.09,0.144-5.45-2.678-7.065-5.344c-7.523-12.42-10.089-27.689-7.602-41.987C10.618,122.557,15.355,103.15,27.444,100.663z"/>
<g>
	<g>
		<path class="st1" d="M193.041,159.628c-21.682,0-43.365,0.008-65.047-0.021c-1.249-0.002-3.203,0.564-3.13-1.57
			c0.07-2.017,1.977-1.264,3.119-1.266c25.936-0.04,51.873-0.048,77.809,0.01c1.675,0.004,2.081-0.29,2.009-2.086
			c-0.195-4.846-0.018-9.705-0.091-14.558c-0.029-1.92,0.758-2.509,2.593-2.499c11.115,0.058,22.232-0.027,33.346,0.081
			c1.978,0.019,2.025-0.871,1.993-2.352c-0.031-1.403,0.108-2.461-1.952-2.42c-6.859,0.139-13.723-0.002-20.583,0.086
			c-2.002,0.025-2.644-0.756-2.634-2.695c0.053-10.123,0.061-20.247-0.007-30.37c-0.013-2.01,0.713-2.629,2.66-2.621
			c14.546,0.06,29.093,0.057,43.639,0.003c1.863-0.007,2.539,0.602,2.526,2.521c-0.067,10.192-0.064,20.385-0.002,30.578
			c0.011,1.872-0.581,2.641-2.487,2.579c-3.153-0.103-6.313,0.032-9.467-0.055c-1.377-0.038-1.942,0.3-1.912,1.819
			c0.056,2.874-0.032,2.876,2.868,2.876c2.95,0,5.901,0.029,8.851-0.011c1.456-0.02,2.14,0.562,2.13,2.085
			c-0.034,5.061-0.021,10.123-0.006,15.185c0.003,1.01-0.199,1.864-1.386,1.878c-1.191,0.014-1.417-0.837-1.415-1.848
			c0.01-4.23-0.049-8.46,0.032-12.688c0.026-1.371-0.399-1.738-1.734-1.735c-17.497,0.042-34.994,0.045-52.49-0.005
			c-1.404-0.004-1.726,0.467-1.718,1.774c0.03,4.505-0.005,9.011-0.105,13.514c-0.019,0.837,0.283,0.939,0.915,0.925
			c0.48-0.01,0.961,0,1.441,0c15.233,0,30.465,0,45.698,0.002c0.617,0,1.237-0.009,1.85,0.043c0.73,0.062,1.074,0.531,1.119,1.247
			c0.045,0.712-0.236,1.27-0.937,1.407c-0.731,0.143-1.492,0.182-2.241,0.182C236.543,159.63,214.792,159.628,193.041,159.628z
			 M244.771,100.2c-6.519,0-13.038,0.035-19.557-0.029c-1.366-0.013-1.916,0.271-1.904,1.799c0.067,8.806,0.066,17.613,0.001,26.42
			c-0.011,1.503,0.498,1.821,1.886,1.816c13.175-0.048,26.351-0.044,39.526-0.005c1.274,0.004,1.787-0.259,1.776-1.69
			c-0.063-8.876-0.061-17.752-0.001-26.628c0.01-1.405-0.458-1.721-1.759-1.71C258.084,100.232,251.427,100.201,244.771,100.2z
			 M248.387,135.401c-0.447,1.873,0.331,2.286,2.119,2.344c2.019,0.065,2.271-0.731,2.299-2.474
			c0.028-1.774-0.393-2.341-2.243-2.347C248.596,132.917,247.936,133.544,248.387,135.401z"/>
		<path class="st1" d="M5.953,62.822c0.122,10.098,2.254,19.776,5.962,29.122c0.351,0.885,0.739,1.799-0.411,2.286
			c-1.122,0.475-1.799-0.189-2.2-1.231C2.96,76.523,0.668,59.774,6.627,42.688c3.877-11.115,10.479-20.196,21.523-24.944
			c11.714-5.036,22.947-3.974,32.966,4.42c3.774,3.162,6.418,7.206,6.946,12.338c0.225,2.187-0.162,4.273-1.13,6.253
			c-0.44,0.9-1.017,1.575-2.077,1.119c-1.074-0.462-1.014-1.333-0.558-2.255c1.786-3.606,1.059-7.076-0.882-10.279
			c-4.434-7.315-11.277-10.961-19.479-11.441c-14.642-0.857-24.681,6.843-31.812,18.969C7.812,44.201,5.881,53.339,5.953,62.822z"/>
		<path class="st1" d="M60.59,185.733c3.086,0.335,6.104,0.51,9.066,1.022c4.033,0.697,5.23,3.368,3.191,6.863
			c-0.415,0.711-0.267,0.923,0.338,1.216c2.328,1.127,4.408,2.521,5.53,5.03c0.345,0.771,1.19,0.568,1.847,0.598
			c6.724,0.298,12.876-1.479,18.492-5.214c0.845-0.562,1.801-1.851,2.776-0.464c1.025,1.458-0.3,2.216-1.337,2.915
			c-5.76,3.883-12.104,5.775-19.026,5.602c-1.439-0.036-2.542-0.017-3.08,1.776c-0.446,1.488-1.87,2.366-3.431,2.057
			c-1.376-0.272-2.327,0.254-3.416,0.846c-5.575,3.034-12.79,2.126-17.45-2.161c-0.8-0.736-1.908-1.528-0.875-2.747
			c1.066-1.259,1.903-0.226,2.727,0.533c3.9,3.593,9.535,4.357,14.151,1.918c0.706-0.373,1.355-0.713,1.708-1.637
			c0.606-1.587,1.604-1.668,2.624-0.271c0.955,1.308,1.434,0.322,1.693-0.37c0.475-1.27-0.034-2.433-0.829-3.469
			c-1.471-1.92-3.59-2.799-5.781-3.346c-1.987-0.496-2.062-2.133-2.217-3.498c-0.138-1.217,0.942-1.559,2.043-1.095
			c0.771,0.324,1.429,0.231,1.669-0.584c0.246-0.836-0.452-1.266-1.095-1.501c-2.031-0.742-4.194-0.606-6.298-0.852
			c-2.655-0.311-5.323-0.507-7.986-0.743c-1.079-0.095-1.94-0.472-1.781-1.754c0.163-1.308,1.223-1.157,2.081-1.002
			c1.615,0.291,2.606,0.331,2.287-1.966c-0.261-1.882,0.166-3.86,0.276-5.796c0.059-1.027,0.21-2.045,1.497-2.072
			c1.402-0.028,1.404,1.052,1.337,2.059C61.145,180.298,61.171,182.994,60.59,185.733z"/>
		<path class="st1" d="M99.706,176.494c-6.155-2.526-12.226-3.723-18.505-3.888c-5.595-0.147-11.062,0.682-16.422,2.301
			c-0.932,0.282-2.128,0.927-2.632-0.519c-0.526-1.507,0.693-1.868,1.78-2.195c12.099-3.643,24.062-3.247,35.88,1.26
			c0.57,0.217,1.312,0.407,1.6,0.854c0.557,0.868,1.053,0.814,1.846,0.424c0.847-0.417,1.668-0.228,2.035,0.731
			c0.322,0.843-0.116,1.387-0.872,1.844c-10.555,6.373-21.558,8.675-33.384,3.882c-1.651-0.669-3.33-1.272-5.012-1.858
			c-1.028-0.358-1.785-0.921-1.406-2.109c0.439-1.376,1.436-0.898,2.363-0.556c4.181,1.542,8.355,3.079,12.766,3.887
			C86.785,181.842,93.164,179.959,99.706,176.494z"/>
		<path class="st1" d="M122.724,104.849c-1.328-0.695-2.68-0.471-3.926-0.769c-1.053-0.252-1.623-0.744-1.477-1.838
			c0.164-1.227,1.093-1.044,1.903-0.9c2.348,0.415,4.792,0.249,7.049,1.259c0.361,0.161,0.916-0.109,1.379-0.195
			c1.378-0.256,2.779-0.378,3.973,0.495c2.518,1.842,4.926,1.445,7.369-0.135c3.637-2.352,7.326-4.624,10.933-7.021
			c1.448-0.962,2.435-0.688,3.541,0.547c3.658,4.08,6.615,8.647,9.371,13.367c0.516,0.884,0.288,1.578-0.342,2.238
			c-3.123,3.269-6.66,5.974-10.689,8.01c-0.956,0.483-1.894,0.647-2.466-0.494c-0.575-1.147,0.305-1.604,1.128-2.027
			c3.076-1.58,5.865-3.566,8.413-5.921c0.791-0.731,0.915-1.327,0.352-2.29c-2.03-3.471-4.33-6.734-6.889-9.827
			c-0.731-0.883-1.313-0.937-2.23-0.343c-3.289,2.132-6.615,4.205-9.926,6.301c-0.116,0.073-0.231,0.153-0.332,0.245
			c-1.831,1.667-4.669,0.466-6.13,1.592c-1.564,1.206-2.592,3.243-4.683,4.046c-0.859,0.33-1.645,0.528-2.088-0.485
			c-0.397-0.908,0.023-1.607,0.851-2.065c0.119-0.066,0.266-0.084,0.379-0.158c1.016-0.664,2.928-1.022,2.081-2.665
			c-0.795-1.543-2.33-0.399-3.48,0.046c-1.29,0.5-2.377,1.376-3.397,2.309c-0.799,0.73-1.642,1.192-2.469,0.182
			c-0.741-0.905-0.227-1.659,0.539-2.299C121.87,105.712,122.237,105.317,122.724,104.849z"/>
		<path class="st1" d="M161.816,33.936c-0.024-3.56,2.342-6.805,5.412-7.424c3.453-0.696,6.297,1.04,7.642,4.725
			c0.288,0.789,0.348,1.676,1.534,1.499c0.994-0.148,1.854-0.105,2.338-1.468c1.6-4.499,5.909-6.235,9.498-4.027
			c2.402,1.477,3.94,4.915,3.447,7.705c-0.618,3.497-2.645,5.785-5.632,6.358c-2.945,0.566-5.781-1.14-7.194-4.284
			c-0.303-0.673-0.183-1.78-1.473-1.584c-1.112,0.169-2.152,0.043-2.763,1.517c-1.458,3.516-4.196,5.009-7.267,4.31
			C164.139,40.53,161.84,37.491,161.816,33.936z M184.979,29.139c-2.093,0.026-3.927,2.266-3.897,4.76
			c0.031,2.559,1.837,4.688,3.962,4.669c2.088-0.019,3.953-2.262,3.938-4.734C188.966,31.368,187.044,29.114,184.979,29.139z
			 M172.518,33.809c-0.032-2.553-1.939-4.761-4.033-4.668c-2.122,0.094-3.873,2.343-3.805,4.889
			c0.067,2.486,1.839,4.538,3.919,4.539C170.725,38.568,172.549,36.352,172.518,33.809z"/>
		<path class="st1" d="M141.397,135.157c2.989-0.267,5.99-0.577,8.997-0.788c1.847-0.13,2.268,0.433,1.762,2.161
			c-0.086,0.293-0.493,0.482-0.16,0.869c1.788,2.083-0.015,2.618-1.426,3.098c-3,1.02-5.846,0.54-8.336-1.445
			c-0.791-0.631-1.501-1.032-2.544-1.048c-1.896-0.029-3.546-0.658-4.133-2.738c-0.493-1.746,0.445-3.665,2.47-4.786
			c3.741-2.071,7.949-2.553,12.057-3.187c3.382-0.522,6.745-0.837,9.864-2.471c1.162-0.609,1.846-1.181,1.896-2.581
			c0.044-1.242,0.518-2.436,1.278-3.456c1.06-1.425,2.516-1.817,4.198-1.561c1.633,0.248,2.531,1.328,2.94,2.825
			c0.445,1.629,0.326,3.303,0.049,4.949c-0.137,0.815-0.6,1.467-1.538,1.316c-0.982-0.157-1.312-0.844-1.224-1.826
			c0.092-1.027,0.39-2.047,0.14-3.096c-0.148-0.621-0.251-1.284-1.036-1.352c-0.658-0.057-1.205,0.249-1.564,0.814
			c-0.617,0.97-0.836,2.094-0.72,3.185c0.165,1.546-0.529,2.24-1.858,2.749c-2.111,0.809-4.124,1.886-6.251,2.642
			c-2.011,0.715-4.189,0.216-6.291,0.6c-3.113,0.568-6.136,1.433-9.155,2.33c-0.943,0.28-2.371,0.589-2.187,1.816
			C138.856,135.715,140.368,135.02,141.397,135.157z"/>
		<path class="st1" d="M35.61,84.195c-1.125-7.379-1.384-14.553-0.621-21.755c0.564-5.318,1.671-10.515,3.26-15.614
			c0.349-1.119,0.869-2.024,2.164-1.525c1.27,0.49,0.796,1.57,0.509,2.487c-3.772,12.046-4.56,24.278-2.388,36.729
			c0.254,1.454,0.94,2.128,2.165,2.659c4.237,1.836,8.606,3.179,13.161,3.918c0.951,0.154,2.33,0.006,2.111,1.592
			c-0.215,1.549-1.476,1.389-2.585,1.209c-6.832-1.109-13.257-3.384-19.236-6.918c-0.821-0.485-1.808-0.9-1.388-2.179
			C33.057,83.899,33.636,83.77,35.61,84.195z"/>
		<path class="st1" d="M0.004,160.446c1.256-18.373,4.181-36.427,9.033-54.161c0.127-0.466,0.271-0.927,0.412-1.389
			c0.284-0.93,0.972-1.142,1.782-0.88c0.743,0.241,1.07,0.836,0.864,1.635c-0.413,1.605-0.855,3.203-1.266,4.809
			c-4.561,17.814-7.287,35.904-7.966,54.3c-0.013,0.346,0.015,0.699-0.047,1.036c-0.154,0.84-0.609,1.413-1.522,1.361
			c-0.918-0.052-1.3-0.625-1.294-1.529C0.012,163.901,0.004,162.174,0.004,160.446z"/>
		<path class="st1" d="M203.094,72.168c-0.532,5.145-1.922,10.093-2.767,15.143c-0.823,4.915-0.877,4.93-5.787,4.629
			c-6.43-0.394-12.857-0.861-19.289-1.23c-1.502-0.086-2.149-0.688-1.923-2.199c0.829-5.545,1.655-11.091,2.483-16.637
			c0.135-0.905,0.622-1.418,1.553-1.18c1.067,0.273,1.307,1.077,1.149,2.097c-0.423,2.736-0.825,5.476-1.234,8.215
			c-0.266,1.78-0.406,3.591-0.829,5.332c-0.35,1.437,0.286,1.675,1.422,1.745c6.02,0.369,12.042,0.732,18.057,1.174
			c1.003,0.074,1.299-0.245,1.464-1.163c0.89-4.971,1.832-9.931,2.754-14.896c0.076-0.409,0.148-0.82,0.187-1.233
			c0.102-1.074,0.448-1.963,1.723-1.833C203.384,70.268,203.122,71.316,203.094,72.168z"/>
		<path class="st1" d="M27.601,147.107c-0.122-9.654-3.177-19.98-9.332-29.357c-0.465-0.708-1.385-1.464-0.517-2.367
			c1.184-1.231,2.05-0.436,2.795,0.668c3.269,4.843,5.728,10.084,7.378,15.693c2.827,9.612,3.239,19.344,1.199,29.169
			c-0.084,0.406-0.221,0.802-0.292,1.21c-0.19,1.087-0.787,1.625-1.876,1.32c-1.029-0.288-1.1-1.095-0.878-1.998
			C27.107,157.258,27.601,153.003,27.601,147.107z"/>
		<path class="st1" d="M180.527,2.836c-2.544-0.028-5.056,0.304-7.565,0.681c-0.539,0.081-1.092,0.153-1.632,0.117
			c-0.711-0.048-1.073-0.581-1.216-1.224c-0.166-0.747,0.253-1.272,0.911-1.397c6.392-1.222,12.797-1.563,19.132,0.265
			c5.148,1.486,9.522,4.218,12.609,8.765c2.623,3.864,3.718,8.119,3.102,12.796c-0.124,0.941-0.278,1.957-1.44,1.882
			c-1.151-0.074-1.488-0.912-1.392-2.09c0.633-7.759-3.004-13.916-10.131-17.272C189.247,3.637,185.294,2.832,180.527,2.836z"/>
		<path class="st1" d="M66.013,143.736c0.041,0.748-0.328,1.38-1.203,1.528c-1.085,0.184-1.404-0.559-1.566-1.47
			c-0.998-5.585-2.018-11.167-3.014-16.752c-1.068-5.994-2.107-11.994-3.182-17.987c-0.195-1.089-0.371-2.209,0.983-2.535
			c1.52-0.366,1.563,0.883,1.748,1.922c2.005,11.24,4.021,22.477,6.029,33.717C65.894,142.636,65.935,143.12,66.013,143.736z"/>
		<path class="st1" d="M3.63,175.392c1.027,0.027,1.302,0.893,1.707,1.591c4.862,8.371,11.252,15.303,19.169,20.794
			c1.128,0.782,2.293,1.511,3.459,2.236c0.827,0.514,1.516,1.098,0.905,2.157c-0.664,1.15-1.545,0.815-2.456,0.262
			c-10.015-6.081-17.957-14.219-23.779-24.458C1.859,176.61,2.375,175.386,3.63,175.392z"/>
		<path class="st1" d="M208.165,35.663c3.817,0.01,7.125,2.312,8.215,5.717c1.173,3.662-0.113,7.662-3.14,9.772
			c-3.238,2.256-7.491,2.136-10.543-0.266c-0.898-0.707-1.594-1.539-0.769-2.601c0.811-1.045,1.648-0.344,2.467,0.263
			c2.45,1.817,5.215,1.844,7.405,0.147c1.929-1.495,2.672-3.965,1.898-6.309c-1.117-3.381-5.083-4.979-8.228-3.3
			c-0.42,0.224-0.809,0.517-1.189,0.808c-0.807,0.62-1.658,0.854-2.321-0.086c-0.676-0.957-0.061-1.678,0.688-2.277
			C204.263,36.235,206.096,35.591,208.165,35.663z"/>
		<path class="st1" d="M66.199,67.441c-0.171,7.29-5.291,13.55-12.221,14.874c-1.627,0.311-2.533,0.976-2.952,2.556
			c-0.245,0.926-0.671,1.81-1.082,2.681c-0.351,0.743-1.026,0.895-1.74,0.64c-0.769-0.275-0.977-0.903-0.803-1.676
			c0.03-0.134,0.091-0.26,0.132-0.392c0.343-1.108,1.411-2.233,1.011-3.252c-0.379-0.964-1.942-0.659-2.919-1.118
			c-0.956-0.45-1.444-1.166-1.028-2.148c0.486-1.146,1.464-0.705,2.315-0.465c6.687,1.893,12.884-0.926,15.447-7.033
			c0.621-1.48,0.929-3.029,0.981-4.63c0.034-1.038-0.137-2.265,1.435-2.175C66.219,65.384,66.154,66.569,66.199,67.441z"/>
		<path class="st1" d="M58.877,39.301c-2.224,3.118-4.869,5.304-8.449,6.13c-0.333,0.077-0.677,0.251-0.997,0.214
			c-1.156-0.136-2.921,0.999-3.273-0.941c-0.378-2.086,1.584-1.64,2.722-1.831c5.259-0.883,8.916-5.216,9.078-10.947
			c0.029-1.027-0.097-2.067,1.331-2.014c1.321,0.049,1.574,1.122,1.379,2.092c-0.589,2.919,0.14,5.316,1.799,7.815
			c1.64,2.471,2.002,5.545,1.942,8.572c-0.019,0.955-0.125,1.869-1.353,1.914c-1.275,0.047-1.309-0.863-1.37-1.83
			C61.409,44.181,60.764,42.075,58.877,39.301z"/>
		<path class="st1" d="M213.439,71.355c0.194,0.064,0.475,0.11,0.709,0.242c6.711,3.785,13.455,7.524,18.158,13.978
			c1.591,2.183,2.921,4.514,4.065,6.962c0.439,0.939,0.433,1.791-0.576,2.29c-0.967,0.478-1.54-0.095-1.916-0.959
			c-3.729-8.563-10.498-13.995-18.406-18.26c-1.026-0.553-2.035-1.145-3.014-1.779c-0.601-0.389-0.678-1.023-0.408-1.66
			C212.289,71.605,212.762,71.355,213.439,71.355z"/>
		<path class="st1" d="M176.92,133.456c-1.503,1.41-2.895,2.91-4.609,4.038c-2.995,1.971-6.277,3.025-9.816,3.34
			c-0.958,0.085-1.877,0.042-2.011-1.168c-0.144-1.298,0.7-1.573,1.805-1.668c5.18-0.442,9.384-2.738,12.657-6.839
			c0.941-1.179,1.317-2.333,0.785-3.793c-0.232-0.636-0.303-1.342-0.372-2.024c-0.075-0.746,0.399-1.162,1.049-1.322
			c0.678-0.167,1.301,0.082,1.478,0.774c0.893,3.477,1.752,6.963,2.566,10.459c0.18,0.773-0.266,1.347-1.055,1.514
			c-0.77,0.163-1.283-0.128-1.592-0.92C177.511,135.092,177.629,134.185,176.92,133.456z"/>
		<path class="st1" d="M110.708,123.431c0.063,1.165-0.301,1.763-0.997,2.224c-3.667,2.431-7.326,4.875-10.979,7.327
			c-0.782,0.525-1.548,0.725-2.134-0.187c-0.6-0.935-0.258-1.691,0.627-2.273c2.985-1.966,5.925-4.006,8.96-5.889
			c1.266-0.786,1.589-1.506,1.016-2.962c-1.314-3.34-2.422-6.763-3.63-10.147c-0.312-0.874-0.401-1.694,0.639-2.054
			c0.895-0.311,1.637,0.013,1.975,0.964c1.504,4.231,2.996,8.467,4.485,12.704C110.736,123.327,110.721,123.546,110.708,123.431z"/>
		<path class="st1" d="M162.141,47.091c-0.158,7.342,5.139,13.759,12.286,14.889c0.472,0.075,0.953,0.14,1.403,0.29
			c0.778,0.258,1.004,0.894,0.905,1.649c-0.101,0.773-0.651,0.971-1.339,0.975c-1.461,0.008-2.844-0.376-4.212-0.831
			c-7.827-2.601-13.105-11.183-11.689-19.02c0.145-0.803,0.212-1.786,1.37-1.703c1.105,0.079,1.487,0.826,1.39,1.887
			C162.199,45.846,162.178,46.469,162.141,47.091z"/>
		<path class="st1" d="M53.945,100.953c-8.207-0.722-15.501-3.061-22.201-7.248c-0.957-0.598-1.821-1.291-1.123-2.458
			c0.77-1.287,1.782-0.501,2.65,0.04c6.283,3.919,13.115,6.157,20.459,6.801c1.056,0.093,1.983,0.298,1.948,1.587
			C55.638,101.109,54.526,100.956,53.945,100.953z"/>
		<path class="st1" d="M126.784,112.882c-0.443,1.444-1.14,2.902-2.298,3.988c-1.001,0.939-1.026,1.746-0.411,2.872
			c0.691,1.266,1.248,2.61,1.821,3.94c0.386,0.896,0.464,1.839-0.568,2.325c-1.088,0.512-1.709-0.235-2.002-1.158
			c-1.067-3.361-2.383-5.931-6.701-3.949c-1.419,0.652-3.234-0.005-4.808-0.572c-0.917-0.33-1.37-0.919-1.131-1.891
			c0.266-1.079,0.974-1.049,1.912-0.833c5.623,1.291,8.33,0.059,11.344-5.123c0.431-0.74,0.929-1.188,1.801-1.023
			C126.448,111.591,126.794,112.046,126.784,112.882z"/>
		<path class="st1" d="M117.219,94.239c5.163,0.974,10.343,1.944,15.308,3.736c2.094,0.756,2.557,2.084,1.649,3.462
			c-0.787,1.193-2.049,1.27-2.527-0.024c-0.378-1.022-0.966-1.049-1.779-1.248c-3.391-0.831-6.751-1.787-10.133-2.652
			c-2.094-0.535-4.192-0.937-5.959,0.901c-0.57,0.593-1.244,0.605-1.813,0.013c-0.685-0.712-0.617-1.523,0.007-2.227
			C113.365,94.628,115.176,94.169,117.219,94.239z"/>
		<path class="st1" d="M194.996,146.477c-2.39-0.566-4.779-1.141-7.172-1.697c-4.723-1.099-9.445-2.202-14.175-3.268
			c-1.029-0.232-1.949-0.521-1.637-1.835c0.31-1.304,1.286-1.155,2.296-0.92c6.917,1.608,13.84,3.195,20.76,4.79
			c0.918,0.211,1.806,0.524,1.6,1.722C196.521,146.129,195.914,146.554,194.996,146.477z"/>
		<path class="st1" d="M181.996,124.502c6.956,0.897,13.759,2.441,20.402,4.708c1.038,0.354,1.798,0.89,1.43,2.079
			c-0.39,1.263-1.573,1.175-2.412,0.819c-6.188-2.629-12.743-3.688-19.298-4.766c-0.203-0.033-0.409-0.048-0.611-0.083
			c-1.023-0.179-1.363-0.875-1.227-1.814C180.429,124.419,181.195,124.384,181.996,124.502z"/>
		<path class="st1" d="M164.426,92.245c0.552-6.661,1.947-13.123,4.277-19.38c0.402-1.079,0.916-2.034,2.183-1.574
			c1.458,0.529,0.764,1.666,0.424,2.613c-1.616,4.496-2.85,9.09-3.535,13.829c-0.207,1.434-0.345,2.848-0.218,4.32
			c0.103,1.194-0.57,2.234-1.923,2.173C164.504,94.174,164.266,93.254,164.426,92.245z"/>
		<path class="st1" d="M50.213,184.228c-0.216,6.156-1.222,11.776-3.245,17.196c-0.169,0.453-0.327,0.911-0.517,1.354
			c-0.387,0.902-1.092,1.264-1.999,0.952c-1.079-0.371-0.936-1.223-0.598-2.052c1.1-2.692,1.919-5.473,2.493-8.321
			c0.684-3.396,1.109-6.825,1.008-10.304c-0.032-1.109-0.182-2.47,1.44-2.41c1.533,0.057,1.431,1.383,1.419,2.51
			C50.209,183.638,50.213,184.122,50.213,184.228z"/>
		<path class="st1" d="M130.144,126.186c-1.059,0.179-1.888,0.001-2.018-1.045c-0.135-1.081,0.527-1.592,1.595-1.703
			c5.73-0.6,11.352-1.725,16.822-3.59c0.811-0.276,1.698-0.306,2.001,0.793c0.309,1.121-0.364,1.654-1.309,1.97
			C141.628,124.488,135.887,125.703,130.144,126.186z"/>
		<path class="st1" d="M164.049,10.135c0.088-0.765,0.152-1.522,0.265-2.27c0.146-0.961,0.499-1.814,1.672-1.642
			c1.159,0.17,1.33,1.04,1.123,2.031c-0.333,1.59-0.298,3.169,0.243,4.692c1.093,3.082,3.191,5.073,6.4,5.787
			c0.4,0.089,0.803,0.169,1.203,0.257c0.869,0.192,1.316,0.756,1.205,1.634c-0.123,0.969-0.834,1.1-1.672,1.078
			c-4.662-0.119-9.34-4.371-10.186-9.31C164.174,11.648,164.131,10.887,164.049,10.135z"/>
		<path class="st1" d="M36.163,182.136c-0.039,0.825-0.479,1.353-1.191,1.531c-0.943,0.235-1.303-0.482-1.636-1.203
			c-1.817-3.935-3.648-7.863-5.468-11.796c-0.404-0.873-0.846-1.735-1.156-2.643c-0.283-0.83,0.064-1.506,0.871-1.849
			c0.805-0.342,1.324,0.114,1.64,0.793c2.269,4.863,4.521,9.733,6.772,14.604C36.081,181.756,36.114,181.965,36.163,182.136z"/>
		<path class="st1" d="M38.382,197.203c-1.188-0.051-1.619-0.767-1.257-1.808c1.563-4.49,3.187-8.958,4.806-13.427
			c0.344-0.95,1.09-1.26,1.977-0.877c0.827,0.357,0.932,1.041,0.622,1.9c-1.568,4.342-3.095,8.699-4.642,13.049
			C39.638,196.74,39.218,197.246,38.382,197.203z"/>
		<path class="st1" d="M156.518,22.084c0.055-2.685,0.79-5.16,2.301-7.398c0.485-0.719,0.998-1.472,1.964-0.961
			c0.992,0.525,1.027,1.528,0.48,2.331c-2.477,3.64-2.549,7.318-0.416,11.118c0.468,0.833,0.398,1.655-0.537,2.107
			c-0.93,0.45-1.563-0.069-2.024-0.866C157.158,26.464,156.575,24.357,156.518,22.084z"/>
		<path class="st1" d="M101.559,111.66c-0.077,0.713-0.56,1.067-1.145,1.34c-3.294,1.537-6.587,3.075-9.879,4.618
			c-0.987,0.463-1.924,0.527-2.399-0.649c-0.464-1.148,0.387-1.563,1.257-1.964c3.177-1.462,6.327-2.985,9.509-4.435
			C100.341,109.915,101.561,110.463,101.559,111.66z"/>
		<path class="st1" d="M108.757,180.155c-0.543,3.504-1.132,7.321-1.727,11.136c-0.138,0.884-0.609,1.433-1.539,1.189
			c-0.914-0.24-1.339-0.93-1.192-1.888c0.578-3.749,1.181-7.494,1.761-11.242c0.144-0.929,0.484-1.637,1.572-1.407
			C108.63,178.154,108.865,178.912,108.757,180.155z"/>
		<path class="st1" d="M179.963,54.796c-1.704-0.102-3.317-0.351-4.892-0.837c-1.056-0.326-1.703-0.97-1.338-2.14
			c0.344-1.103,1.25-0.917,2.043-0.645c2.606,0.895,5.219,0.975,7.84,0.137c0.925-0.296,1.682-0.192,1.981,0.797
			c0.321,1.062-0.246,1.666-1.261,1.966C182.884,54.503,181.399,54.672,179.963,54.796z"/>
		<path class="st1" d="M54.03,73.996c-2.305,0.008-4.179-0.571-5.939-1.581c-0.857-0.492-1.489-1.128-0.964-2.169
			c0.533-1.057,1.357-0.933,2.252-0.39c2.165,1.313,4.475,1.637,6.914,0.93c0.884-0.257,1.709-0.186,2.017,0.824
			c0.336,1.101-0.322,1.673-1.301,1.95C55.948,73.861,54.873,74.059,54.03,73.996z"/>
		<path class="st1" d="M202.868,58.154c-0.449,2.23-1.002,4.995-1.564,7.759c-0.169,0.83-0.711,1.148-1.503,0.997
			c-0.878-0.167-1.348-0.803-1.2-1.637c0.504-2.844,1.073-5.677,1.684-8.5c0.166-0.765,0.799-1.137,1.579-0.9
			C202.679,56.121,203.076,56.724,202.868,58.154z"/>
		<path class="st1" d="M51.836,51.549c-0.035-1.951,0.81-2.586,2.244-1.626c0.895,0.599,1.398,0.115,2.028-0.152
			c0.887-0.376,1.638-0.325,2.078,0.601c0.456,0.96-0.08,1.582-0.899,1.985c-1.136,0.559-2.445,0.862-2.255,2.667
			c0.064,0.607-0.653,1.029-1.353,0.956c-0.675-0.07-1.138-0.482-1.271-1.162C52.182,53.669,52.002,52.512,51.836,51.549z"/>
		<path class="st1" d="M173.647,23.454c-0.29,1.272-1.062,1.858-2.124,1.349c-1.968-0.943-3.814-0.882-5.688,0.151
			c-0.732,0.403-1.369,0.146-1.778-0.493c-0.409-0.64-0.318-1.298,0.264-1.866c1.651-1.614,7.044-1.704,8.729-0.102
			C173.329,22.757,173.473,23.167,173.647,23.454z"/>
		<path class="st1" d="M175.471,40.175c0.604,0.007,1.021,0.287,1.306,0.833c0.316,0.605,0.13,1.187-0.315,1.488
			c-1.35,0.912-1.348,1.58,0.176,2.24c0.546,0.237,0.817,0.761,0.648,1.375c-0.173,0.631-0.542,1.104-1.246,1.221
			c-1.491,0.247-3.372-1.596-3.485-3.427C172.449,42.18,174.015,40.176,175.471,40.175z"/>
		<path class="st1" d="M69.957,58.019c-0.055,2.233-2.3,5.013-4.376,5.471c-0.79,0.174-1.375-0.058-1.674-0.786
			c-0.287-0.698-0.208-1.45,0.538-1.78c1.554-0.688,2.55-1.706,2.787-3.493c0.117-0.886,0.898-1.158,1.739-0.975
			C69.794,56.635,70.016,57.248,69.957,58.019z"/>
		<path class="st1" d="M56.847,95.905c-0.165-1.414,0.156-1.983,0.941-2.165c0.772-0.179,1.368,0.167,1.606,0.922
			c0.394,1.249,0.746,2.515,1.051,3.79c0.191,0.8-0.256,1.338-0.96,1.619c-0.791,0.315-1.42-0.087-1.667-0.778
			C57.357,97.998,57.053,96.646,56.847,95.905z"/>
		<path class="st1" d="M244.871,128.494c-5.484,0-10.969-0.05-16.452,0.029c-1.782,0.025-2.419-0.604-2.402-2.416
			c0.069-7.273,0.068-14.547,0-21.82c-0.017-1.766,0.534-2.499,2.347-2.491c11.036,0.047,22.073,0.043,33.11,0.002
			c1.674-0.006,2.373,0.672,2.369,2.327c-0.019,7.343-0.025,14.686,0.003,22.029c0.007,1.792-0.776,2.395-2.523,2.37
			C255.84,128.443,250.355,128.494,244.871,128.494z M244.981,125.671c4.796,0,9.593-0.036,14.389,0.024
			c1.257,0.016,1.644-0.394,1.632-1.66c-0.056-5.885-0.052-11.771-0.002-17.656c0.01-1.222-0.292-1.703-1.595-1.697
			c-9.661,0.047-19.323,0.048-28.984-0.003c-1.291-0.007-1.619,0.417-1.607,1.664c0.055,5.816,0.087,11.634-0.016,17.448
			c-0.029,1.637,0.538,1.939,1.999,1.913C235.525,125.619,240.253,125.672,244.981,125.671z"/>
		<path class="st1" d="M167.171,34.064c-0.01-1.329-0.097-2.581,1.559-2.474c1.88,0.122,1.393,1.74,1.518,2.836
			c0.127,1.106,0.004,2.486-1.486,2.428C166.877,36.781,167.233,35.13,167.171,34.064z"/>
		<path class="st1" d="M182.245,34.064c-0.01-1.329-0.097-2.581,1.559-2.474c1.88,0.122,1.393,1.74,1.518,2.836
			c0.127,1.106,0.004,2.486-1.486,2.428C181.951,36.781,182.307,35.13,182.245,34.064z"/>
	</g>
</g>
<path class="st2" d="M50.604,36.578c-3.528,4.132-9.764,5.077-14.915,3.437c-4.654,9.089-5.375,19.701-5.036,29.929
	c0.122,3.693,0.362,7.464-0.635,11.019c-1.711,6.101-6.903,10.706-12.659,13.233c-5.038-8.763-5.882-19.3-6.065-29.433
	c-0.131-7.239,0.039-14.631,2.405-21.465c3.405-9.834,13.273-20.239,23.273-23.447C46.211,16.887,58.295,27.571,50.604,36.578z"/>
<path class="st2" d="M182.211,17.562c2.499,0.223,4.998,0.445,7.497,0.668c1.964,0.175,3.981,0.365,5.744,1.256
	s3.238,2.658,3.198,4.65c0.745-4.022-0.35-8.194-2.122-11.873c-0.927-1.926-2.103-3.826-3.894-4.971
	c-1.542-0.986-3.4-1.32-5.215-1.513c-4.052-0.43-12.954-1.276-15.551,3.069C168.529,14.435,178.782,17.257,182.211,17.562z"/>
<path class="st3" d="M229.708,125.119c10.194-5.885,20.387-11.77,30.581-17.656c1.184,6.773,2.051,13.603,2.595,20.459
	c-5.404,0.294-10.743,1.757-15.554,4.261c-5.059,2.633-9.969,6.518-15.653,6.263c-3.882-0.174-7.383-2.29-10.694-4.345
	c-6.015-3.733-12.03-7.466-18.045-11.199"/>
<path class="st3" d="M201.789,140.933c0.396,1.042,0.792,2.084,1.188,3.127c-3.226-0.247-6.497,0.115-9.594,1.061
	c2.203-1.81,4.22-3.851,6.007-6.08c-1.281-0.117-2.601,0.569-3.251,1.691c-0.4,0.691-0.549,1.496-0.804,2.254
	c-0.734,2.181-2.332,3.936-3.887,5.62"/>
</svg>
