<?xml version="1.0" encoding="utf-8"?>
<!-- Generator: Adobe Illustrator 26.0.3, SVG Export Plug-In . SVG Version: 6.00 Build 0)  -->
<svg version="1.1" id="レイヤー_1" xmlns="http://www.w3.org/2000/svg" xmlns:xlink="http://www.w3.org/1999/xlink" x="0px"
	 y="0px" width="128.502px" height="113.653px" viewBox="0 0 128.502 113.653" style="enable-background:new 0 0 128.502 113.653;"
	 xml:space="preserve">
<style type="text/css">
	.st0{fill:#A2AEC4;}
	.st1{fill:#EEDBD6;}
	.st2{fill:#1E396A;}
</style>
<path class="st0" d="M57.969,85.917c1.865,4.218,4.313,8.178,7.251,11.732c0.445,0.538,1.004,1.114,1.701,1.079
	c0.424-0.021,0.799-0.271,1.141-0.521c1.782-1.304,3.358-2.866,4.926-4.421c3.131-3.106,6.263-6.212,9.394-9.318
	c-0.131,0.13,2.57,2.414,2.769,2.584c0.551,0.469,1.109,0.93,1.658,1.402c0.661,0.568,1.045,1.345,1.75,1.844
	c-1.17,0.257-2.391,0.38-3.578,0.561c-0.092,0.014-0.202,0.043-0.228,0.132c-0.014,0.046,0,0.095,0.014,0.141
	c0.424,1.399,1.152,2.564,1.632,3.951c0.636,1.837,1.225,3.811,2.107,5.542c0.608,1.192,2.372,3.494,3.915,3.494
	c-2.047,1.722-5.039,1.443-7.71,1.29c-11.468-0.657-22.848,2.773-34.329,2.415c-2.116-0.066-5.603,0.013-5.983-2.639
	c-0.31-2.167,1.514-5.325,2.46-7.163c1.282-2.49,2.9-4.806,4.796-6.866C52.111,90.66,57.873,85.7,57.969,85.917z"/>
<path class="st1" d="M29.367,104.012c-0.015,0.508-0.064,1.086-0.464,1.4c-0.322,0.252-0.77,0.248-1.179,0.231
	c-2.335-0.094-4.462-0.119-6.646-0.918c-2.44-0.892-5.06-0.833-7.578-0.191c-1.017-6.502-1.453-13.094-1.306-19.673
	c0.053-2.364-0.589-5.371,0.729-7.395c1.422-2.182,3.805-3.753,6.242-4.571c3.306-1.11,6.907-1.019,10.348-0.451
	c1.499,0.248,0.384,15.685,0.347,16.949C29.718,94.268,29.515,99.139,29.367,104.012z"/>
<path class="st1" d="M48.531,9.914c16.666,1.089,33.332,2.177,49.998,3.266c1.708,0.112,3.57,0.288,4.802,1.477
	c1.606,1.551,1.471,4.117,1.219,6.335c-0.149,1.315-0.332,2.711-1.174,3.733c-1.249,1.517-3.469,1.688-5.434,1.74
	c-23.333,0.625-46.666,1.25-69.999,1.876c-0.657,0.018-1.406-0.003-1.837-0.498c-0.295-0.338-0.359-0.814-0.41-1.26
	c-0.326-2.824-0.652-5.648-0.978-8.472c-0.365-3.159,0.141-7.507,3.3-7.872C35.381,9.387,41.136,9.431,48.531,9.914z"/>
<g>
	<g>
		<path class="st2" d="M40.023,7.143c-0.369-0.422-0.366-0.927-0.365-1.442c0.006-5.189,0.003-1.454,0.006-4.26
			c0-0.161-0.008-0.326,0.049-0.482c0.081-0.226,0.375-0.344,0.802-0.342c0.424,0.002,0.719,0.11,0.774,0.35
			c0.036,0.16,0.048,0.322,0.048,0.483c0.003,2.807,0.001-0.921,0.004,4.268c0,0.489-0.003,0.971-0.347,1.502
			c0.442,0,0.805,0,1.168,0c15.232,0,30.463-0.013,45.695,0.027c1.11,0.003,1.344-0.311,1.334-1.366
			c-0.053-5.562-0.025-1.94-0.024-4.949c0-0.182-0.013-0.365,0.022-0.545c0.05-0.261,0.339-0.394,0.83-0.386
			c0.489,0.008,0.765,0.136,0.768,0.411C90.788,0.675,90.79,0.938,90.79,1.2c0,2.888-0.008-0.834,0.005,4.505
			c0.004,1.752-0.246,1.505,1.565,1.51c4.704,0.013,9.408,0.003,14.112,0.005c1.429,0.001,1.541,0.107,1.541,1.525
			c0.003,6.608,0.003,13.216,0,19.824c-0.001,1.397-0.137,1.544-1.533,1.566c-1.157,0.018-2.314-0.01-3.471-0.01
			c-26.282-0.001-52.564-0.001-78.846-0.001c-1.897,0-1.972-0.073-1.972-1.937c-0.001-6.421-0.001-12.842,0.001-19.264
			c0-1.564,0.136-1.74,1.724-1.744c3.957-0.01,7.914-0.01,11.869,0.063c0.979,0.018,1.267-0.234,1.258-1.232
			c-0.047-5.562-0.024-2-0.02-5.009c0-0.221,0.009-0.445,0.076-0.662c0.07-0.225,0.354-0.342,0.796-0.34
			c0.445,0.001,0.713,0.126,0.784,0.349c0.063,0.197,0.071,0.401,0.071,0.602c0.004,3.029,0.021-0.523-0.014,5.077
			C38.73,6.978,38.914,7.478,40.023,7.143z M65.17,8.845c-13.359,0-26.719,0.011-40.078-0.022c-0.985-0.002-1.257,0.253-1.249,1.243
			c0.047,5.709,0.047,11.419,0,17.128c-0.009,1.038,0.297,1.327,1.329,1.326c26.681-0.026,53.362-0.028,80.044,0.007
			c1.056,0.001,1.198-0.347,1.192-1.266c-0.038-5.672-0.05-11.344,0.008-17.016c0.011-1.106-0.236-1.432-1.392-1.428
			C91.74,8.861,78.455,8.845,65.17,8.845z"/>
		<path class="st2" d="M30.329,105.503c0.657,0,1.067,0,1.476,0c31.649,0,63.297-0.002,94.946,0.016c0.654,0,1.743-0.411,1.751,0.76
			c0.008,1.237-1.12,0.838-1.812,0.838c-41.613,0.017-83.227,0.015-124.84,0.014c-0.373,0-0.75,0.017-1.118-0.031
			c-0.457-0.059-0.746-0.315-0.731-0.823c0.015-0.508,0.303-0.738,0.779-0.762c0.335-0.017,0.672-0.012,1.007-0.012
			c8.771-0.001,17.541-0.003,26.312,0.005c0.706,0.001,1.463,0.144,0.983-1.008c-0.093-0.224-0.021-0.517-0.021-0.778
			c0-10.301-0.006-20.601,0.013-30.902c0.001-0.671-0.346-1.722,0.806-1.741c1.161-0.02,0.845,1.026,0.846,1.706
			c0.016,10.338,0.011,20.676,0.011,31.014C30.736,104.353,30.797,104.916,30.329,105.503z"/>
		<path class="st2" d="M62.584,111.999c20.039,0,40.079-0.003,60.118,0.015c0.62,0.001,1.641-0.379,1.639,0.752
			c-0.002,1.148-1.031,0.851-1.713,0.852c-40.041,0.012-80.083,0.011-120.124,0.011c-0.112,0-0.224,0.001-0.336-0.001
			c-0.647-0.009-1.391,0.031-1.38-0.883c0.011-0.898,0.766-0.742,1.342-0.742c9.143-0.005,18.285-0.003,27.428-0.003
			C40.567,111.999,51.576,111.999,62.584,111.999z"/>
		<path class="st2" d="M68.918,86.49c0.282,2.021,0.551,3.947,0.853,6.112c1.536-2.102,2.77-4.094,3.756-6.354
			c-0.554,0.098-0.788,0.452-1.089,0.691c-0.463,0.366-0.934,0.538-1.384,0.057c-0.5-0.533-0.148-0.942,0.286-1.309
			c0.74-0.627,1.433-1.318,2.222-1.874c1.141-0.805,1.777-1.851,1.937-3.229c0.064-0.555,0.161-1.217,0.954-1.09
			c0.818,0.131,0.781,0.796,0.657,1.407c-0.545,2.684-1.538,5.206-2.807,7.625c-1.918,3.656-4.431,6.89-7.092,10.02
			c-0.508,0.597-1.073,0.744-1.565,0.048c-3.793-5.37-7.447-10.815-8.884-17.39c-0.024-0.109-0.056-0.218-0.067-0.328
			c-0.062-0.643-0.402-1.493,0.537-1.671c0.751-0.142,1.429,0.319,1.741,1.084c0.661,1.62,1.317,3.243,1.927,4.882
			c0.272,0.732,0.476,0.854,1.085,0.237c1.204-1.219,2.506-2.341,3.751-3.519c0.655-0.62,1.196-0.598,1.772,0.127
			c0.741,0.934,1.543,1.82,2.317,2.728c0.361,0.424,0.818,0.827,0.496,1.47C70.011,86.828,69.454,86.622,68.918,86.49z
			 M66.502,96.767c0.453-0.537,0.887-1.091,1.363-1.606c0.39-0.421,0.48-0.871,0.397-1.43c-0.24-1.615-0.435-3.236-0.65-4.855
			c-0.213-1.607-0.214-1.575-1.841-1.614c-0.618-0.015-0.742,0.209-0.756,0.764c-0.036,1.41-0.04,2.832-0.231,4.225
			C64.534,94.083,65.228,95.483,66.502,96.767z M63.362,86.507c-0.57,0.333-1.056,0.818-1.657,0.302
			c-0.259,0.378-1.059,0.452-0.721,1.162c0.598,1.257,1.238,2.495,2.154,3.789C63.301,89.918,63.461,88.279,63.362,86.507z
			 M66.151,85.65c0.616-0.058,1.494,0.015,1.552-0.67c0.041-0.485-0.631-1.045-1.187-1.37c-0.159-0.093-1.755,1.353-1.68,1.53
			C65.09,85.743,65.67,85.592,66.151,85.65z"/>
		<path class="st2" d="M9.186,89.981c0.607-0.427,1.156-0.382,1.7-0.382c5.3,0.001,10.6,0,15.9,0.001c0.298,0,0.598,0,0.895,0.022
			c0.438,0.032,0.685,0.304,0.724,0.718c0.045,0.474-0.21,0.793-0.671,0.888c-0.288,0.059-0.594,0.046-0.892,0.046
			c-5.337,0.002-10.675,0.002-16.012,0.001c-0.521,0-1.063,0.072-1.511-0.463c-0.061,0.197-0.116,0.319-0.134,0.446
			c-0.075,0.545-0.31,0.94-0.927,0.886c-0.652-0.057-0.704-0.544-0.703-1.065c0.006-1.903,0.002-3.807-0.096-5.722
			c-0.596,5.37-1.193,10.74-1.789,16.109c-0.025,0.222-0.019,0.451-0.074,0.666c-0.129,0.511-0.498,0.748-1,0.689
			c-0.511-0.06-0.648-0.436-0.6-0.903c0.195-1.891,0.382-3.784,0.588-5.674c0.708-6.485,1.424-12.97,2.134-19.455
			c0.247-2.261,0.482-4.523,0.729-6.784c0.064-0.59,0.223-1.17,0.962-1.135c0.789,0.037,0.771,0.692,0.772,1.252
			c0.007,6.121,0.005,12.242,0.006,18.364C9.186,88.929,9.186,89.371,9.186,89.981z"/>
		<path class="st2" d="M52.765,54.764c-0.175-7.012,3.731-11.552,10.854-12.583c2.308-0.334,4.612-0.452,6.875,0.233
			c2.038,0.617,3.582,1.815,4.238,3.935c0.109,0.351,0.168,0.726,0.187,1.094c0.024,0.473-0.227,0.777-0.709,0.848
			c-0.446,0.066-0.731-0.155-0.824-0.571c-0.733-3.267-3.186-4.055-6.063-4.174c-2.651-0.109-5.2,0.413-7.599,1.541
			c-3.415,1.606-5.011,4.431-5.229,8.106c-0.111,1.867,0.043,3.728,0.244,5.585c0.055,0.506,0.199,1.149-0.555,1.242
			c-0.777,0.096-1.017-0.475-1.075-1.132C52.989,57.513,52.879,56.138,52.765,54.764z"/>
		<path class="st2" d="M71.651,75.5c-1.05,0.233-2.059,0.483-3.079,0.672c-0.57,0.106-0.948-0.223-1.04-0.77
			c-0.084-0.501,0.246-0.773,0.713-0.811c4.696-0.389,5.8-3.756,6.321-7.608c0.226-1.673,0.224-1.673,1.79-1.173
			c0.035,0.011,0.077,0.039,0.105,0.029c0.947-0.341,1.623-1.019,2.209-1.801c0.422-0.563,0.656-1.185,0.35-1.876
			c-0.2-0.452-0.548-0.557-1.009-0.322c-0.548,0.28-1.066,0.2-1.302-0.397c-0.258-0.651,0.27-0.943,0.746-1.171
			c0.81-0.388,1.602-0.297,2.311,0.249c0.837,0.644,1.191,1.537,1.044,2.562c-0.315,2.192-1.841,3.44-3.677,4.314
			c-0.8,0.381-1.175,0.855-1.316,1.695c-0.3,1.789-0.983,3.415-2.16,4.834c-0.732,0.882-0.366,2.236,0.63,2.76
			c0.642,0.338,0.725,0.864,0.197,1.353c-1.534,1.417-3.165,2.717-4.907,3.876c-0.428,0.285-0.844,0.363-1.18-0.082
			c-0.355-0.471-0.224-0.923,0.227-1.263c0.684-0.516,1.348-1.073,2.088-1.495c1.12-0.64,1.39-1.541,1.081-2.717
			C71.718,76.073,71.695,75.776,71.651,75.5z"/>
		<path class="st2" d="M12.485,79.771c0.003-3.496,2.814-6.256,6.361-6.246c3.535,0.01,6.329,2.863,6.313,6.446
			c-0.015,3.479-2.849,6.338-6.313,6.371C15.379,86.374,12.481,83.381,12.485,79.771z M23.532,79.922
			c0.006-2.555-2.132-4.73-4.668-4.75c-2.586-0.02-4.821,2.178-4.816,4.738c0.005,2.529,2.164,4.721,4.688,4.76
			C21.305,84.71,23.526,82.511,23.532,79.922z"/>
		<path class="st2" d="M61.447,77.514c-0.407,1.309,0.785,2.015,1.513,2.964c0.448,0.584,1.582,1.173,0.587,2.002
			c-0.921,0.768-1.315-0.42-1.801-0.907c-0.868-0.87-1.645-1.831-2.462-2.752c-0.514-0.578-0.562-1.076,0.136-1.585
			c0.554-0.404,0.582-2.203,0.027-2.568c-1.767-1.161-2.632-2.906-3.213-4.83c-0.183-0.607-0.425-0.877-1.112-0.956
			c-2.169-0.251-3.905-1.971-4.227-4.037c-0.295-1.896,0.9-3.39,2.577-3.231c0.425,0.04,0.792,0.196,1.118,0.463
			c0.324,0.265,0.462,0.61,0.285,0.993c-0.198,0.429-0.568,0.542-1.03,0.442c-1.09-0.234-1.538,0.25-1.242,1.336
			c0.225,0.826,0.688,1.509,1.434,1.924c0.58,0.322,1.206,0.988,1.741-0.2c0.279-0.62,1.138-0.442,1.366,0.243
			c0.211,0.634,0.339,1.297,0.481,1.953c0.718,3.309,2.783,5.141,6.1,5.678c0.601,0.097,1.677-0.119,1.499,1.005
			c-0.18,1.133-1.123,0.647-1.817,0.597c-0.111-0.008-0.22-0.039-0.329-0.063C61.447,75.622,61.447,75.622,61.447,77.514z"/>
		<path class="st2" d="M69.692,51.88c0.941,0.782,1.891,1.132,3.03,0.947c2.339-0.379,3.053,0.178,3.261,2.54
			c0.108,1.223,0.279,2.442,0.231,3.677c-0.022,0.582-0.145,1.089-0.825,1.088c-0.68-0.001-0.794-0.502-0.815-1.09
			c-0.041-1.152-0.152-2.302-0.211-3.453c-0.044-0.869-0.35-1.271-1.33-1.112c-1.714,0.278-3.259-0.243-4.542-1.393
			c-0.532-0.477-1.009-0.594-1.703-0.454c-2.457,0.496-4.882,0.302-7.257-0.518c-0.601-0.208-1.193-0.448-0.957-1.226
			c0.232-0.764,0.836-0.563,1.388-0.382c3.746,1.231,7.333,0.88,10.752-1.094c0.396-0.229,0.781-0.466,1.231-0.133
			c0.274,0.202,0.307,0.493,0.28,0.801c-0.033,0.388-0.323,0.571-0.615,0.737C71.002,51.163,70.388,51.495,69.692,51.88z"/>
		<path class="st2" d="M91.781,90.359c0.535-1.508,1.086-2.89,1.799-4.202c0.286-0.527,0.624-1.03,1.293-0.682
			c0.668,0.346,0.47,0.906,0.184,1.444c-0.806,1.518-1.488,3.091-1.887,4.766c-0.193,0.809-0.685,1.073-1.471,0.961
			c0.101,0.797,0.323,1.461,0.635,2.1c0.936,1.916,1.779,2.411,3.763,1.741c1.169-0.394,2.344-0.326,3.503-0.544
			c1.024-0.193,2.057-0.35,3.073-0.58c0.581-0.131,1.09-0.126,1.279,0.508c0.22,0.739-0.311,0.994-0.91,1.113
			c-1.022,0.204-2.042,0.494-3.074,0.557c-1.603,0.098-3.131,0.639-4.732,0.692c-0.265,0.009-0.371,0.2-0.518,0.368
			c-0.37,0.424-0.76,0.324-1.192,0.059c-2.244-1.379-3.975-5.146-3.553-7.77C90.161,89.715,90.723,89.526,91.781,90.359z"/>
		<path class="st2" d="M106.012,87.608c1.067,0.03,1.887,0.002,2.62,0.442c0.746,0.448,1.168,1.055,0.935,1.944
			c-0.146,0.555-0.55,0.898-1.145,0.884c-0.614-0.014-0.843-0.4-0.773-0.978c0.092-0.76-0.5-0.645-0.881-0.614
			c-1.446,0.118-2.889,0.278-4.327,0.466c-0.853,0.112-1.134-0.337-1.231-1.063c-0.085-0.638,0.242-0.942,0.803-1.149
			c1.506-0.555,2.933-1.28,4.299-2.123c0.316-0.195,0.645-0.386,0.914-0.637c0.343-0.32,0.819-0.673,0.521-1.217
			c-0.267-0.488-0.694-0.195-1.078-0.062c-0.452,0.156-0.808-0.039-1.024-0.446c-0.248-0.468,0.033-0.786,0.377-1.04
			c0.733-0.541,1.53-0.592,2.308-0.139c0.843,0.491,1.259,1.254,1.145,2.245c-0.096,0.826-0.56,1.462-1.199,1.947
			C107.627,86.56,106.93,86.988,106.012,87.608z"/>
		<path class="st2" d="M19.889,70.22c-2.762,0-5.523,0-8.285,0c-0.261,0-0.523,0.006-0.783-0.013
			c-0.539-0.039-0.809-0.332-0.783-0.879c0.025-0.51,0.324-0.724,0.805-0.727c0.821-0.005,1.642-0.006,2.463-0.006
			c5.075,0,10.151,0.002,15.226-0.003c0.587-0.001,1.229-0.007,1.249,0.758c0.021,0.818-0.63,0.89-1.271,0.871
			c-0.224-0.007-0.448-0.001-0.672-0.001C25.188,70.22,22.538,70.22,19.889,70.22z"/>
		<path class="st2" d="M40.142,103.009c0.415-5.397,1.899-10.467,4.582-15.177c0.3-0.527,0.692-0.839,1.265-0.543
			c0.614,0.317,0.493,0.837,0.202,1.343c-2.574,4.468-3.981,9.293-4.397,14.418c-0.052,0.644-0.235,1.118-0.988,1.039
			C40.148,104.018,40.11,103.522,40.142,103.009z"/>
		<path class="st2" d="M87.704,2.298c0,1.33,0.003,0.574-0.002,3.033c-0.001,0.555,0.075,1.221-0.73,1.26
			c-0.847,0.041-0.896-0.604-0.896-1.237c0.001-4.917,0.001-0.999-0.001-3.659c0-0.321,0.049-0.651,0.811-0.655
			c0.761-0.004,0.824,0.315,0.821,0.643C87.699,3.012,87.704,0.969,87.704,2.298z"/>
		<path class="st2" d="M87.433,95.04c0.704,0.073,0.825,0.563,0.889,1.177c0.292,2.796,1.914,4.741,4.313,5.361
			c0.666,0.172,1.053,0.089,1.294-0.565c0.102-0.277,0.273-0.528,0.398-0.798c0.229-0.493,0.625-0.659,1.098-0.454
			c0.547,0.237,0.629,0.696,0.37,1.208c-0.553,1.095-1.118,2.184-1.676,3.277c-0.199,0.39-0.455,0.708-0.949,0.594
			c-0.522-0.121-0.774-0.5-0.639-1c0.173-0.645-0.256-0.617-0.649-0.739c-3.05-0.948-5.258-3.958-5.219-7.048
			C86.67,95.496,86.784,95.099,87.433,95.04z"/>
		<path class="st2" d="M100.642,79.655c-0.114,1.485-0.443,2.849-1.041,4.145c-0.214,0.464-0.558,0.732-1.067,0.523
			c-0.545-0.224-0.681-0.681-0.427-1.194c0.485-0.982,0.736-2.021,0.846-3.1c0.03-0.289,0.123-0.635-0.218-0.794
			c-0.328-0.153-0.561,0.105-0.765,0.316c-1.175,1.215-1.793,2.716-2.189,4.325c-0.135,0.548-0.194,1.224-0.979,1.054
			c-0.837-0.181-0.778-0.839-0.615-1.516c0.47-1.953,1.311-3.715,2.689-5.187c0.703-0.751,1.565-1.17,2.608-0.752
			C100.493,77.882,100.525,78.826,100.642,79.655z"/>
		<path class="st2" d="M79.802,56.102c-0.059,0.595-0.138,1.448-0.228,2.299c-0.054,0.514-0.196,1.013-0.841,0.956
			c-0.65-0.057-0.871-0.528-0.78-1.125c0.341-2.244,0.193-4.45-0.413-6.637c-0.391-1.412-0.983-2.729-1.728-3.982
			c-0.303-0.508-0.6-1.042,0.06-1.452c0.719-0.446,1.087,0.108,1.407,0.639C78.952,49.58,79.725,52.612,79.802,56.102z"/>
		<path class="st2" d="M55.049,58.84c-0.093-2.248,0.416-4.441,1.276-6.564c0.209-0.515,0.419-1.156,1.17-0.837
			c0.734,0.311,0.596,0.911,0.344,1.512c-1.306,3.121-1.51,6.326-0.717,9.608c0.129,0.533,0.32,1.18-0.441,1.4
			c-0.792,0.229-1.001-0.336-1.167-0.975C55.164,61.641,55.014,60.283,55.049,58.84z"/>
		<path class="st2" d="M79.128,79.182c3.641,0.776,6.683,2.506,8.996,5.439c0.347,0.44,0.365,0.917-0.06,1.301
			c-0.499,0.451-0.881,0.124-1.216-0.28c-2.072-2.495-4.697-4.088-7.86-4.792c-0.523-0.116-0.95-0.307-0.824-0.951
			C78.267,79.381,78.638,79.179,79.128,79.182z"/>
		<path class="st2" d="M9.407,99.05c0,1.263,0.001,2.527,0,3.79c-0.001,0.608-0.135,1.177-0.878,1.158
			c-0.658-0.017-0.836-0.558-0.839-1.113c-0.013-2.601-0.014-5.202,0.001-7.802c0.003-0.554,0.181-1.094,0.845-1.104
			c0.75-0.011,0.866,0.571,0.869,1.17C9.411,96.449,9.407,97.749,9.407,99.05z"/>
		<path class="st2" d="M66.34,71.765c-1.681-0.069-3.123-0.734-4.211-2.105c-0.327-0.411-0.519-0.863-0.016-1.272
			c0.472-0.384,0.883-0.189,1.278,0.192c2.123,2.042,3.798,2.077,5.87,0.108c0.442-0.42,0.886-0.595,1.368-0.164
			c0.493,0.442,0.199,0.871-0.131,1.264C69.427,71.063,68.037,71.676,66.34,71.765z"/>
		<path class="st2" d="M48.105,86.995c-0.438-0.044-0.73-0.247-0.834-0.654c-0.137-0.538,0.195-0.829,0.606-1.067
			c1.74-1.008,3.479-2.016,5.22-3.023c0.515-0.298,1.028-0.603,1.553-0.883c0.422-0.225,0.823-0.144,1.07,0.265
			c0.266,0.442,0.196,0.881-0.272,1.156c-2.312,1.357-4.632,2.701-6.951,4.045C48.37,86.908,48.223,86.947,48.105,86.995z"/>
		<path class="st2" d="M105.339,83.328c-0.002,0.591-0.255,0.849-0.626,0.987c-1.387,0.516-2.778,1.02-4.17,1.522
			c-0.435,0.157-0.849,0.097-1.025-0.367c-0.19-0.503-0.076-0.977,0.486-1.187c1.421-0.531,2.844-1.061,4.281-1.545
			C104.903,82.53,105.276,82.831,105.339,83.328z"/>
		<path class="st2" d="M72.794,58.494c-0.018,0.394-0.176,0.625-0.437,0.807c-0.336,0.233-0.651,0.161-0.908-0.094
			c-0.892-0.887-1.888-1.085-3.051-0.579c-0.437,0.191-0.797-0.016-1.009-0.438c-0.196-0.391-0.09-0.71,0.248-0.977
			c1.194-0.944,4.196-0.447,4.969,0.834C72.699,58.202,72.748,58.384,72.794,58.494z"/>
		<path class="st2" d="M64.67,57.875c-0.16,0.646-0.534,0.989-1.142,0.737c-1.177-0.488-2.162-0.266-3.048,0.611
			c-0.315,0.311-0.682,0.289-0.996-0.002c-0.332-0.308-0.421-0.668-0.172-1.099c0.777-1.345,3.864-1.895,5.032-0.888
			C64.554,57.416,64.656,57.636,64.67,57.875z"/>
		<path class="st2" d="M102.398,94.857c-0.633,0-1.266-0.005-1.899,0.002c-0.566,0.006-0.975-0.235-0.993-0.816
			c-0.019-0.603,0.388-0.82,0.963-0.81c1.266,0.022,2.533,0.02,3.799,0.031c0.557,0.005,0.986,0.251,0.991,0.83
			c0.006,0.666-0.47,0.849-1.074,0.826c-0.595-0.023-1.191-0.005-1.787-0.005C102.398,94.895,102.398,94.876,102.398,94.857z"/>
		<path class="st2" d="M102.72,92.453c-0.642,0.061-1.271,0.028-1.357-0.769c-0.086-0.801,0.6-0.802,1.142-0.886
			c0.915-0.141,1.832-0.268,2.748-0.4c0.594-0.085,1.053,0.112,1.178,0.728c0.132,0.653-0.327,0.809-0.858,0.884
			C104.62,92.145,103.671,92.304,102.72,92.453z"/>
		<path class="st2" d="M66.159,66.36c-0.506-0.06-0.988-0.128-1.364-0.477c-0.415-0.385-0.459-0.861-0.181-1.315
			c0.254-0.413,0.666-0.434,1.079-0.207c0.227,0.124,0.424,0.287,0.715,0.131c0.598-0.321,1.068-0.075,1.24,0.496
			c0.201,0.67-0.291,1.015-0.856,1.223C66.583,66.287,66.358,66.315,66.159,66.36z"/>
		<path class="st2" d="M61.535,60.848c0.02-0.698-0.076-1.428,0.791-1.435c0.919-0.007,0.846,0.775,0.882,1.396
			c0.037,0.629-0.029,1.311-0.826,1.331C61.436,62.164,61.585,61.358,61.535,60.848z"/>
		<path class="st2" d="M70.408,60.799c-0.003,0.633,0.07,1.395-0.856,1.341c-0.897-0.052-0.752-0.833-0.769-1.445
			c-0.016-0.617,0.01-1.288,0.827-1.286C70.557,59.409,70.382,60.192,70.408,60.799z"/>
		<path class="st2" d="M35.314,10.753c4.274-0.004,7.754,3.484,7.741,7.759c-0.012,4.179-3.496,7.689-7.693,7.751
			c-4.298,0.063-7.834-3.469-7.819-7.812C27.558,14.127,30.959,10.758,35.314,10.753z M35.263,24.553
			c3.293,0.016,6.087-2.708,6.159-6.006c0.071-3.252-2.816-6.155-6.128-6.16c-3.307-0.006-6.084,2.724-6.121,6.017
			C29.135,21.753,31.892,24.537,35.263,24.553z"/>
	</g>
</g>
</svg>
