<?xml version="1.0" encoding="utf-8"?>
<!-- Generator: Adobe Illustrator 26.0.3, SVG Export Plug-In . SVG Version: 6.00 Build 0)  -->
<svg version="1.1" id="レイヤー_1" xmlns="http://www.w3.org/2000/svg" xmlns:xlink="http://www.w3.org/1999/xlink" x="0px"
	 y="0px" width="141.03px" height="120.908px" viewBox="0 0 141.03 120.908" style="enable-background:new 0 0 141.03 120.908;"
	 xml:space="preserve">
<style type="text/css">
	.st0{fill:#AB8976;}
	.st1{fill:#8D968E;}
	.st2{fill:#3891A3;}
	.st3{fill:#DB6A77;}
	.st4{fill:#1E396A;}
</style>
<path class="st0" d="M117.305,57.423c0.316,1.013,0.717,2.023,1.401,2.834c0.903,1.07,2.243,1.709,3.62,1.965
	c1.377,0.255,2.797,0.155,4.181-0.059c0.681-0.105,1.369-0.237,2.053-0.159s1.381,0.406,1.712,1.009
	c0.135-3.556-0.915-7.28-3.444-9.783c-1.939-1.919-4.865-2.991-7.583-2.53C115.788,51.285,116.461,54.721,117.305,57.423z"/>
<path class="st0" d="M12.11,54.549c0.835-2.004,2.315-3.839,4.345-4.608c1.278-0.484,2.855-0.625,3.602-1.77
	c0.31-0.474,0.419-1.057,0.727-1.533c0.756-1.171,2.746-1.206,3.544-0.064c0.323,0.462,0.449,1.029,0.568,1.58
	c0.341,1.573,0.685,3.169,0.598,4.776c-0.086,1.607-0.656,3.255-1.871,4.311c-1.45,1.26-3.5,1.464-5.369,1.906
	c-1.879,0.445-3.666,1.368-4.391,3.242c-1.516-0.572-2.776-0.771-2.963-2.527C10.726,58.234,11.495,56.023,12.11,54.549z"/>
<path class="st0" d="M67.033,5.758c1.408-1.347,3.255-2.166,5.15-2.619c1.711-0.409,3.536-0.533,5.214-0.003
	c1.467,0.464,2.771,1.429,3.643,2.697c0.495,0.719,0.849,1.524,1.201,2.323c0.398,0.904,0.805,1.873,0.646,2.848
	c-0.15,0.92-0.778,1.679-1.382,2.389c-0.16,0.188-0.334,0.385-0.57,0.456c-0.595,0.178-1.062-0.495-1.596-0.812
	c-1.195-0.71-2.594,0.419-3.923,0.829c-1.152,0.356-2.471,0.121-3.429-0.611c-0.836-0.638-1.606-1.69-2.642-1.511
	c-0.302,0.052-0.574,0.211-0.857,0.328C63.331,14.216,64.95,7.75,67.033,5.758z"/>
<path class="st1" d="M67.252,62.312c0.829,1.151,1.724,2.354,3.03,2.905c1.848,0.778,4.049-0.004,5.529-1.357
	c1.48-1.353,2.41-3.186,3.388-4.936c2.29-4.097,5.008-7.955,8.095-11.49c2.737,0.906,3.966,4.01,4.852,6.754
	c1.185,3.668,2.369,7.336,3.554,11.004c0.158,0.49,0.313,1.04,0.086,1.502c-0.326,0.663-1.214,0.759-1.953,0.769
	c-10.449,0.137-20.892,0.745-31.286,1.821c-2.63,0.272-5.909,0.252-7.147-2.084c-1.45-2.738,1.313-5.865,1.35-8.963
	c0.028-2.33-2.672-8.566,2.131-6.233C62.497,53.757,64.996,59.181,67.252,62.312z"/>
<path class="st2" d="M18.962,81.616c0.694-0.223,1.423-0.397,2.147-0.309c0.708,0.086,1.364,0.418,1.96,0.809
	c3.664,2.406,5.268,6.856,7.233,10.775c1.965,3.919,5.203,7.956,9.587,7.985c-0.31,1.63-0.62,3.259-0.929,4.889
	c-0.077,0.405-0.176,0.847-0.503,1.097c-0.309,0.236-0.734,0.232-1.123,0.212c-2.749-0.146-5.481-0.591-8.135-1.324
	c-0.499-0.138-1.007-0.292-1.422-0.602c-0.654-0.488-0.982-1.285-1.301-2.036c-1.499-3.538-3.407-6.903-5.674-10.006
	c-0.315-0.431-0.652-0.87-1.121-1.124c-0.533-0.288-1.166-0.299-1.772-0.305c-2.079,0-4.478,0.29-6.524-0.054
	c-2.3-0.387-2.169-0.556-1.069-2.701C12.062,85.515,15.334,82.785,18.962,81.616z"/>
<path class="st3" d="M120.4,93.475c3.231-0.852,6.624-1.084,9.941-0.683c0.254,0.031,0.556,0.048,0.72-0.15
	c0.1-0.12,0.115-0.287,0.126-0.443c0.132-1.845,0.26-3.709-0.034-5.535c-0.293-1.826-1.05-3.636-2.432-4.865
	c-1.743-1.55-4.299-1.974-6.576-1.473c-2.275,0.5-6.284,2.181-5.921,5.001C116.575,88.064,119.672,90.603,120.4,93.475z"/>
<g>
	<g>
		<path class="st4" d="M116.707,79.493c-0.461,0-0.72-0.03-0.97,0.006c-0.587,0.083-1.114,0.02-1.19-0.682
			c-0.076-0.702,0.379-0.99,1.025-1.091c1.266-0.199,2.529-0.426,3.791-0.647c0.446-0.078,0.896-0.146,1.331-0.266
			c2.194-0.608,4.399-0.269,6.525,0.184c3.546,0.755,5.69,3.487,6.096,7.144c0.232,2.087,0.124,4.142-0.218,6.193
			c-0.149,0.895,0.017,1.291,1.049,1.254c1.849-0.066,3.686,0.209,5.522,0.422c1.376,0.16,1.64,0.582,1.102,1.871
			c-2.967,7.107-5.722,14.296-8.284,21.559c-0.515,1.459-1.013,2.924-1.518,4.387c-0.221,0.639-0.5,1.294-1.336,1.018
			c-0.881-0.291-0.599-0.995-0.393-1.612c2.726-8.166,5.769-16.213,9.055-24.169c0.509-1.232,0.527-1.298-0.766-1.413
			c-5.042-0.448-10.092-0.57-15.146-0.174c-0.371,0.029-0.807-0.003-0.745,0.588c0.183,1.765-0.521,3.328-1.123,4.913
			c-0.442,1.165-0.412,1.237,0.812,1.202c3.958-0.111,7.916-0.245,11.874-0.369c0.686-0.022,1.372,0.054,1.408,0.919
			c0.034,0.819-0.606,0.919-1.259,0.941c-4.222,0.139-8.444,0.324-12.667,0.402c-1.028,0.019-1.524,0.311-1.893,1.299
			c-1.806,4.844-3.698,9.657-5.561,14.48c-0.109,0.282-0.219,0.564-0.346,0.837c-0.261,0.562-0.71,0.801-1.294,0.585
			c-0.676-0.25-0.587-0.78-0.38-1.319c1.152-2.994,2.301-5.989,3.456-8.982c0.733-1.901,1.486-3.796,2.201-5.704
			c0.126-0.337,0.575-0.824,0.035-1.067c-0.567-0.255-1.072-0.01-1.333,0.658c-0.837,2.144-1.755,4.258-2.556,6.415
			c-0.84,2.264-1.58,4.564-2.363,6.849c-0.086,0.25-0.16,0.504-0.252,0.751c-0.211,0.569-0.584,0.902-1.216,0.687
			c-0.635-0.217-0.719-0.699-0.523-1.283c0.685-2.039,1.321-4.095,2.058-6.115c0.828-2.268,1.739-4.506,2.627-6.752
			c0.2-0.505,0.358-0.893-0.149-1.404c-0.629-0.635-0.316-1.46,0.589-1.546c0.789-0.074,1.099-0.499,1.386-1.108
			c1.045-2.221,2.194-4.389,3.414-6.519c0.386-0.674,0.848-1.032,1.681-1.096c3.312-0.253,6.626-0.431,9.947-0.361
			c0.691,0.015,0.988-0.127,1.068-0.891c0.229-2.178,0.542-4.344,0.124-6.532c-0.759-3.97-3.921-6.081-7.925-5.307
			c-2.346,0.453-4.399,1.553-6.384,2.815c-0.446,0.283-0.887,0.575-1.326,0.869c-0.543,0.364-1.119,0.635-1.559-0.077
			c-0.424-0.684,0.031-1.123,0.575-1.484C115.373,80.381,115.96,79.989,116.707,79.493z M119.812,94.972
			c-0.094-0.029-0.187-0.059-0.281-0.088c-0.779,1.499-1.565,2.994-2.331,4.499c-0.141,0.278-0.505,0.667-0.174,0.888
			c0.351,0.234,0.907,0.021,1.068-0.355C118.779,98.31,119.683,96.765,119.812,94.972z"/>
		<path class="st4" d="M8.157,58.469c-0.06,1.218,0.32,2.588,0.849,3.938c0.347,0.883,0.68,1.185,1.612,0.508
			c1.601-1.162,3.802-0.799,4.87,0.643c0.313,0.423,0.537,0.869,0.084,1.314c-0.459,0.451-0.974,0.417-1.389-0.055
			c-0.779-0.886-1.656-1.058-2.588-0.332c-0.741,0.578-1.048,1.36-0.681,2.31c0.414,1.07,1.471,1.741,2.596,1.591
			c0.8-0.107,1.514-0.436,2.168-0.915c0.408-0.299,0.853-0.326,1.232,0.06c0.331,0.337,0.454,0.842,0.08,1.11
			c-1.32,0.945-0.9,2.357-1.044,3.601c-0.099,0.857,0.025,1.738-0.032,2.603c-0.056,0.861,0.31,1.083,1.124,1.102
			c3.15,0.073,6.224,0.646,9.22,1.614c1.318,0.426,1.472,0.789,0.716,1.896c-0.309,0.452,0.01,0.532,0.224,0.679
			c1.508,1.035,2.495,2.51,3.403,4.041c2.254,3.799,4.483,7.614,6.718,11.424c0.153,0.26,0.299,0.527,0.414,0.804
			c0.168,0.407,0.024,0.749-0.316,0.991c-0.383,0.271-0.801,0.281-1.131-0.066c-0.256-0.269-0.455-0.6-0.643-0.925
			c-2.182-3.753-4.42-7.477-6.515-11.278c-1.744-3.163-4.244-4.743-7.91-4.58c-2.521,0.112-5.056-0.091-7.548,0.496
			c-1.904,0.449-3.655,1.198-5.159,2.468c-0.538,0.455-1.127,0.782-1.671,0.124c-0.531-0.641-0.007-1.111,0.457-1.521
			c0.711-0.628,1.497-1.157,2.349-1.568c0.571-0.275,0.803-0.644,0.612-1.262c-0.056-0.179-0.085-0.368-0.106-0.555
			c-0.217-1.884,0.132-2.342,2.004-2.641c2.025-0.324,2.025-0.324,2.025-2.35c0-0.264,0.002-0.529,0-0.793
			c-0.009-0.792,0.219-1.701-0.096-2.344c-0.327-0.67-1.354-0.278-2.052-0.494c-1.63-0.504-2.908-1.993-3.053-3.703
			c-0.036-0.425-0.128-0.775-0.4-1.135c-5.4-7.124-0.965-17.642,7.936-18.772c1.348-0.171,2.425-0.553,3.479-1.517
			c2.492-2.278,6.806-1.733,9.158,0.973c3.174,3.651,2.057,8.676-0.39,11.791c-0.31,0.394-0.742,0.565-1.198,0.263
			c-0.487-0.322-0.547-0.797-0.264-1.291c0.244-0.425,0.543-0.818,0.79-1.242c1.662-2.855,1.512-6.122-0.329-8.266
			c-2.483-2.892-7.033-2.052-8.041,1.185c-0.348,1.117-1.098,1.203-1.79,0.279c-0.27-0.36-0.501-0.469-0.929-0.418
			C11.882,48.857,8.129,53.078,8.157,58.469z M23.967,78.848c-3.834-1.102-7.51-1.126-11.202-0.979
			c-0.618,0.025-0.747,0.361-0.702,0.896c0.057,0.684,0.492,0.655,0.971,0.544C16.557,78.495,20.116,78.544,23.967,78.848z"/>
		<path class="st4" d="M13.262,93.282c-3.858-0.057-6.867,0.112-9.877,0.362c-1.052,0.088-1.035,0.47-0.699,1.283
			c3.243,7.849,6.247,15.79,8.962,23.837c0.23,0.683,0.927,1.628-0.2,2.038c-1.174,0.428-1.294-0.735-1.544-1.472
			c-2.906-8.542-6.112-16.969-9.575-25.3c-0.627-1.508-0.429-1.842,1.205-2.036c1.235-0.147,2.474-0.352,3.711-0.357
			c1.087-0.004,1.104-0.472,0.96-1.327C5.957,88.828,5.74,87.336,6,85.815c0.11-0.644,0.196-1.26,1.001-1.236
			c0.88,0.026,0.822,0.688,0.78,1.323c-0.103,1.551,0.03,3.087,0.288,4.62c0.114,0.676,0.373,0.924,1.105,0.896
			c3.887-0.147,7.767,0.003,11.644,0.331c0.789,0.067,1.227,0.408,1.595,1.041c1.217,2.089,2.348,4.222,3.384,6.405
			c0.312,0.657,0.581,1.226,1.504,1.284c0.829,0.052,1.15,0.933,0.544,1.483c-0.609,0.552-0.333,0.992-0.12,1.492
			c1.686,3.963,3.11,8.021,4.419,12.12c0.224,0.7,0.809,1.652-0.369,1.989c-1.049,0.3-1.162-0.717-1.379-1.408
			c-1.366-4.361-2.944-8.643-4.748-12.842c-0.089-0.208-0.188-0.412-0.274-0.621c-0.238-0.586-0.738-0.684-1.215-0.481
			c-0.54,0.229-0.137,0.669-0.023,0.969c1.815,4.76,3.651,9.512,5.482,14.266c0.081,0.211,0.172,0.42,0.243,0.635
			c0.155,0.473,0.149,0.94-0.365,1.164c-0.562,0.245-1.05,0.067-1.316-0.508c-0.237-0.513-0.436-1.044-0.639-1.572
			c-1.781-4.611-3.583-9.215-5.318-13.844c-0.348-0.929-0.839-1.226-1.821-1.246c-4.223-0.083-8.444-0.266-12.666-0.401
			c-0.709-0.023-1.362-0.149-1.293-1.025c0.063-0.797,0.74-0.861,1.369-0.842c3.958,0.12,7.915,0.258,11.873,0.374
			c1.277,0.038,1.28,0.009,0.856-1.14c-0.573-1.555-1.268-3.081-1.142-4.803c0.046-0.624-0.374-0.708-0.87-0.778
			C16.501,93.173,14.459,93.34,13.262,93.282z M21.283,94.855c0.118,1.832,0.913,3.44,1.656,5.055
			c0.2,0.435,0.725,0.441,1.328,0.409C23.384,98.36,22.446,96.555,21.283,94.855z"/>
		<path class="st4" d="M93.786,75.955c1.653,0,3.182-0.006,4.711,0.004c0.375,0.002,0.759,0.013,1.122,0.095
			c0.401,0.091,0.65,0.388,0.664,0.814c0.016,0.479-0.246,0.809-0.697,0.902c-0.402,0.083-0.824,0.083-1.238,0.083
			c-17.598,0.004-35.196,0.003-52.794,0.002c-0.302,0-0.605,0.003-0.906-0.017c-0.577-0.038-1.062-0.229-1.08-0.908
			c-0.017-0.677,0.442-0.91,1.028-0.954c0.376-0.028,0.755-0.022,1.132-0.022c7.062-0.001,14.124-0.001,21.186-0.001
			c0.401,0,0.803,0,1.204,0c-1.633-1.346-3.503-1.943-5.501-2.139c-1.866-0.183-3.692,0.063-5.449,0.744
			c-0.176,0.068-0.354,0.132-0.532,0.194c-0.602,0.211-1.068,0.006-1.3-0.556c-0.243-0.589,0.149-0.927,0.64-1.133
			c2.159-0.907,4.401-1.31,6.744-1.091c2.097,0.196,4.081,0.765,5.887,1.856c0.594,0.359,1.033,0.178,1.558-0.122
			c3.265-1.866,6.751-2.757,10.53-2.333c0.675,0.076,1.249,0.295,1.187,1.061c-0.068,0.853-0.741,0.76-1.377,0.716
			c-3.612-0.246-6.958,0.564-10.007,2.541c0.07,0.382,0.354,0.253,0.536,0.253c3.852,0.01,7.704-0.009,11.556,0.021
			c0.855,0.006,1.008-0.214,0.755-1.046c-0.471-1.549,0.148-3.018,1.526-3.93c1.45-0.959,3.105-1.108,4.777-1.128
			c0.542-0.007,0.97,0.272,0.996,0.871c0.028,0.657-0.399,0.943-1,0.987c-0.863,0.063-1.736-0.017-2.582,0.257
			c-0.666,0.216-1.258,0.523-1.649,1.122c-0.57,0.873-0.357,1.654,0.562,2.134c0.198,0.103,0.396,0.212,0.579,0.339
			c0.839,0.582,1.132,0.494,1.378-0.528c0.342-1.417,1.162-2.437,2.445-3.086c0.518-0.262,1.115-0.491,1.489,0.183
			c0.375,0.676,0.044,1.147-0.609,1.438c-0.423,0.189-0.789,0.471-1.045,0.846c-0.282,0.412-0.838,0.936-0.292,1.366
			c0.482,0.38,1.142,0.259,1.558-0.373c0.614-0.933,1.477-1.502,2.598-1.628c0.295-0.033,0.604-0.021,0.896,0.032
			c0.438,0.078,0.796,0.294,0.783,0.811c-0.014,0.526-0.329,0.813-0.82,0.943C94.594,75.668,94.181,75.464,93.786,75.955z"/>
		<path class="st4" d="M76.955,106.772c1.756,0,3.513,0,5.269,0c0.982,0,1.964,0,2.945,0.004c0.654,0.003,1.272,0.134,1.279,0.94
			c0.007,0.807-0.607,0.952-1.264,0.953c-2.983,0.004-5.966,0.007-8.95,0.002c-0.648-0.001-1.316-0.13-1.176,0.933
			c0.107,0.817-0.258,1.715,1.212,1.705c8.383-0.056,16.766-0.033,25.149-0.016c0.732,0.001,1.85-0.311,1.846,0.878
			c-0.004,1.198-1.14,0.987-1.924,0.989c-7.024,0.019-14.047,0.01-21.071,0.012c-1.563,0-1.562,0.005-1.568,1.559
			c-0.002,0.642,0.005,1.284-0.023,1.925c-0.024,0.534-0.335,0.849-0.869,0.842c-0.54-0.007-0.823-0.343-0.835-0.875
			c-0.018-0.83-0.038-1.662-0.012-2.492c0.021-0.67-0.25-0.924-0.924-0.969c-2.719-0.18-2.78-0.2-2.685-2.903
			c0.062-1.748,0.318-3.363,1.823-4.737c2.644-2.415,5.068-5.073,7.834-7.367c0.203-0.168,0.399-0.353,0.622-0.488
			c0.507-0.308,1.028-0.338,1.417,0.167c0.398,0.517,0.061,0.922-0.321,1.267c-1.485,1.341-2.993,2.656-4.459,4.016
			c-1.179,1.093-2.311,2.238-3.464,3.36C76.856,106.575,76.905,106.674,76.955,106.772z"/>
		<path class="st4" d="M110.929,55.546c0.034-4.291,3.339-7.806,7.856-8.404c3.879-0.514,7.216,0.72,10.203,3.08
			c0.728,0.575,1.114,0.792,1.793-0.169c1.477-2.091,4.491-2.458,6.812-1.009c3.343,2.086,4.197,7.604,1.634,10.612
			c-0.77,0.904-1.743,1.436-2.955,1.436c-0.656,0-1.238-0.176-1.263-0.974c-0.024-0.78,0.541-0.863,1.153-0.914
			c1.346-0.112,2.041-0.699,2.41-1.989c0.477-1.67,0.291-3.298-0.417-4.856c-0.69-1.517-2.366-2.419-3.988-2.224
			c-2.168,0.26-2.958,1.909-1.83,3.724c1.925,3.095,2.541,6.346,1.006,9.801c-0.258,0.582-0.52,1.31-1.378,0.927
			c-0.801-0.358-0.586-1.003-0.308-1.639c0.981-2.241,0.863-4.474-0.087-6.696c-1.839-4.302-7.007-7.568-11.688-7.381
			c-3.681,0.147-6.448,2.493-7.103,5.98c-0.124,0.659,0.014,1.272,0.098,1.905c0.084,0.626-0.062,1.178-0.766,1.296
			c-0.758,0.127-0.966-0.466-1.071-1.041C110.953,56.531,110.963,56.035,110.929,55.546z"/>
		<path class="st4" d="M64.111,106.554c-0.471-0.501-0.915-0.997-1.383-1.468c-1.998-2.008-4.011-4-6.211-5.791
			c-0.479-0.39-1.06-0.81-0.517-1.477c0.52-0.639,1.143-0.379,1.695,0.064c2.745,2.205,5.182,4.737,7.657,7.228
			c0.319,0.321,0.64,0.642,0.949,0.974c0.62,0.665,1.204,1.177,1.163,2.365c-0.03,0.859,0.329,1.873,0.324,2.844
			c-0.008,1.525-0.318,1.826-1.871,1.877c-1.749,0.057-1.748,0.057-1.752,1.847c-0.001,0.491,0.008,0.983-0.023,1.472
			c-0.038,0.594-0.295,1.034-0.966,1.015c-0.611-0.018-0.848-0.448-0.882-0.985c-0.039-0.602-0.026-1.208-0.029-1.812
			c-0.009-1.524-0.007-1.532-1.496-1.533c-5.703-0.003-11.406,0.001-17.109-0.006c-0.488-0.001-0.982-0.027-1.463-0.105
			c-0.499-0.081-0.82-0.388-0.788-0.937c0.032-0.552,0.38-0.795,0.896-0.824c0.377-0.021,0.755-0.018,1.133-0.018
			c6.987-0.001,13.974,0,20.961-0.001c1.31,0,2.013-1.077,1.501-2.3c-0.203-0.485-0.649-0.297-0.99-0.299
			c-2.493-0.018-4.985-0.01-7.478-0.01c-0.34,0-0.681,0.019-1.019-0.004c-0.753-0.05-1.81,0.209-1.795-0.976
			c0.014-1.087,1.015-0.909,1.743-0.915c2.19-0.018,4.381,0,6.571-0.014C63.289,106.763,63.678,106.888,64.111,106.554z"/>
		<path class="st4" d="M63.766,19.379c-0.133,2.789-0.335,5.569,0.494,8.277c0.597,1.951,1.625,3.572,3.557,4.451
			c0.571,0.26,0.878,0.671,1.001,1.27c0.281,1.366,0.599,2.725,0.861,4.095c0.121,0.634,0.227,1.382-0.632,1.576
			c-0.901,0.203-1.01-0.57-1.181-1.184c-0.07-0.253-0.104-0.518-0.14-0.779c-0.262-1.894-0.811-3.453-2.652-4.618
			c-2.054-1.3-2.583-3.7-2.947-6.022c-0.3-1.913-0.206-3.838-0.232-5.761c-0.006-0.44,0.091-1.061-0.49-1.113
			c-0.589-0.053-0.582,0.616-0.67,1.017c-0.22,0.997,0.008,1.949,0.484,2.841c0.319,0.598,0.439,1.182-0.308,1.522
			c-0.677,0.308-1.071-0.134-1.333-0.686c-0.938-1.972-1.323-3.948,0.1-5.876c0.2-0.272,0.216-0.535,0.215-0.843
			c-0.003-0.658,0.372-1.02,1.004-0.91c0.885,0.154,0.813-0.373,0.782-0.932c-0.043-0.774-0.538-1.863,0.757-1.954
			c1.168-0.082,0.963,1.093,1.063,1.789c0.134,0.935,0.164,1.77,1.406,1.873c0.436,0.036,0.596,0.533,0.667,0.962
			c0.068,0.409,0.091,0.828,0.197,1.226c0.33,1.247,1.072,1.959,1.932,1.898c1.154-0.081,2.085-0.95,2.32-2.144
			c0.118-0.599-0.207-1.384,0.53-1.734c0.822-0.389,1.757-0.39,2.645-0.433c0.561-0.027,0.772,0.508,0.852,1.035
			c0.12,0.788,0.339,1.547,0.742,2.243c0.41,0.707,0.967,1.046,1.791,0.709c0.594-0.243,1.167-0.255,1.406,0.443
			c0.259,0.756-0.304,1.101-0.891,1.335c-1.207,0.482-2.761,0.001-3.656-1.101c-0.386-0.475-0.647-1.015-0.841-1.592
			c-0.092-0.274-0.091-0.681-0.465-0.691c-0.426-0.012-0.339,0.43-0.417,0.691c-0.439,1.456-1.391,2.38-2.835,2.828
			c-2.089,0.648-3.879-0.199-4.655-2.232C64.043,20.374,63.918,19.871,63.766,19.379z"/>
		<path class="st4" d="M51.374,92.103c1.997,0.562,2.506,1.266,2.613,3.088c0.075,1.28,0.45,2.52,0.813,3.748
			c0.952,3.214-0.275,5.135-3.583,5.377c-0.911,0.066-1.447,0.327-1.826,1.155c-0.3,0.655-0.866,1.139-1.523,1.473
			c-0.481,0.244-0.966,0.282-1.307-0.218c-0.341-0.501-0.126-0.898,0.289-1.278c2.165-1.979,1.675-4.812-1.082-5.908
			c-2.513-0.999-5.065-1.177-7.542,0.184c-0.892,0.49-1.761,1.022-2.635,1.543c-0.466,0.278-0.935,0.419-1.286-0.12
			c-0.304-0.467-0.251-0.992,0.2-1.321c1.935-1.413,3.97-2.75,6.443-2.766c1.344-0.009,1.9-0.412,2.041-1.691
			c0.083-0.754,0.471-1.432,0.95-2.03c0.923-1.152,2.297-1.646,3.631-1.128c0.81,0.314,1.226,0.08,1.706-0.529
			c0.84-1.067,1.76-2.071,2.64-3.106c0.392-0.461,0.822-0.876,1.428-0.391c0.624,0.499,0.41,1.058-0.021,1.578
			C52.701,90.511,52.078,91.257,51.374,92.103z M47.099,94.017c-1.463-0.068-2.009,0.471-2.433,2.069
			c-0.213,0.803-0.134,1.216,0.798,1.439c2.24,0.536,3.859,1.839,4.472,4.159c0.169,0.639,0.564,0.798,1.174,0.772
			c1.741-0.074,2.441-1.122,2.051-2.791c-0.393-1.685-1.321-3.233-1.201-5.063c0.037-0.573-0.601-0.714-1.133-0.536
			c-0.581,0.194-1.061,0.565-1.494,0.993c-0.456,0.45-0.907,0.906-1.368,1.351c-0.394,0.381-0.842,0.518-1.322,0.172
			c-0.484-0.349-0.475-0.838-0.257-1.318C46.568,94.865,46.821,94.497,47.099,94.017z"/>
		<path class="st4" d="M72.144,82.732c7.245,0,14.491,0,21.736,0c0.34,0,0.679,0.006,1.019,0.003c0.618-0.005,1.2,0.14,1.249,0.853
			c0.055,0.804-0.576,0.967-1.22,1.013c-0.376,0.027-0.754,0.019-1.131,0.019c-14.491,0.001-28.981,0.001-43.472-0.003
			c-0.489,0-0.985-0.003-1.464-0.087c-0.505-0.089-0.786-0.447-0.741-0.978c0.041-0.482,0.352-0.743,0.817-0.788
			c0.374-0.037,0.753-0.031,1.131-0.031C57.427,82.731,64.786,82.732,72.144,82.732z"/>
		<path class="st4" d="M125.084,64.072c-2.548-0.016-4.778-0.461-6.832-1.636c-3.18-1.819-4.949-5.368-4.328-8.755
			c0.068-0.369,0.162-0.742,0.311-1.084c0.219-0.504,0.63-0.782,1.185-0.613c0.575,0.175,0.664,0.613,0.556,1.177
			c-0.915,4.759,2.191,8.617,7.193,8.948c1.968,0.13,3.921,0.044,5.844-0.445c0.627-0.16,1.332-0.368,1.644,0.458
			c0.325,0.861-0.379,1.094-0.964,1.336c-0.083,0.197,0.027,0.315,0.146,0.4c2.34,1.674,1.956,6.04-1.803,7.078
			c-1.348,0.372-1.697,0.993-1.554,2.206c0.044,0.373,0.026,0.754,0.021,1.131c-0.008,0.569-0.294,0.957-0.86,1.012
			c-0.557,0.054-0.767-0.339-0.883-0.833c-0.21-0.896-0.263-1.802-0.09-2.696c0.112-0.579,0.013-0.93-0.563-1.153
			c-0.568-0.22-1.031-0.575-0.697-1.286c0.312-0.665,0.852-0.64,1.439-0.392c1.009,0.426,2.03,0.559,3.077,0.125
			c1.367-0.566,1.903-2.256,1.07-3.388c-0.603-0.82-1.62-0.983-2.363-0.334c-0.489,0.427-0.921,1.004-1.64,0.471
			C124.33,65.311,124.741,64.731,125.084,64.072z"/>
		<path class="st4" d="M71.368,1.896c-2.677,0.01-5.173,0.628-7.316,2.293c-1.673,1.3-2.691,2.935-2.31,5.177
			c0.109,0.644-0.101,1.159-0.798,1.265c-0.771,0.117-0.967-0.476-1.041-1.057c-0.281-2.188,0.356-4.105,1.81-5.75
			c4.362-4.937,15.886-5.842,20.46,1.803c1.651,2.76,2.044,5.721,0.924,8.806c-0.064,0.177-0.133,0.354-0.216,0.523
			c-0.288,0.581-0.57,1.29-1.4,0.92c-0.794-0.355-0.58-1.036-0.3-1.654c1.077-2.37,0.961-4.727-0.275-6.967
			C78.848,3.526,75.562,1.875,71.368,1.896z"/>
		<path class="st4" d="M59.345,41.835c0.948,0.161,1.85-0.44,2.287,0.506c0.407,0.881-0.477,1.335-0.806,1.969
			c-0.138,0.266-0.347,0.493-0.518,0.742c-1.624,2.37-1.734,4.737-0.084,7.167c2.251,3.316,4.605,6.548,7.33,9.496
			c0.308,0.333,0.624,0.658,0.918,1.002c0.433,0.507,0.886,1.074,0.18,1.65c-0.615,0.502-1.113,0.094-1.543-0.401
			c-1.287-1.482-2.629-2.919-3.861-4.446c-1.778-2.205-3.441-4.497-4.917-6.921c-1.537-2.525-1.574-5.051-0.118-7.616
			c0.16-0.281,0.517-0.572,0.329-0.907c-0.195-0.349-0.623-0.187-0.937-0.139c-0.581,0.09-1.161,0.209-1.475-0.454
			c-0.3-0.635,0.115-1.075,0.508-1.495c1.573-1.682,3.146-3.365,4.728-5.039c0.42-0.444,0.895-0.969,1.53-0.395
			c0.644,0.582,0.283,1.157-0.188,1.665C61.636,39.375,60.561,40.528,59.345,41.835z"/>
		<path class="st4" d="M83.906,41.757c-1.097-1.192-2.186-2.376-3.277-3.558c-0.34-0.368-0.712-0.753-0.44-1.291
			c0.349-0.69,0.935-0.829,1.467-0.272c1.825,1.909,3.608,3.858,5.393,5.805c0.262,0.286,0.389,0.646,0.189,1.045
			c-0.217,0.434-0.591,0.556-1.036,0.529c-0.187-0.012-0.371-0.073-0.559-0.085c-0.296-0.019-0.68-0.177-0.867,0.061
			c-0.266,0.339,0.136,0.612,0.292,0.882c1.492,2.585,1.522,5.144-0.061,7.706c-2.529,4.093-5.475,7.863-8.763,11.369
			c-0.386,0.411-0.825,0.947-1.437,0.5c-0.829-0.606-0.404-1.237,0.129-1.806c2.739-2.927,5.235-6.048,7.453-9.389
			c0.146-0.22,0.295-0.438,0.441-0.658c2.034-3.061,2.038-4.751,0.011-7.787c-0.272-0.408-0.56-0.806-0.852-1.2
			c-0.309-0.417-0.532-0.86-0.224-1.352c0.307-0.49,0.795-0.501,1.31-0.393C83.323,41.914,83.587,42.006,83.906,41.757z"/>
		<path class="st4" d="M111.062,83.902c0.682,0.393,0.956-0.154,1.272-0.64c0.336-0.518,0.809-0.716,1.352-0.373
			c0.514,0.325,0.531,0.887,0.194,1.29c-0.837,1.003-0.352,1.692,0.329,2.516c1.687,2.039,2.503,4.453,2.736,7.071
			c0.03,0.335,0.024,0.685-0.039,1.014c-0.095,0.489-0.39,0.823-0.934,0.81c-0.551-0.013-0.832-0.366-0.869-0.865
			c-0.067-0.902-0.077-1.806-0.305-2.693c-0.39-1.518-1.02-2.911-1.973-4.165c-0.422-0.555-0.704-0.71-1.134,0
			c-2.232,3.682-4.617,7.265-7.083,10.793c-0.353,0.505-0.23,0.791,0.224,1.107c0.495,0.344,0.962,0.731,1.424,1.119
			c0.421,0.353,0.612,0.789,0.248,1.287c-0.35,0.477-0.896,0.561-1.301,0.22c-1.217-1.024-2.56-1.862-3.848-2.781
			c-0.341-0.243-0.42-0.624-0.253-1.017c0.162-0.381,0.485-0.678,0.879-0.561c0.758,0.224,1.006-0.294,1.33-0.753
			c2.421-3.423,4.681-6.952,6.901-10.507c0.323-0.517,0.554-0.955-0.043-1.468c-0.304-0.262-0.272-0.693-0.042-1.046
			C110.333,83.946,110.64,83.834,111.062,83.902z"/>
		<path class="st4" d="M68.634,41.413c0.822,0.189,0.955,0.684,1.081,1.222c0.287,1.228,0.961,1.801,2.093,1.84
			c1.135,0.039,1.872-0.453,2.152-1.583c0.168-0.677,0.5-1.301,1.308-1.044c0.855,0.273,0.606,1.009,0.412,1.626
			c-0.553,1.757-1.745,2.846-3.582,2.995c-0.855,0.069-1.063,0.387-1.103,1.145c-0.086,1.618-0.238,3.233-0.369,4.849
			c-0.033,0.413-0.056,0.831-0.146,1.233c-0.122,0.544-0.48,0.868-1.064,0.782c-0.553-0.082-0.732-0.506-0.703-1.001
			c0.087-1.506,0.157-3.015,0.311-4.514c0.174-1.69,0.477-3.362-0.773-4.838c-0.331-0.39-0.496-0.986-0.42-1.502
			c0.168-1.14-0.389-1.023-1.177-0.856c-1.35,0.287-1.68,0.051-1.87-1.334c-0.231-1.68-0.391-3.37-0.567-5.057
			c-0.063-0.605,0.018-1.209,0.77-1.273c0.772-0.066,1.029,0.492,1.102,1.157c0.139,1.274,0.286,2.547,0.405,3.823
			c0.06,0.644,0.328,0.836,0.972,0.664c0.763-0.204,1.55-0.322,2.331-0.457c0.594-0.102,1.076,0.088,1.232,0.707
			c0.17,0.676-0.285,0.961-0.846,1.103C69.744,41.212,69.296,41.281,68.634,41.413z"/>
		<path class="st4" d="M93.854,99.409c-1.994-0.512-3.517-0.044-4.86,1.075c-0.517,0.431-0.96,0.79-1.706,0.543
			c-0.502-0.166-1.022,0.048-1.213,0.577c-0.204,0.565,0.318,0.68,0.693,0.827c0.507,0.199,0.708,0.572,0.582,1.074
			c-0.149,0.596-0.634,0.714-1.162,0.635c-0.932-0.14-1.59-0.659-1.945-1.536c-0.367-0.906-0.114-1.699,0.478-2.419
			c0.071-0.087,0.147-0.199,0.244-0.232c2.795-0.955,5.262-3.043,8.492-2.487c0.553,0.095,1.151,0.192,1.617,0.472
			c1.278,0.769,2.599,1.309,4.114,1.336c0.575,0.01,0.917,0.375,0.877,0.962c-0.043,0.631-0.506,0.782-1.051,0.761
			c-2.244-0.084-4.444,0.165-6.587,0.86c-0.686,0.223-1.376,0.461-1.911,0.954c-0.622,0.573-1.081,1.201-0.268,2.012
			c0.402,0.402,0.404,0.906-0.001,1.317c-0.434,0.44-0.905,0.273-1.319-0.065c-0.801-0.655-1.117-1.497-0.889-2.517
			c0.354-1.586,1.422-2.54,2.862-3.118C91.771,100.09,92.673,99.817,93.854,99.409z"/>
		<path class="st4" d="M100.44,67.083c0.041,0.47-0.104,0.772-0.436,0.937c-0.362,0.18-0.753,0.177-1.048-0.129
			c-0.176-0.182-0.302-0.43-0.399-0.669c-3.302-8.185-6.6-16.372-9.893-24.56c-0.239-0.594-0.452-1.201-0.649-1.81
			c-0.179-0.554-0.347-1.154,0.403-1.425c0.757-0.273,1.096,0.206,1.343,0.83c1.544,3.892,3.088,7.783,4.646,11.669
			c1.881,4.691,3.777,9.376,5.661,14.066C100.224,66.376,100.337,66.776,100.44,67.083z"/>
		<path class="st4" d="M68.153,13.503c0.358,0.169,0.637,0.272,0.887,0.425c0.482,0.295,0.848,0.688,0.605,1.3
			c-0.223,0.561-0.705,0.645-1.225,0.472c-0.317-0.105-0.578-0.113-0.829,0.132c-0.431,0.42-0.92,0.575-1.391,0.105
			c-0.467-0.467-0.249-0.966,0.047-1.44c0.074-0.118,0.124-0.25,0.247-0.502c-1.477,0.028-2.797-0.195-3.941-1.006
			c-0.56-0.397-1.23-0.83-0.674-1.627c0.512-0.734,1.111-0.351,1.653,0.063c0.908,0.694,1.949,0.74,3.021,0.586
			c0.569-0.082,0.826-0.33,0.449-0.914c-0.223-0.346-0.414-0.721-0.567-1.103c-0.207-0.516-0.108-0.987,0.422-1.25
			c0.555-0.276,0.942-0.01,1.199,0.488c0.489,0.949,1.083,1.806,1.956,2.452c2.439,1.807,5.037,1.663,7.292-0.435
			c0.391-0.364,0.788-0.452,1.213-0.139c0.545,0.402,0.461,0.917,0.127,1.396c-1.338,1.916-3.312,2.372-5.476,2.265
			c-1.333-0.066-2.592-0.466-3.723-1.209C69.089,13.327,68.726,13.128,68.153,13.503z"/>
		<path class="st4" d="M69.938,60.149c-0.011,0.519-0.197,0.826-0.608,0.952c-0.445,0.135-0.857,0.045-1.061-0.395
			c-0.221-0.476-0.376-0.984-0.532-1.487c-1.775-5.725-3.545-11.452-5.314-17.179c-0.089-0.288-0.187-0.576-0.24-0.872
			c-0.083-0.46,0.072-0.844,0.529-1.001c0.472-0.162,0.925-0.078,1.15,0.422c0.2,0.444,0.343,0.917,0.488,1.384
			c1.773,5.726,3.542,11.452,5.309,17.18C69.768,59.511,69.861,59.876,69.938,60.149z"/>
		<path class="st4" d="M81.162,41.141c-0.064,0.226-0.139,0.518-0.228,0.806c-1.847,5.976-3.696,11.951-5.544,17.926
			c-0.045,0.144-0.096,0.286-0.142,0.429c-0.201,0.618-0.577,1.006-1.263,0.784c-0.661-0.214-0.657-0.761-0.494-1.307
			c0.442-1.48,0.901-2.955,1.357-4.431c1.434-4.644,2.869-9.288,4.307-13.931c0.089-0.287,0.185-0.576,0.32-0.843
			c0.22-0.434,0.612-0.538,1.058-0.436C81.023,40.249,81.175,40.609,81.162,41.141z"/>
		<path class="st4" d="M26.499,74.762c-0.16-0.011-0.573-0.029-0.983-0.074c-0.482-0.053-0.767-0.333-0.748-0.823
			c0.018-0.466,0.29-0.777,0.758-0.851c0.295-0.046,0.6-0.03,0.901-0.033c3.75-0.031,6.253-3.514,5.01-7.032
			c-0.281-0.796-0.463-1.46,0.176-2.183c0.388-0.439,0.284-0.864-0.432-0.85c-0.587,0.012-1.084-0.13-1.143-0.806
			c-0.055-0.632,0.41-0.927,0.91-1.153c0.731-0.329,1.411-0.187,2.007,0.303c0.697,0.573,1.113,1.398,0.759,2.206
			c-0.52,1.186-0.303,2.284-0.167,3.481C34.041,71.295,31.132,74.574,26.499,74.762z"/>
		<path class="st4" d="M100.837,107.998c-2.523-0.098-5.035-0.294-7.506-0.863c-0.598-0.137-1.161-0.333-1.021-1.073
			c0.145-0.769,0.743-0.843,1.411-0.708c2.593,0.523,5.207,0.796,7.86,0.75c2.311-0.04,4.577-0.354,6.829-0.833
			c0.258-0.055,0.516-0.111,0.776-0.153c0.558-0.089,0.997,0.091,1.127,0.67c0.132,0.593-0.237,0.913-0.756,1.077
			c-1.48,0.467-3.013,0.713-4.546,0.858C103.626,107.854,102.241,108.092,100.837,107.998z"/>
		<path class="st4" d="M114.703,76.98c-4.582-0.056-7.747-4.814-6.143-9.2c0.245-0.67,0.374-1.263,0.1-1.948
			c-0.267-0.667-0.202-1.336,0.602-1.552c0.712-0.192,0.874,0.428,1.173,0.935c0.618,1.047,0.478,1.897-0.033,3.001
			c-1.481,3.197,0.694,6.536,4.398,6.997c0.64,0.08,1.655-0.304,1.595,0.853C116.339,77.144,115.379,76.95,114.703,76.98z"/>
		<path class="st4" d="M38.434,109.368c-2.255-0.066-4.676-0.369-7.031-1.112c-0.144-0.045-0.29-0.082-0.431-0.134
			c-0.591-0.22-1.02-0.575-0.777-1.27c0.23-0.657,0.794-0.624,1.327-0.474c2.073,0.582,4.158,1.039,6.329,1.083
			c2.315,0.047,4.593-0.158,6.828-0.757c0.699-0.188,1.342-0.23,1.522,0.617c0.167,0.789-0.47,0.999-1.085,1.165
			C42.994,109.059,40.835,109.347,38.434,109.368z"/>
		<path class="st4" d="M51.032,57.145c0.03-0.118,0.085-0.415,0.181-0.698c1.144-3.39,2.295-6.778,3.443-10.167
			c0.176-0.519,0.389-1.041,1.043-1.015c0.728,0.029,1.036,0.529,0.824,1.17c-1.232,3.718-2.504,7.422-3.771,11.129
			c-0.165,0.483-0.525,0.747-1.047,0.657C51.227,58.139,51.011,57.808,51.032,57.145z"/>
		<path class="st4" d="M42.924,55.672c-1.407-0.022-2.667-1.427-2.726-2.932c-0.059-1.516,1.197-2.936,2.726-3.096
			c1.003-0.105,1.854,0.219,2.586,0.885c0.937,0.851,1.601,1.894,2.074,3.059c0.224,0.552,0.372,1.143-0.365,1.419
			c-0.673,0.251-1.055-0.177-1.321-0.734c-0.178-0.373-0.317-0.769-0.529-1.122c-0.231-0.384-0.491-0.764-0.802-1.083
			c-0.521-0.533-1.181-0.654-1.874-0.395c-0.385,0.144-0.571,0.496-0.571,0.9c-0.001,0.749,0.444,1.164,1.118,1.375
			c0.488,0.153,0.808,0.428,0.689,0.986C43.804,55.52,43.379,55.698,42.924,55.672z"/>
		<path class="st4" d="M27.925,52.592c-0.032,2.814-1.183,5.093-3.356,6.853c-0.802,0.65-1.714,1.106-2.795,1.026
			c-0.553-0.041-0.936-0.331-0.959-0.915c-0.019-0.479,0.276-0.724,0.739-0.849c2.572-0.692,4.341-2.878,4.449-5.535
			c0.031-0.748-0.053-1.502-0.104-2.252c-0.039-0.56,0.137-0.981,0.717-1.105c0.607-0.131,0.916,0.236,1.052,0.765
			C27.839,51.236,27.962,51.903,27.925,52.592z"/>
		<path class="st4" d="M79.022,36.092c-0.141,1.382-0.308,3.03-0.476,4.678c-0.079,0.774-0.503,1.197-1.284,1.069
			c-1.448-0.236-2.89-0.515-4.327-0.814c-0.496-0.103-0.797-0.446-0.659-1c0.139-0.56,0.541-0.832,1.095-0.753
			c0.857,0.122,1.717,0.262,2.552,0.483c0.75,0.199,0.909-0.1,0.958-0.772c0.087-1.201,0.273-2.393,0.392-3.592
			c0.069-0.695,0.234-1.366,1.079-1.285c0.93,0.089,0.766,0.849,0.697,1.493C79.041,35.673,79.04,35.749,79.022,36.092z"/>
		<path class="st4" d="M51.944,63.681c-0.11,0.77-0.121,1.834-0.513,2.833c-0.216,0.55-0.555,0.931-1.193,0.755
			c-0.662-0.183-0.732-0.705-0.561-1.268c0.942-3.104,0.291-5.876-1.728-8.364c-0.406-0.501-0.556-1.03-0.022-1.498
			c0.576-0.504,1.049-0.147,1.444,0.319C51.07,58.462,51.919,60.788,51.944,63.681z"/>
		<path class="st4" d="M82.184,19.04c1.748,0.002,3.254,1.396,3.481,3.222c0.205,1.654-1.022,3.485-2.625,3.877
			c-0.567,0.139-1.179,0.183-1.435-0.503c-0.264-0.708,0.209-1.011,0.798-1.229c0.889-0.328,1.518-0.934,1.421-1.928
			c-0.102-1.048-0.881-1.535-1.851-1.676c-0.65-0.095-1.109-0.315-1-1.054C81.075,19.049,81.639,19.038,82.184,19.04z"/>
		<path class="st4" d="M101.292,73.538c0.025,0.474-0.175,0.771-0.585,0.887c-0.495,0.139-0.908-0.022-1.138-0.486
			c-0.319-0.644-0.66-1.264-1.203-1.754c-1.083-0.977-2.364-1.265-3.773-1.074c-0.621,0.084-1.194,0.029-1.31-0.695
			c-0.114-0.713,0.421-0.946,1.017-1.103c2.621-0.69,6.14,1.251,6.901,3.824C101.242,73.28,101.267,73.429,101.292,73.538z"/>
		<path class="st4" d="M72.643,29.803c-1.443-0.117-2.725-0.513-3.812-1.412c-0.432-0.358-0.789-0.786-0.333-1.346
			c0.405-0.499,0.931-0.473,1.413-0.116c1.731,1.281,3.478,1.284,5.259,0.121c0.429-0.28,0.871-0.353,1.198,0.113
			c0.352,0.501,0.286,1.008-0.201,1.405C75.127,29.416,73.885,29.694,72.643,29.803z"/>
		<path class="st4" d="M40.505,59.149c0.063-0.637,0.103-1.28,0.437-1.853c0.286-0.491,0.649-0.888,1.272-0.631
			c0.622,0.256,0.627,0.779,0.441,1.333c-0.167,0.498-0.416,0.984-0.267,1.532c0.235,0.864,0.738,1.478,1.649,1.677
			c0.683,0.149,1.152,0.515,0.955,1.254c-0.22,0.823-0.878,0.654-1.483,0.488C41.732,62.464,40.533,60.947,40.505,59.149z"/>
		<path class="st4" d="M114.192,65.805c0.232-0.763-0.289-1.017-0.592-1.37c-0.323-0.376-0.5-0.78-0.248-1.237
			c0.269-0.489,0.748-0.514,1.185-0.31c0.362,0.17,0.615,0.151,0.919-0.096c0.369-0.3,0.779-0.27,1.143,0.026
			c0.337,0.274,0.359,0.635,0.22,1.028c-0.266,0.746-0.51,1.5-0.79,2.241c-0.208,0.551-0.596,0.904-1.221,0.733
			C114.219,66.66,114.103,66.204,114.192,65.805z"/>
		<path class="st4" d="M74.507,24.277c-0.07,0.621-0.574,1.143-1.301,1.473c-0.857,0.389-1.619,0.169-2.288-0.438
			c-0.621-0.563-0.756-1.284-0.578-2.067c0.082-0.363,0.363-0.57,0.74-0.591c0.421-0.024,0.771,0.156,0.872,0.567
			c0.212,0.868,0.49,0.972,0.99,0.176c0.22-0.35,0.557-0.493,0.977-0.318C74.357,23.262,74.544,23.595,74.507,24.277z"/>
		<path class="st4" d="M25.453,70.128c-0.92-0.082-1.71-0.159-2.452-0.461c-0.531-0.216-0.746-0.651-0.597-1.192
			c0.162-0.588,0.598-0.73,1.156-0.541c0.95,0.322,1.917,0.37,2.902,0.189c0.627-0.115,1.063,0.156,1.16,0.773
			c0.093,0.591-0.312,0.899-0.843,1.014C26.302,70.014,25.814,70.071,25.453,70.128z"/>
		<path class="st4" d="M116.296,72.649c-0.901-0.03-1.569-0.148-2.189-0.442c-0.453-0.215-0.701-0.589-0.557-1.105
			c0.15-0.539,0.584-0.7,1.068-0.576c0.895,0.229,1.783,0.244,2.69,0.116c0.527-0.074,0.88,0.197,0.983,0.716
			c0.105,0.529-0.163,0.882-0.654,1.034C117.134,72.548,116.619,72.676,116.296,72.649z"/>
		<path class="st4" d="M82.171,16.599c0.444-0.006,1.088-0.003,1.146,0.833c0.055,0.796-0.508,1.002-1.165,1.05
			c-0.782,0.058-1.564,0.124-2.348,0.149c-0.528,0.017-1.002-0.165-1.068-0.763c-0.069-0.629,0.311-0.985,0.91-1.056
			C80.425,16.72,81.21,16.678,82.171,16.599z"/>
		<path class="st4" d="M27.663,62.321c0.059,0.73-0.129,1.075-0.592,1.203c-0.452,0.125-0.865-0.037-1.038-0.458
			c-0.354-0.865-0.669-1.749-0.929-2.646c-0.124-0.425,0.058-0.832,0.538-0.977c0.439-0.132,0.878-0.04,1.065,0.389
			C27.095,60.723,27.408,61.645,27.663,62.321z"/>
		<path class="st4" d="M76.741,18.832c-0.011,0.627-0.058,1.406-0.989,1.367c-0.818-0.035-0.911-0.761-0.907-1.436
			c0.005-0.715,0.093-1.475,1.007-1.446C76.697,17.344,76.736,18.088,76.741,18.832z"/>
		<path class="st4" d="M66.889,18.954c-0.011-0.683,0.07-1.402,0.92-1.409c0.856-0.007,0.94,0.741,0.949,1.401
			c0.009,0.671-0.094,1.387-0.951,1.397C66.911,20.353,66.894,19.62,66.889,18.954z"/>
	</g>
</g>
</svg>
