<?xml version="1.0" encoding="utf-8"?>
<!-- Generator: Adobe Illustrator 26.0.3, SVG Export Plug-In . SVG Version: 6.00 Build 0)  -->
<svg version="1.1" id="レイヤー_1" xmlns="http://www.w3.org/2000/svg" xmlns:xlink="http://www.w3.org/1999/xlink" x="0px"
	 y="0px" width="153.404px" height="90.36px" viewBox="0 0 153.404 90.36" style="enable-background:new 0 0 153.404 90.36;"
	 xml:space="preserve">
<style type="text/css">
	.st0{fill:#BEE5D7;}
	.st1{fill:#EEF1DC;}
	.st2{fill:#E6AEB0;}
	.st3{fill:#1E396A;}
</style>
<path class="st0" d="M73.242,55.99c5.014-3.435,10.028-6.87,15.042-10.305c0.95-0.651,1.977-1.327,3.129-1.332
	c1.053-0.005,2.02,0.558,2.885,1.16c4.545,3.167,7.906,7.993,9.299,13.355c-1.443,0.591-3.061,0.512-4.596,0.786
	s-3.179,1.105-3.565,2.616c-0.318,1.246,0.371,2.59,1.409,3.351c1.037,0.761,2.354,1.034,3.636,1.132
	c1.692,0.13,3.822,0.261,4.427,1.846c0.154,0.403,0.171,0.842,0.188,1.273c0.158,2.848,0.27,5.695,0.471,8.534
	c0.18,2.55-0.747,4.416-1.707,6.797c-0.129,0.319-0.272,0.657-0.556,0.851c-0.182,0.124-0.402,0.176-0.616,0.225
	c-3.284,0.751-6.567,1.502-9.851,2.253c-9.56,2.187-20.796,0.143-28.065-6.827c-0.339-0.325-0.69-0.7-0.725-1.168
	c-0.029-0.376,0.154-0.732,0.332-1.065c0.861-1.612,1.722-3.224,2.584-4.835c3.808,2.045,7.66,4.108,11.837,5.221
	c4.123,1.098,11.764,2.111,13.727-2.411c2.513-5.791,3.081-13.983,2.701-20.213c-0.033-0.535-0.173-1.195-0.692-1.33
	c-0.211-0.055-0.433-0.001-0.644,0.053c-7.775,1.984-15.469,4.859-22.952,7.816C62.336,67.12,70.396,57.939,73.242,55.99z"/>
<path class="st1" d="M32.687,76.069c0.647-0.167,1.34-0.398,1.711-0.954c0.37-0.557,0.315-1.283,0.245-1.948
	c-0.324-3.1-0.649-6.2-0.973-9.301c-0.248-2.373-0.618-4.988-2.43-6.54c-2.837-2.43-7.417-2.03-10.613-3.723
	c-1.648-0.873-2.853-2.341-4.024-3.75c-0.432-0.52-3.444-3.299-3.42-3.734c-0.166,3.001,3.39,5.408,3.724,8.453
	c0.088,0.797-0.124,1.593-0.329,2.368c-0.892,3.375-1.423,5.993-1.534,9.414c-0.087,2.675-2.248,7.279,0.152,9.459
	c1.532,1.392,5.013,1.089,6.887,1.159C25.637,77.107,29.229,76.964,32.687,76.069z"/>
<path class="st2" d="M111.901,6.774c2.857-2.525,6.588-3.963,10.381-4.343c1.459-0.146,2.953-0.14,4.367,0.245
	c2.844,0.773,5.131,3.061,6.333,5.752s1.408,5.744,1.055,8.67c-5.441-0.266-10.888,0.216-16.314,0.697
	c-1.949,0.173-3.918,0.347-5.807,0.885c-1.103,0.314-2.813,1.59-3.933,0.788c-2.055-1.471-0.57-5.994,0.215-7.714
	C109.065,9.86,110.341,8.153,111.901,6.774z"/>
<path class="st2" d="M65.866,17.99c-0.395-2.863,0.217-5.628,1.737-8.21c0.988-1.678,2.182-3.235,3.547-4.623
	c1.201-1.221,2.708-2.375,4.419-2.308c0.682,0.027,1.34,0.249,1.975,0.5c5.526,2.192,9.986,6.917,11.857,12.56
	c-0.897,0.747-2.019,1.16-3.124,1.537c-3.343,1.14-6.757,2.072-10.216,2.789c-1.729,0.359-3.47,0.664-5.218,0.916
	c-1.02,0.147-3.024,0.824-3.872,0.019c-0.408-0.387-0.607-0.943-0.755-1.486C66.06,19.116,65.944,18.551,65.866,17.99z"/>
<path class="st2" d="M25.194,12.782c3.362-3.061,8.149-4.948,12.521-3.7c2.057,0.587,3.867,1.808,5.633,3.015
	c0.542,0.371,1.088,0.745,1.546,1.217c2.253,2.32,1.728,6.074,1.01,9.227c-7.381-0.007-14.415,0.896-21.716,1.491
	c-2.34,0.191-4.746-1.076-4.367-3.804C20.189,17.584,23.309,14.498,25.194,12.782z"/>
<g>
	<g>
		<path class="st3" d="M13.237,55.579c0.584-0.372,1.103-0.801,1.612-0.162c0.458,0.574,0.201,1.169-0.279,1.531
			c-1.896,1.427-1.25,3.556-1.54,5.399c-0.405,2.577-1.001,5.092-1.906,7.537c-0.229,0.618-0.574,1.168-1.125,1.563
			c-0.361,0.259-0.742,0.322-1.095,0.002c-0.376-0.341-0.418-0.755-0.133-1.169c1.856-2.697,2.027-5.873,2.579-8.939
			c0.047-0.263,0.157-0.64-0.123-0.802c-0.301-0.175-0.523,0.162-0.738,0.329c-1.933,1.499-4.038,2.697-6.317,3.597
			c-0.135,0.053-0.268,0.113-0.406,0.157c-0.576,0.185-1.204,0.363-1.47-0.389c-0.248-0.702,0.247-1.063,0.84-1.284
			c2.58-0.963,4.871-2.402,7.019-4.1c0.906-0.716,1.398-1.425,1.269-2.708c-0.403-3.993-1.526-7.688-3.869-10.999
			c-0.562-0.795-0.957-0.885-1.659-0.158c-1.084,1.121-2.171,2.231-3.074,3.506c-0.381,0.538-0.865,1.001-1.537,0.535
			C0.56,48.52,1.002,47.925,1.364,47.43c1.006-1.372,2.097-2.674,3.39-3.795c0.387-0.335,0.849-0.619,0.305-1.214
			c-0.301-0.329-0.283-0.747,0.056-1.071c0.363-0.347,0.846-0.38,1.199-0.085c0.629,0.526,1.07,0.252,1.62-0.129
			c1.374-0.953,2.854-1.735,4.406-2.363c0.578-0.234,0.666-0.426,0.208-0.89c-3.312-3.357-2.653-9.132,1.478-12.015
			c0.531-0.371,1.109-0.667,1.109-1.468c0-0.386,0.343-0.622,0.746-0.671c0.364-0.045,0.687,0.104,0.805,0.432
			c0.887,2.471,2.92,2.155,4.832,1.878c2.518-0.365,4.904-1.335,7.428-1.724c3.853-0.594,7.711-1.01,11.611-0.566
			c0.833,0.095,1.384-0.127,1.707-0.948c0.762-1.936,1.248-3.908,1.048-6.004c-0.056-0.582-0.006-1.14,0.73-1.215
			c0.762-0.077,0.999,0.416,1.039,1.081c0.127,2.116-0.096,4.192-0.909,6.157c-0.372,0.899-0.266,1.267,0.761,1.436
			c1.124,0.185,2.145,0.673,2.837,1.662c1.112,1.588,0.733,3.614-0.912,4.628c-1.027,0.633-2.181,0.764-3.365,0.687
			c-0.455-0.03-0.757-0.274-0.791-0.74c-0.034-0.456,0.201-0.766,0.653-0.864c0.425-0.092,0.86-0.136,1.29-0.211
			c0.848-0.147,1.705-0.343,1.857-1.363c0.165-1.105-0.6-1.612-1.482-1.995c-1.409-0.611-2.938-0.509-4.405-0.596
			c-2.607-0.154-5.231-0.218-7.841,0.123c-0.533,0.07-0.822,0.27-1.057,0.758c-1.789,3.715-4.755,5.924-8.839,6.625
			c-0.543,0.093-0.777,0.35-0.834,0.819c-0.251,2.062-0.123,4.101,0.436,6.108c0.129,0.463,0.489,0.695,0.879,0.906
			c1.755,0.95,3.5,1.919,5.268,2.844c0.481,0.252,0.946,0.476,0.831,1.097c-0.112,0.605-0.568,0.794-1.148,0.73
			c-0.264-0.029-0.53-0.05-0.632,0.262c-0.109,0.333,0.093,0.545,0.343,0.722c0.089,0.063,0.18,0.122,0.273,0.179
			c0.515,0.319,1.049,0.674,0.657,1.368c-0.376,0.666-0.968,0.52-1.513,0.2c-0.428-0.252-0.736-0.278-1.138,0.125
			c-0.527,0.528-1.348,0.574-1.932,1.174c-0.469,0.482-1.351,0.054-1.724-0.47c-1.468-2.059-3.58-3.47-5.268-5.302
			c-0.98-1.064-2.079-2.018-3.095-3.05c-0.382-0.387-0.738-0.486-1.258-0.291c-0.689,0.257-0.797,0.546-0.363,1.178
			c2.091,3.045,4.355,5.953,6.808,8.719c0.48,0.541,0.943,1.098,1.426,1.636c0.597,0.665,1.165,0.716,1.826,0.013
			c0.692-0.736,1.468-1.397,2.227-2.068c0.432-0.382,0.935-0.473,1.349,0.004c0.377,0.436,0.205,0.894-0.159,1.258
			c-0.921,0.922-1.821,1.871-2.804,2.726c-1.101,0.958-2.579,0.711-3.738-0.626c-1.635-1.886-3.257-3.787-4.801-5.745
			c-1.32-1.675-2.55-3.422-3.769-5.172c-0.778-1.117-1.295-0.07-1.885,0.174c-0.579,0.24-0.854,0.635-0.375,1.265
			c2.499,3.283,3.776,7.036,4.284,11.079C13.072,55.042,13.151,55.247,13.237,55.579z M29.722,26.252
			c-0.261-0.27-0.485-0.195-0.69-0.159c-2.685,0.477-5.259,1.427-7.959,1.846c-0.213,0.033-0.476,0.067-0.521,0.319
			c-0.307,1.738-1.231,3.285-1.484,5.057c-0.271,1.903-0.089,3.733,0.356,5.568c0.135,0.556,0.061,1.038-0.581,1.19
			c-0.598,0.142-0.977-0.15-1.137-0.726c-0.077-0.278-0.156-0.557-0.208-0.84c-0.597-3.309-0.382-6.538,1.062-9.619
			c0.326-0.696,0.291-1.04-0.552-1.178c-0.453-0.074-0.932-0.262-1.295-0.535c-0.543-0.407-0.947-0.307-1.461,0.037
			c-4.204,2.806-4.03,8.386,0.373,10.877c0.768,0.434,1.361,0.812,0.913,1.836c-0.273,0.625,0.421,0.828,0.726,1.185
			c0.197,0.231,0.48,0.372,0.746,0.068c0.739-0.846,1.372-0.408,2.072,0.096c1.588,1.144,3.2,2.256,4.83,3.341
			c0.291,0.194,0.714,0.809,1.063,0.168c0.319-0.585-0.381-0.666-0.712-0.857c-1.036-0.599-2.072-1.211-3.158-1.708
			c-0.74-0.339-1.111-0.841-1.313-1.59c-1.032-3.811-0.848-7.563,0.486-11.269c0.085-0.236,0.171-0.483,0.312-0.686
			c0.275-0.395,0.671-0.564,1.14-0.383c0.514,0.199,0.56,0.614,0.419,1.077c-0.116,0.38-0.233,0.76-0.377,1.129
			c-0.198,0.511-0.116,0.803,0.503,0.628C26.078,30.338,28.281,28.786,29.722,26.252z M24.606,48.189
			c0.103-0.699,0.677-1.169-0.034-1.634c-1.442-0.943-2.878-1.894-4.193-2.761C21.672,45.139,23.059,46.582,24.606,48.189z"/>
		<path class="st3" d="M105.933,23.471c-1.143,0.545-2.273,1.117-3.432,1.627c-1.069,0.47-2.172,0.835-3.377,0.538
			c-0.434-0.107-0.824-0.289-1.157-0.578c-0.453-0.393-0.71-0.869-0.312-1.419c0.382-0.528,0.884-0.423,1.337-0.078
			c0.995,0.758,1.943,0.337,2.861-0.122c2.667-1.334,5.402-2.497,8.237-3.437c6.326-2.096,12.831-2.772,19.464-2.47
			c0.725,0.033,1.448,0.125,2.168,0.217c0.604,0.077,1.069,0.365,0.991,1.044c-0.074,0.645-0.594,0.806-1.139,0.716
			c-1.517-0.25-3.047-0.194-4.57-0.236c-2.432-0.068-4.86,0.052-7.276,0.353c-0.806,0.1-0.899,0.472-0.578,1.188
			c2.247,5.017,3.647,10.255,4.086,15.737c0.023,0.286-0.01,0.659,0.261,0.788c0.382,0.181,0.551-0.246,0.772-0.448
			c3.172-2.897,6.606-5.425,10.468-7.356c0.26-0.13,0.52-0.259,0.787-0.373c0.542-0.231,1.019-0.154,1.295,0.399
			c0.268,0.538-0.045,0.906-0.488,1.158c-1.134,0.646-2.302,1.236-3.42,1.91c-6.245,3.761-11.156,8.848-15.035,14.953
			c-0.394,0.62-0.737,1.587-1.691,1.03c-1.006-0.587-0.207-1.346,0.153-1.94c1.293-2.137,2.75-4.168,4.413-6.036
			c0.662-0.743,0.966-1.417,0.886-2.481c-0.448-5.96-1.821-11.67-4.336-17.106c-0.061-0.131-0.108-0.269-0.175-0.396
			c-0.321-0.608-0.832-0.495-1.319-0.297c-0.601,0.244-0.267,0.652-0.103,0.985c2.381,4.799,3.929,9.845,4.566,15.16
			c0.086,0.715,0.13,1.435,0.213,2.15c0.068,0.592-0.118,1.037-0.754,1.085c-0.614,0.046-0.909-0.35-0.98-0.931
			c-0.243-1.967-0.445-3.937-0.868-5.88c-0.834-3.828-2.127-7.493-3.911-10.985c-0.47-0.919-2.44-1.059-3.11-0.253
			c-0.246,0.295-0.034,0.544,0.074,0.797c0.245,0.57,0.409,1.165-0.287,1.496c-0.7,0.333-1.043-0.17-1.341-0.722
			c-0.551-1.017-0.565-1.01-2.12-0.217c0.981,0.457,0.851,1.114,0.368,1.839c-0.864,1.298-1.653,2.635-2.043,4.162
			c-0.301,1.178,0.041,1.772,1.214,2.096c0.384,0.106,0.787,0.148,1.171,0.255c0.489,0.136,0.725,0.481,0.636,0.981
			c-0.081,0.454-0.388,0.669-0.857,0.655c-2.402-0.072-4.894-1.223-3.822-4.74c0.508-1.665,1.397-3.148,2.289-4.632
			C106.07,23.594,106.001,23.532,105.933,23.471z"/>
		<path class="st3" d="M65.602,26.303c0.204,3.504,1.045,7.085,2.917,10.397c0.364,0.645,1.121,1.467,0.07,2.039
			c-1.019,0.555-1.258-0.525-1.6-1.131c-1.784-3.161-2.819-6.549-3.04-10.174c-0.046-0.755-0.147-1.507-0.164-2.262
			c-0.015-0.662-0.348-0.843-0.959-0.882c-1.775-0.113-3.548-0.273-5.32-0.423c-0.251-0.021-0.51-0.055-0.744-0.142
			c-0.466-0.173-0.686-0.534-0.605-1.023c0.079-0.476,0.441-0.657,0.878-0.632c0.978,0.056,1.954,0.146,2.931,0.228
			c8.458,0.715,16.762-0.135,24.923-2.425c0.703-0.197,1.393-0.429,2.004-0.831c0.947-0.622,1.105-1.246,0.556-2.226
			c-0.244-0.435-0.283-0.828,0.117-1.164c0.421-0.353,0.855-0.314,1.285,0.029c0.805,0.641,1.036,2.051,0.49,3.194
			c-0.565,1.181-1.567,1.858-2.754,2.324c-0.351,0.138-0.959,0.208-0.825,0.686c0.165,0.589,0.674,0.138,1.003,0.061
			c2.586-0.606,4.882,0.833,5.382,3.402c0.509,2.61-1.194,5.079-3.752,5.401c-0.423,0.053-0.872,0.008-1.295-0.068
			c-0.424-0.076-0.737-0.347-0.712-0.823c0.026-0.505,0.347-0.783,0.833-0.849c0.323-0.044,0.656-0.009,0.979-0.048
			c1.45-0.175,2.419-1.62,2.167-3.215c-0.231-1.458-1.526-2.405-2.895-2.115c-1.104,0.233-1.602,0.806-1.569,1.971
			c0.108,3.765-0.547,7.392-1.93,10.894c-0.093,0.235-0.178,0.474-0.29,0.7c-0.211,0.424-0.512,0.731-1.035,0.532
			c-0.514-0.196-0.729-0.607-0.594-1.128c0.126-0.487,0.323-0.956,0.502-1.428c1.452-3.814,1.858-7.755,1.459-11.794
			c-0.025-0.249-0.09-0.496-0.156-0.739c-0.059-0.218-0.173-0.412-0.441-0.397c-0.284,0.016-0.504,0.175-0.535,0.451
			c-0.04,0.354-0.046,0.721-0.002,1.075c0.524,4.198-0.004,8.267-1.501,12.219c-0.128,0.339-0.25,0.681-0.531,0.932
			c-0.3,0.267-0.639,0.337-1.006,0.154c-0.377-0.188-0.504-0.508-0.412-0.904c0.048-0.209,0.13-0.413,0.212-0.612
			c1.479-3.624,1.797-7.405,1.551-11.262c-0.092-1.44-0.203-1.52-1.633-1.302c-2.154,0.328-4.29,0.781-6.471,0.914
			c-0.839,0.051-1.229,0.416-1.177,1.304c0.068,1.16,0.233,2.29,0.605,3.393c0.227,0.673,0.452,1.276,1.369,1.274
			c0.483-0.001,0.794,0.395,0.732,0.9c-0.074,0.601-0.477,0.957-1.071,1.075c-0.909,0.181-1.839-0.425-2.359-1.553
			c-0.723-1.568-0.985-3.252-1.044-4.944c-0.033-0.929-0.328-1.207-1.214-1.086c-0.536,0.074-1.089,0.025-1.634,0.033
			C65.579,24.329,65.579,24.33,65.602,26.303z"/>
		<path class="st3" d="M124.73,11.002c2.595-0.114,5.343,0.131,8.065,0.636c0.94,0.174,1.09-0.089,0.753-0.925
			c-1.969-4.877-5.644-7.773-10.781-8.597c-6.449-1.035-11.841,1.063-15.882,6.209c-2.214,2.819-2.931,6.069-2.276,9.598
			c0.033,0.177,0.057,0.356,0.076,0.535c0.057,0.527-0.088,0.951-0.672,1.057c-0.575,0.104-0.877-0.224-1.021-0.739
			c-0.58-2.065-0.55-4.148-0.033-6.205c1.627-6.47,6.036-10.237,12.317-11.87c5.387-1.4,10.629-0.819,15.065,2.789
			c4.902,3.987,6.786,9.205,5.544,15.444c-0.035,0.176-0.092,0.348-0.139,0.522c-0.169,0.623-0.491,1.1-1.225,0.904
			c-0.72-0.192-0.658-0.775-0.508-1.325c0.364-1.334,0.468-2.687,0.475-4.067c0.005-0.959-0.399-1.323-1.304-1.491
			c-7.957-1.482-15.768-0.924-23.451,1.565c-0.657,0.213-1.31,0.435-1.965,0.651c-0.53,0.174-0.953,0.049-1.144-0.495
			c-0.185-0.528,0.037-0.921,0.541-1.139c0.433-0.187,0.875-0.357,1.322-0.506C113.701,11.826,119.034,10.84,124.73,11.002z"/>
		<path class="st3" d="M98.803,60.328c1.887-0.085,3.768-0.227,5.622-0.627c0.513-0.11,0.801-0.321,0.623-0.889
			c-1.615-5.164-3.474-10.2-7.591-14.028c-1.209-1.124-2.655-1.75-4.317-1.845c-0.627-0.036-1.388,0.015-1.326-0.866
			c0.064-0.919,0.846-0.959,1.571-0.9c2.865,0.234,5.052,1.686,6.843,3.811c3.143,3.73,4.858,8.17,6.37,12.705
			c0.196,0.589,0.339,1.089,1.09,1.314c0.694,0.208,0.652,0.837,0.294,1.431c-0.62,1.028-0.395,1.994,0.588,2.625
			c0.589,0.379,0.863,0.868,0.271,1.396c-0.528,0.472-0.498,1.005-0.418,1.58c0.621,4.417,0.508,8.841,0.131,13.267
			c-0.003,0.036-0.003,0.074-0.014,0.107c-0.192,0.567,0.008,1.493-0.959,1.423c-0.973-0.071-0.888-0.915-0.821-1.594
			c0.246-2.475,0.529-4.95,0.397-7.44c-0.096-1.797-0.296-3.588-0.434-5.383c-0.056-0.728-0.406-0.914-1.093-0.721
			c-1.332,0.374-2.689,0.635-4.082,0.625c-0.634-0.005-0.824,0.296-0.759,0.884c0.149,1.36,0.244,2.727,0.411,4.085
			c0.177,1.435,0.641,1.746,2.028,1.394c0.716-0.182,1.433-0.264,2.16-0.156c0.736,0.109,1.115,0.565,0.961,1.293
			c-0.146,0.691-0.681,0.766-1.281,0.587c-0.655-0.195-1.288-0.046-1.937,0.068c-2.096,0.367-3.188-0.379-3.571-2.456
			c-0.288-1.56-0.498-3.133-0.466-4.727c0.01-0.505-0.057-0.902-0.675-1.049c-0.522-0.124-0.782-0.539-0.646-1.081
			c0.144-0.574,0.615-0.673,1.12-0.6c2.171,0.312,4.259-0.159,6.366-0.573c1.12-0.22,0.891-0.883,0.748-1.606
			c-0.145-0.732-0.398-1.181-1.314-0.944c-2.055,0.533-4.163,0.621-6.279,0.553c-0.695-0.022-1.534,0.046-1.456-0.976
			c0.076-0.987,0.886-0.723,1.52-0.686C98.584,60.333,98.694,60.328,98.803,60.328z"/>
		<path class="st3" d="M72.429,50.824c-1.256,1.416-1.579,1.398-2.54,0.086c-0.808-1.104-1.641-2.189-2.571-3.155
			c-2.47,2.326-5.063,4.411-7.595,6.565c-0.855,0.728-1.686,1.489-2.589,2.154c-0.803,0.592-1.445,1.169-1.153,2.298
			c0.103,0.397-0.089,0.793-0.543,0.946c-0.445,0.15-0.789-0.038-1.041-0.387c-1.249-1.733-2.241-3.623-3.337-5.448
			c-0.26-0.433-0.138-0.851,0.295-1.125c0.487-0.308,0.926-0.175,1.227,0.277c0.48,0.722,0.946,1.456,1.367,2.213
			c0.413,0.745,0.835,0.873,1.524,0.282c3.133-2.689,6.29-5.35,9.438-8.022c0.083-0.07,0.148-0.174,0.242-0.217
			c1.035-0.475,1.091-1.003,0.169-1.701c-0.436-0.33-0.631-0.842-0.181-1.32c0.485-0.515,0.973-0.327,1.421,0.1
			c1.365,1.301,2.662,2.662,3.796,4.171c0.169,0.225,0.328,0.559,0.636,0.538c0.415-0.028,0.391-0.47,0.493-0.754
			c0.146-0.406,0.231-0.834,0.339-1.252c0.098-0.379,0.311-0.734,0.713-0.711c1.097,0.061,1.715-0.711,2.416-1.302
			c3.523-2.97,7.22-5.706,11.065-8.25c0.181-0.12,0.359-0.254,0.557-0.337c0.464-0.194,0.944-0.268,1.252,0.241
			c0.296,0.487,0.107,0.926-0.319,1.229c-1.063,0.757-2.15,1.481-3.222,2.225c-3.041,2.111-5.949,4.39-8.767,6.783
			c-0.604,0.513-0.944,1.092-1.043,1.921c-0.374,3.148-0.838,6.285-1.273,9.425c-0.034,0.249-0.101,0.494-0.147,0.742
			c-0.093,0.49-0.347,0.802-0.891,0.727c-0.511-0.07-0.79-0.412-0.761-0.898c0.049-0.825,0.152-1.648,0.259-2.469
			C71.902,54.617,72.153,52.837,72.429,50.824z"/>
		<path class="st3" d="M52.699,63.804c-0.026-0.326-0.071-0.607-0.066-0.887c0.007-0.359,0.201-0.614,0.548-0.728
			c0.392-0.129,0.721-0.01,0.963,0.309c0.107,0.142,0.217,0.312,0.239,0.481c0.261,1.998,1.755,2.848,3.366,3.605
			c0.459,0.215,0.909,0.46,1.331,0.739c0.403,0.267,0.571,0.671,0.334,1.13c-0.241,0.468-0.677,0.519-1.129,0.369
			c-0.403-0.133-0.787-0.32-1.357-0.557c0.214,0.765,0.637,1.208,0.971,1.69c0.348,0.502,0.719,1.015,0.053,1.493
			c-0.672,0.482-1.155,0.056-1.548-0.48c-0.878-1.2-1.627-2.478-2.291-3.803c-0.201-0.402-0.442-0.723-0.86-0.931
			c-3.803-1.892-7.587-3.822-11.48-5.53c-0.162-0.071-0.336-0.115-0.823-0.278c1.524,1.947,2.861,3.661,4.204,5.37
			c1.162,1.479,2.331,2.953,3.496,4.43c0.112,0.142,0.214,0.292,0.317,0.44c0.351,0.51,0.62,1.053-0.019,1.514
			c-0.596,0.429-1.016,0.026-1.375-0.422c-0.928-1.157-1.857-2.314-2.774-3.479c-2.572-3.27-5.14-6.543-7.702-9.82
			c-0.243-0.311-0.475-0.644-0.636-1.001c-0.184-0.409-0.032-0.791,0.331-1.046c0.34-0.239,0.786-0.237,0.978,0.1
			c0.789,1.388,2.318,1.453,3.551,2.031C45.066,60.299,48.829,62.018,52.699,63.804z"/>
		<path class="st3" d="M84.635,90.36c-8.105-0.046-16.629-2.693-24.265-8.094c-0.292-0.207-0.588-0.436-0.802-0.716
			c-0.268-0.35-0.219-0.758,0.058-1.102c0.301-0.373,0.683-0.372,1.072-0.142c0.218,0.129,0.42,0.284,0.626,0.432
			c8.292,5.948,17.586,8.433,27.741,7.715c5.269-0.373,10.289-1.786,15.01-4.186c0.669-0.34,1.533-1.046,2.05,0.034
			c0.488,1.021-0.608,1.22-1.232,1.539C98.936,88.886,92.59,90.339,84.635,90.36z"/>
		<path class="st3" d="M61.312,69.404c0.22-2.247-1.546-4.95-3.68-5.209c-0.652-0.079-1.142-0.407-0.982-1.142
			c0.157-0.722,0.746-0.667,1.313-0.557c1.863,0.361,3.283,1.359,4.159,3.019c0.403,0.764,0.764,0.944,1.594,0.545
			c8.32-4.006,16.924-7.297,25.772-9.966c0.453-0.137,0.898-0.273,1.265-0.6c0.551-0.492,1.163-0.275,1.75-0.079
			c0.384,0.128,0.58,0.424,0.55,0.835c-0.034,0.459-0.34,0.71-0.742,0.838c-1.106,0.354-2.219,0.69-3.329,1.03
			c-8.522,2.611-16.794,5.85-24.833,9.685c-0.699,0.333-1.162,0.677-1.055,1.501c0.013,0.102-0.039,0.211-0.058,0.318
			c-0.107,0.619-0.013,1.402-0.986,1.386C61.417,70.998,61.216,70.52,61.312,69.404z"/>
		<path class="st3" d="M42.443,15.102c-0.074,2.102-0.453,4.147-1.236,6.11c-0.244,0.61-0.594,1.205-1.358,0.772
			c-0.693-0.393-0.756-0.921-0.317-1.716c1.137-2.058,1.186-4.342,1.04-6.628c-0.03-0.461-0.418-0.646-0.75-0.863
			c-5.189-3.378-12.9-2.861-17.632,1.126c-2.334,1.967-4.001,4.346-4.939,7.234c-0.191,0.587-0.358,1.29-1.21,1.053
			c-0.906-0.252-0.682-0.961-0.506-1.602c1.79-6.501,8.568-11.642,15.373-11.779c3.119-0.063,6.071,0.433,8.846,1.87
			c0.22,0.114,0.51,0.275,0.71,0.217c1.421-0.414,1.62,0.533,1.733,1.517C42.299,13.306,42.524,14.19,42.443,15.102z"/>
		<path class="st3" d="M63.416,13.63c-0.276,1.81-1.149,3.617,0.178,5.406c0.404,0.544,0.211,1.115-0.398,1.325
			c-1.336,0.461-2.705,0.831-4.069,1.21c-0.428,0.119-0.808-0.033-0.973-0.476c-0.173-0.463-0.041-0.855,0.397-1.111
			c0.154-0.09,0.333-0.142,0.503-0.203c2.049-0.739,2.036-0.739,2.074-2.944c0.044-2.534,0.603-4.964,2.011-7.086
			c0.98-1.478,1.42-3.143,2.109-4.722c0.316-0.726,0.67-1.44,1.063-2.127c0.28-0.49,0.745-0.724,1.289-0.4
			c0.508,0.302,0.443,0.777,0.239,1.242c-0.21,0.477-0.432,0.949-0.749,1.641c1.077-0.428,1.901-0.766,2.734-1.081
			c0.338-0.128,0.692-0.22,1.045-0.305c0.58-0.14,1.031,0.043,1.193,0.632c0.172,0.625-0.201,0.94-0.768,1.078
			c-1.732,0.42-3.223,1.278-4.581,2.408c-0.654,0.544-0.971,1.207-1.107,2.03c-0.423,2.571-0.208,5.097,0.443,7.602
			c0.072,0.279,0.147,0.56,0.183,0.844c0.063,0.506-0.029,0.971-0.619,1.094c-0.558,0.116-0.91-0.194-1.065-0.698
			c-0.404-1.311-0.736-2.638-0.808-4.016C63.716,14.514,63.783,14.038,63.416,13.63z"/>
		<path class="st3" d="M44.787,51.833c-0.487,1.148-1.062,1.949-2.119,2.289c-0.15,0.048-0.275,0.224-0.374,0.366
			c-0.746,1.078-1.343,1.072-1.925-0.073c-0.367-0.722-0.835-1.345-1.438-1.881c-0.482-0.429-0.752-0.968-0.287-1.512
			c0.525-0.614,1.05-0.17,1.518,0.181c0.23,0.173,0.456,0.366,0.638,0.586c0.49,0.592,1.077,0.77,1.715,0.319
			c0.634-0.449,0.589-1.11,0.348-1.761c-0.142-0.385-0.456-0.642-0.765-0.898c-0.395-0.326-0.474-0.718-0.18-1.145
			c0.287-0.418,0.696-0.506,1.151-0.316c0.231,0.096,0.488,0.211,0.641,0.394c0.956,1.145,2.464,1.75,3.133,3.186
			c0.134,0.287,0.403,0.756,0.803,0.552c0.366-0.187,0.162-0.658,0.075-0.99c-0.362-1.386-1.003-2.618-2.057-3.627
			c-1.987-1.901-4.726-1.794-6.54,0.274c-0.167,0.19-0.314,0.396-0.465,0.6c-0.333,0.45-0.734,0.75-1.288,0.391
			c-0.594-0.385-0.462-0.895-0.176-1.421c2.032-3.735,7.538-4.024,10.335-0.54c1.332,1.658,2.018,3.573,2.257,5.653
			c0.09,0.79-0.1,1.547-0.85,1.97c-0.766,0.432-1.488,0.144-2.112-0.364C46.094,53.471,45.464,52.774,44.787,51.833z"/>
		<path class="st3" d="M136.057,33.934c0,0.441-0.298,0.718-0.565,1.012c-3.658,4.011-7.213,8.109-10.429,12.48
			c-1.821,2.474-3.558,5.009-5.322,7.524c-0.949,1.353-1.537,1.32-2.294-0.17c-0.638-1.255-1.268-2.515-1.889-3.779
			c-0.261-0.532-0.355-1.085,0.313-1.376c0.623-0.272,1.033,0.074,1.307,0.623c0.339,0.678,0.73,1.335,1.018,2.033
			c0.392,0.951,0.681,0.746,1.156,0.037c2.536-3.785,5.272-7.427,8.158-10.956c2.083-2.547,4.233-5.038,6.499-7.429
			c0.247-0.261,0.505-0.539,0.814-0.709C135.416,32.897,136.05,33.286,136.057,33.934z"/>
		<path class="st3" d="M6.599,76.92c-0.705,0.069-1.535,0.156-2.365,0.228c-0.54,0.046-0.814,0.419-1.084,0.812
			c-0.727,1.059-1.158,2.237-1.434,3.478c-0.115,0.516-0.254,1.039-0.951,0.921c-0.697-0.118-0.823-0.664-0.742-1.239
			c0.375-2.658,1.693-4.794,3.755-6.493c0.492-0.406,1.066-0.399,1.427,0.142c0.353,0.53,0.819,0.525,1.328,0.505
			c2.282-0.088,4.479,0.323,6.62,1.082c0.765,0.271,1.456,0.662,2.049,1.203c0.657,0.6,0.987,1.356,0.754,2.239
			c-0.244,0.923-0.982,1.362-1.87,1.388c-0.867,0.025-1.169,0.359-1.086,1.184c0.06,0.593-0.142,1.139-0.494,1.621
			c-0.257,0.351-0.593,0.544-1.034,0.376c-0.439-0.167-0.56-0.528-0.527-0.962c0.162-2.081-0.119-2.428-2.258-2.787
			C8.578,80.6,8.468,80.594,8.36,80.58c-0.617-0.083-1.07-0.389-0.995-1.045c0.082-0.709,0.642-0.767,1.239-0.69
			c1.474,0.191,2.948,0.385,4.426,0.544c0.327,0.035,0.833,0.19,0.932-0.273c0.086-0.4-0.367-0.589-0.691-0.73
			C11.187,77.479,8.997,77.02,6.599,76.92z"/>
		<path class="st3" d="M15.117,71.638c2.209,0.058,4.569-2.049,4.79-4.217c0.052-0.507-0.244-0.603-0.593-0.744
			c-1.445-0.585-2.89-1.173-4.327-1.778c-0.627-0.264-1.296-0.615-0.876-1.43c0.421-0.818,1.106-0.429,1.701-0.149
			c1.479,0.697,2.987,1.317,4.555,1.789c0.374,0.113,0.784,0.328,1.021-0.212c0.24-0.547-0.201-0.685-0.548-0.869
			c-1.986-1.052-3.975-2.101-5.961-3.153c-0.53-0.281-1.111-0.603-0.773-1.315c0.359-0.756,1.028-0.56,1.597-0.266
			c2.416,1.249,4.818,2.524,7.223,3.793c0.65,0.343,0.846,0.855,0.552,1.537c-0.951,2.203-2.082,4.327-3.375,6.337
			c-1.2,1.865-3.077,2.682-5.342,2.48c-0.695-0.062-1.538-0.094-1.489-1.031c0.047-0.908,0.861-0.793,1.519-0.772
			C14.899,71.641,15.008,71.638,15.117,71.638z"/>
		<path class="st3" d="M153.404,54.564c-0.034,0.425-0.231,0.787-0.684,0.842c-0.664,0.081-1.265-0.147-1.526-0.791
			c-2.687-6.654-7.211-12.112-11.645-17.627c-0.769-0.957-1.636-1.836-2.438-2.768c-0.444-0.516-1.07-1.102-0.312-1.751
			c0.708-0.606,1.202,0.07,1.634,0.531c2.526,2.698,4.85,5.562,7.036,8.535c2.788,3.793,5.312,7.752,7.506,11.914
			C153.159,53.798,153.387,54.134,153.404,54.564z"/>
		<path class="st3" d="M132.655,83.343c0.012,0.528-0.155,0.828-0.556,0.947c-0.386,0.115-0.759,0.015-0.966-0.316
			c-0.246-0.393-0.441-0.828-0.594-1.267c-2.592-7.424-4.859-14.944-6.716-22.584c-0.068-0.28-0.141-0.562-0.169-0.847
			c-0.048-0.497,0.182-0.845,0.674-0.966c0.459-0.113,0.781,0.125,0.964,0.518c0.136,0.291,0.22,0.61,0.297,0.924
			c1.869,7.673,4.12,15.234,6.776,22.676C132.485,82.766,132.582,83.112,132.655,83.343z"/>
		<path class="st3" d="M125.238,83.79c0.003,0.487-0.209,0.759-0.607,0.857c-0.549,0.136-0.947-0.106-1.118-0.611
			c-0.427-1.264-0.862-2.529-1.211-3.815c-1.461-5.372-2.447-10.822-2.726-16.393c-0.065-1.295-0.168-2.587-0.164-3.885
			c0.002-0.669-0.003-1.437,0.907-1.431c0.906,0.006,0.913,0.799,0.908,1.45c-0.041,5.288,0.672,10.491,1.781,15.649
			c0.546,2.541,1.265,5.036,2.047,7.514C125.129,83.366,125.189,83.611,125.238,83.79z"/>
		<path class="st3" d="M132.148,25.46c0.007,4.276-2.595,6.702-6.218,6.418c-0.964-0.075-1.77-0.426-2.153-1.389
			c-0.161-0.406-0.095-0.791,0.266-1.071c0.361-0.28,0.72-0.246,1.097,0.018c1.63,1.137,3.9,0.52,4.827-1.3
			c0.814-1.597,0.342-4.439-0.983-5.655c-0.936-0.859-2.035-1.279-3.306-0.827c-1.341,0.477-1.761,1.611-1.989,2.872
			c-0.109,0.601,0.276,1.596-0.834,1.533c-1.051-0.06-0.846-1.002-0.842-1.692c0.01-1.993,1.179-3.677,2.991-4.372
			c1.821-0.699,4.002-0.165,5.377,1.339C131.612,22.681,132.125,24.299,132.148,25.46z"/>
		<path class="st3" d="M23.672,74.872c-0.561-0.099-1.124-0.187-1.682-0.301c-0.477-0.097-0.813-0.357-0.755-0.889
			c0.056-0.512,0.417-0.812,0.899-0.75c2.317,0.3,4.641,0.21,6.964,0.205c0.405-0.001,0.686,0.229,0.771,0.636
			c0.085,0.407-0.096,0.78-0.443,0.902c-0.9,0.319-0.778,0.938-0.665,1.653c0.391,2.476,1.055,4.855,2.299,7.057
			c0.315,0.558,0.527,1.215-0.212,1.598c-0.696,0.361-1.074-0.194-1.365-0.71c-1.074-1.904-1.83-3.935-2.165-6.086
			c-0.167-1.07-0.649-1.409-1.676-1.261c-0.788,0.113-1.59,0.145-2.387,0.186c-0.539,0.028-1.058-0.065-1.147-0.721
			c-0.084-0.616,0.327-0.909,0.848-1.089c0.237-0.082,0.474-0.162,0.711-0.243C23.669,74.996,23.67,74.934,23.672,74.872z"/>
		<path class="st3" d="M58.752,79.111c-3.263-0.005-5.548-1.407-7.774-2.938c-0.434-0.299-0.592-0.747-0.266-1.228
			c0.333-0.491,0.789-0.45,1.248-0.193c1.044,0.585,2.05,1.244,3.127,1.76c3.272,1.57,5.828,0.96,8.073-1.887
			c1.503-1.906,2.738-3.995,4.089-6.004c0.141-0.21,0.259-0.439,0.428-0.625c0.32-0.351,0.721-0.524,1.166-0.25
			c0.483,0.297,0.582,0.777,0.291,1.223c-1.969,3.021-3.621,6.285-6.458,8.659C61.447,78.657,59.993,79.207,58.752,79.111z"/>
		<path class="st3" d="M87.31,76.89c-3.914-0.092-7.588-0.675-11.122-2.012c-0.17-0.064-0.339-0.13-0.503-0.207
			c-0.59-0.277-1.165-0.623-0.836-1.383c0.325-0.752,0.955-0.47,1.499-0.259c3.769,1.462,7.676,2.142,11.72,2.042
			c2.519-0.063,4.977-0.514,7.399-1.176c0.175-0.048,0.349-0.101,0.521-0.158c0.584-0.193,1.123-0.157,1.36,0.483
			c0.277,0.746-0.269,1.077-0.85,1.245c-1.045,0.301-2.104,0.563-3.17,0.776C91.295,76.647,89.235,76.825,87.31,76.89z"/>
		<path class="st3" d="M30.43,59.907c-0.12,3.797-0.667,7.341-1.889,10.766c-0.096,0.27-0.196,0.552-0.362,0.78
			c-0.257,0.352-0.628,0.484-1.057,0.298c-0.389-0.169-0.521-0.497-0.457-0.886c0.052-0.317,0.153-0.629,0.253-0.937
			c1.654-5.091,2.274-10.249,1.043-15.532c-0.141-0.606-0.301-1.31,0.553-1.497c0.919-0.202,1.054,0.557,1.199,1.192
			C30.166,56.062,30.325,58.07,30.43,59.907z"/>
		<path class="st3" d="M35.296,18.631c0.545,0,1.091-0.02,1.635,0.005c0.593,0.028,1.11,0.234,1.122,0.923
			c0.013,0.736-0.54,0.84-1.129,0.858c-1.814,0.053-3.626,0.024-5.444,0.142c-3.641,0.237-7.208,0.854-10.755,1.645
			c-0.177,0.039-0.351,0.099-0.53,0.123c-0.565,0.078-1.159,0.108-1.331-0.586c-0.173-0.702,0.356-0.946,0.917-1.098
			c1.719-0.465,3.461-0.824,5.217-1.123C28.406,18.938,31.847,18.737,35.296,18.631z"/>
		<path class="st3" d="M133.22,42.974c-0.015,0.468-0.272,0.728-0.528,0.984c-3.312,3.319-5.828,7.156-7.58,11.487
			c-0.258,0.636-0.648,1.111-1.395,0.807c-0.688-0.28-0.517-0.85-0.301-1.38c1.858-4.558,4.403-8.67,7.986-12.108
			c0.205-0.197,0.436-0.424,0.695-0.498C132.75,42.078,133.138,42.368,133.22,42.974z"/>
		<path class="st3" d="M76.802,52.18c-0.484-0.045-0.718-0.246-0.817-0.592c-0.134-0.469,0.015-0.855,0.397-1.15
			c0.948-0.73,1.908-1.445,2.849-2.183c2.568-2.016,5.043-4.136,7.358-6.436c0.205-0.204,0.417-0.404,0.646-0.581
			c0.483-0.372,0.999-0.506,1.441,0.032c0.414,0.504,0.151,0.949-0.241,1.331c-3.428,3.342-7.093,6.41-10.95,9.253
			C77.26,52.02,76.972,52.101,76.802,52.18z"/>
		<path class="st3" d="M75.571,4.125c4.718-0.029,9.477,3.568,10.771,7.982c0.174,0.595,0.293,1.194-0.447,1.444
			c-0.74,0.249-1.022-0.296-1.241-0.875c-1.386-3.657-3.95-5.947-7.872-6.663c-0.65-0.119-1.3-0.105-1.952-0.056
			c-0.524,0.04-0.97-0.046-1.025-0.672c-0.048-0.551,0.242-0.887,0.782-0.995C74.975,4.212,75.37,4.158,75.571,4.125z"/>
		<path class="st3" d="M116.517,41.808c-0.008,0.258-0.118,0.515-0.379,0.692c-0.398,0.27-0.78,0.135-1.113-0.105
			c-1.18-0.851-2.276-1.793-3.169-2.949c-0.441-0.571-0.825-1.103-1.771-0.907c-0.762,0.158-1.258-0.728-0.718-1.279
			c0.572-0.585,0.337-0.983,0.057-1.505c-0.187-0.348-0.324-0.725-0.464-1.096c-0.189-0.5-0.132-0.945,0.423-1.166
			c0.521-0.208,0.934-0.008,1.186,0.467c0.254,0.478,0.477,0.972,0.693,1.468c0.262,0.601,0.635,0.717,1.199,0.359
			c0.396-0.251,0.817-0.474,1.25-0.657c0.408-0.173,0.8-0.089,1.046,0.311c0.24,0.389,0.167,0.779-0.15,1.084
			c-0.232,0.223-0.515,0.397-0.792,0.568c-1.106,0.685-1.113,0.687-0.165,1.65c0.736,0.748,1.462,1.507,2.323,2.122
			C116.277,41.083,116.498,41.365,116.517,41.808z"/>
		<path class="st3" d="M95.099,60.055c-0.233,3.678-0.458,7.195-0.676,10.713c-0.039,0.634-0.186,1.195-0.975,1.139
			c-0.835-0.059-0.766-0.67-0.729-1.282c0.24-3.949,0.463-7.899,0.685-11.849c0.038-0.673,0.183-1.29,1.031-1.193
			c0.82,0.094,0.722,0.738,0.67,1.335C95.069,59.348,95.099,59.782,95.099,60.055z"/>
		<path class="st3" d="M50.365,65.432c0.596,0.007,0.791,0.462,0.937,0.971c0.44,1.541,1.126,2.952,2.121,4.228
			c1.047,1.342,2.346,2.346,3.873,3.08c0.582,0.28,1.195,0.591,0.85,1.364c-0.354,0.794-1.023,0.532-1.585,0.255
			c-3.629-1.782-5.964-4.627-6.992-8.509C49.352,66.001,49.679,65.475,50.365,65.432z"/>
		<path class="st3" d="M65.368,79.453c-0.407,0.015-0.664-0.1-0.824-0.37c-0.199-0.337-0.212-0.705,0.021-1.016
			c0.168-0.224,0.407-0.409,0.646-0.563c2.338-1.509,4.275-3.426,5.902-5.662c0.106-0.146,0.215-0.29,0.329-0.429
			c0.405-0.491,0.911-0.627,1.429-0.244c0.49,0.362,0.301,0.839,0.026,1.249c-1.355,2.018-3.013,3.766-4.908,5.292
			c-0.646,0.52-1.334,0.989-2.017,1.462C65.77,79.312,65.52,79.384,65.368,79.453z"/>
		<path class="st3" d="M71.399,12.882c-0.061-1.345,0.184-2.729,0.448-4.109c0.118-0.614,0.29-1.299,1.148-1.105
			c0.752,0.17,0.731,0.802,0.607,1.401c-0.593,2.867-0.558,5.721,0.161,8.563c0.152,0.599,0.22,1.217-0.542,1.408
			c-0.737,0.184-1.038-0.346-1.186-0.959C71.626,16.396,71.349,14.693,71.399,12.882z"/>
		<path class="st3" d="M36.007,39.598c-0.047,0.472-0.366,0.832-0.631,1.215c-1.054,1.527-2.477,2.616-4.153,3.394
			c-0.503,0.234-1.024,0.311-1.311-0.284c-0.264-0.549-0.005-1.023,0.501-1.264c1.654-0.79,2.929-1.978,3.931-3.485
			c0.269-0.405,0.671-0.545,1.143-0.352C35.819,38.957,35.997,39.213,36.007,39.598z"/>
		<path class="st3" d="M41.573,28.29c0.028,1.539-0.494,2.882-1.505,4.042c-0.386,0.443-0.839,0.759-1.398,0.306
			c-0.543-0.439-0.405-0.958-0.011-1.419c0.918-1.074,1.313-2.286,1.115-3.694c-0.084-0.596-0.052-1.24,0.74-1.309
			c0.828-0.072,0.992,0.568,1.055,1.213C41.596,27.713,41.573,28.003,41.573,28.29z"/>
		<path class="st3" d="M9.901,84.127c-0.111,0.614-0.555,0.967-1.147,0.677c-1.601-0.786-3.258-1.345-5.019-1.637
			c-0.43-0.071-0.662-0.436-0.616-0.889c0.055-0.534,0.431-0.723,0.915-0.706c1.96,0.067,3.753,0.677,5.413,1.692
			C9.737,83.44,9.9,83.72,9.901,84.127z"/>
		<path class="st3" d="M33.675,32.95c-0.667-0.251-1.288-0.117-1.816,0.557c-0.29,0.371-0.771,0.423-1.174,0.096
			c-0.358-0.29-0.418-0.719-0.18-1.077c0.54-0.81,1.107-1.607,1.731-2.354c0.336-0.402,1.151-0.468,1.192-0.046
			c0.107,1.096,2.04,1.08,1.414,2.455C34.653,32.997,34.182,32.968,33.675,32.95z"/>
		<path class="st3" d="M71.585,45.583c-0.019,0.387-0.168,0.699-0.533,0.875c-0.342,0.165-0.664,0.061-0.898-0.184
			c-1.109-1.163-1.975-2.489-2.58-3.972c-0.17-0.416,0.008-0.783,0.386-1.025c0.351-0.224,0.757-0.216,0.982,0.115
			c0.892,1.31,1.738,2.65,2.597,3.982C71.574,45.429,71.57,45.512,71.585,45.583z"/>
		<path class="st3" d="M3.984,83.79c1.343,0.19,2.525,0.613,3.44,1.577c0.433,0.456,0.682,0.997,0.157,1.527
			c-0.516,0.521-1.015,0.212-1.414-0.203c-0.631-0.655-1.409-0.98-2.28-1.176c-0.57-0.128-0.871-0.534-0.753-1.126
			C3.226,83.928,3.589,83.773,3.984,83.79z"/>
		<path class="st3" d="M40.035,55.538c0.011,0.699-0.688,1.175-1.263,0.775c-0.862-0.598-1.544-1.415-2.124-2.277
			c-0.35-0.52,0.148-1.216,0.765-1.205C37.99,52.842,40.025,54.943,40.035,55.538z"/>
		<path class="st3" d="M74.165,36.614c-0.611-0.058-1.183-0.129-1.713-0.369c-0.4-0.181-0.627-0.492-0.524-0.943
			c0.111-0.49,0.454-0.717,0.953-0.671c0.464,0.043,0.923,0.145,1.387,0.175c0.615,0.041,1.243,0.133,1.213,0.893
			C75.45,36.501,74.761,36.563,74.165,36.614z"/>
		<path class="st3" d="M35.135,36.466c1.267,0.075,2.148,0.641,2.048,1.338c-0.081,0.563-0.475,0.879-0.998,0.715
			c-0.764-0.239-1.906-0.002-2.041-1.202C34.079,36.734,34.512,36.415,35.135,36.466z"/>
		<path class="st3" d="M76.634,26.078c0.011,0.543-0.228,0.956-0.849,0.998c-0.585,0.04-0.831-0.346-0.898-0.871
			c-0.05-0.392-0.116-0.784-0.134-1.178c-0.022-0.491,0.216-0.848,0.714-0.938c0.517-0.094,0.839,0.209,0.962,0.67
			C76.54,25.173,76.565,25.61,76.634,26.078z"/>
		<path class="st3" d="M69.287,27.413c0.011,0.543-0.228,0.956-0.849,0.998c-0.585,0.04-0.831-0.346-0.898-0.871
			c-0.05-0.392-0.116-0.784-0.134-1.178c-0.022-0.491,0.216-0.848,0.714-0.938c0.517-0.094,0.839,0.209,0.962,0.67
			C69.192,26.508,69.218,26.945,69.287,27.413z"/>
		<path class="st3" d="M26.757,40.538c-0.595-0.096-1.448,0.014-1.458-0.961c-0.008-0.749,0.621-0.894,1.241-0.849
			c0.696,0.05,1.459,0.142,1.457,1.064C27.996,40.524,27.391,40.565,26.757,40.538z"/>
	</g>
</g>
<path class="st0" d="M122.629,61.136c0.076-1.959,0.235-3.937,0.832-5.804c0.634-1.984,1.74-3.78,2.907-5.504
	c2.866-4.236,6.165-8.179,9.829-11.748c7.61,13.535,12.822,28.415,15.32,43.741c-4.363,0.759-8.772,1.262-13.194,1.507
	c-2.842,0.158-9.861,1.459-12.323-0.154C121.52,80.239,122.445,65.87,122.629,61.136z"/>
</svg>
