<?xml version="1.0" encoding="utf-8"?>
<!-- Generator: Adobe Illustrator 26.0.3, SVG Export Plug-In . SVG Version: 6.00 Build 0)  -->
<svg version="1.1" id="レイヤー_1" xmlns="http://www.w3.org/2000/svg" xmlns:xlink="http://www.w3.org/1999/xlink" x="0px"
	 y="0px" width="127.385px" height="109.497px" viewBox="0 0 127.385 109.497" style="enable-background:new 0 0 127.385 109.497;"
	 xml:space="preserve">
<style type="text/css">
	.st0{fill:#ADE2D5;}
	.st1{fill:#AB8976;}
	.st2{fill:#8D968E;}
	.st3{fill:#1E396A;}
</style>
<path class="st0" d="M102.354,49.929c1.473,2.403,2.945,4.807,4.418,7.21c4.807-1.393,8.288-6.385,13.287-6.63
	c-6.341,10.598-9.601,23.016-9.284,35.362c-0.022-0.844-8.949-6.349-10.108-7.405c-2.79-2.541-6.092-5.542-7.786-8.977
	C89.412,62.454,97.809,54.437,102.354,49.929z"/>
<path class="st1" d="M122.435,18.377c-0.593-0.679-1.59-0.975-2.458-0.73c-0.436,0.123-0.849,0.372-1.302,0.365
	c-0.866-0.014-1.421-0.913-1.734-1.721c-0.313-0.808-0.647-1.744-1.457-2.052c-0.448-0.17-1.005-0.125-1.341-0.468
	c-0.256-0.262-0.291-0.663-0.298-1.029c-0.083-3.87,1.482-7.251,5.083-3.625c1.223,1.232,2.175,2.751,2.78,4.376
	C122.083,14.502,121.934,17.804,122.435,18.377z"/>
<path class="st1" d="M27.375,6.964c3.852,0.77,7.689,2.919,9.283,6.51c0.222,0.499,0.399,1.041,0.332,1.583
	c-0.059,0.469-0.296,0.895-0.547,1.295c-2.872,4.573-8.364,7.363-13.751,6.985c-1.124-0.079-2.254-0.29-3.27-0.777
	c-1.009-0.484-1.875-1.225-2.866-1.745c-2.335-1.224-5.332-1.068-7.527,0.393c-1.304,0.868-2.463,2.202-4.028,2.269
	c-1.706,0.074-3.208-1.455-3.88-2.867c4.315-2.636,6.381-7.246,10.507-10.135C16.143,7.313,21.934,5.877,27.375,6.964z"/>
<path class="st2" d="M81.99,77.538c0.499-0.201,1.011-0.404,1.549-0.422c1.723-0.057,2.888,1.694,3.627,3.251
	c0.971,2.045,1.83,4.144,2.57,6.284c-5.941,2.917-11.64,6.328-17.017,10.187c0.457-2.737-0.656-5.549-2.376-7.727
	c-1.556-1.971-4.029-3.206-5.475-5.114c1.619-1.174,5.013-1.591,6.959-2.374C75.215,80.262,78.602,78.9,81.99,77.538z"/>
<g>
	<g>
		<path class="st3" d="M58.835,86.011c-0.528,0.048-1.186,0.335-1.337-0.498c-0.136-0.75,0.499-0.908,1.023-1.078
			c7.455-2.427,14.975,3.491,14.443,11.343c-0.058,0.857-0.451,1.197-1.26,1.101c-0.995-0.118-0.623-0.847-0.572-1.491
			c-3.267,0.163-6.432,0.729-9.578,1.418c-6.283,1.377-12.118,3.911-17.802,6.854c-4.531,2.346-9.116,4.584-14.219,5.433
			c-3.814,0.634-7.599,0.596-11.312-0.644c-7.963-2.659-11.272-8.621-9.206-16.733c1.296-5.091,3.378-9.898,5.496-14.688
			c0.2-0.453,0.443-0.842,1.008-0.574c0.638,0.303,0.509,0.813,0.278,1.328c-1.55,3.447-2.992,6.937-4.202,10.519
			c-0.733,2.169-1.414,4.343-1.664,6.64c-0.461,4.245,1.154,7.538,4.565,9.957c4.126,2.926,8.778,3.602,13.693,2.932
			c4.567-0.623,8.728-2.428,12.816-4.436c4.79-2.353,9.516-4.852,14.617-6.508c0.057-0.019,0.099-0.086,0.164-0.144
			c-0.454-0.243-0.947-0.196-1.42-0.237c-0.581-0.05-0.925-0.324-0.864-0.928c0.057-0.572,0.503-0.594,0.94-0.546
			c4.65,0.503,9.208,0.012,13.687-1.279c0.811-0.234,1.485,0.364,2.315,0.233c0.835-0.132,1.005-0.324,0.812-1.16
			c-1.235-5.329-6.55-8.551-11.812-7.1c-0.223,0.062-0.424,0.202-0.636,0.305L58.835,86.011z"/>
		<path class="st3" d="M65.835,47.771c0,6.735,0,13.47-0.001,20.205c0,0.312,0.015,0.63-0.038,0.934
			c-0.072,0.409-0.379,0.548-0.772,0.531c-0.361-0.015-0.604-0.198-0.649-0.55c-0.044-0.342-0.029-0.693-0.029-1.039
			c-0.001-13.123-0.011-26.245,0.022-39.368c0.002-0.877-0.236-1.207-1.093-1.316c-1.201-0.153-2.388-0.429-3.577-0.673
			c-0.646-0.133-0.94,0.002-0.924,0.759c0.045,2.151,0.016,4.304,0.016,6.457c0,10.45,0,20.899,0,31.349
			c0,0.243,0.013,0.487-0.003,0.729c-0.036,0.555,0.187,1.324-0.734,1.308c-0.867-0.016-0.76-0.75-0.76-1.327
			c-0.005-13.192-0.005-26.384-0.002-39.576c0-1.356,0.285-1.587,1.631-1.337c1.875,0.348,3.739,0.764,5.624,1.039
			c1.006,0.147,1.312,0.579,1.307,1.569C65.819,34.232,65.835,41.002,65.835,47.771z"/>
		<path class="st3" d="M45.505,71.469c0,2.13,0.015,4.031-0.01,5.931c-0.006,0.49,0.362,0.442,0.617,0.526
			c1.317,0.43,2.649,0.816,3.963,1.255c1.194,0.399,2.288,0.998,3.25,1.819c0.949,0.809,1.616,1.801,1.923,3.021
			c0.127,0.506,0.035,0.912-0.522,1.061c-0.525,0.141-0.766-0.172-0.885-0.63c-0.47-1.814-1.774-2.837-3.392-3.548
			c-1.562-0.685-3.231-1.038-4.851-1.543c-5.657-1.763-8.593-7.681-6.406-12.885c2.587-6.159,10.62-7.726,15.436-3.02
			c0.414,0.404,0.683,0.965,1.502,0.875c0.61-0.067,0.789,0.82,0.263,1.347c-0.782,0.782-1.757,1.153-2.847,0.942
			c-0.597-0.115-0.731,0.043-0.719,0.587c0.021,0.972,0.01,1.944-0.003,2.916c-0.007,0.52-0.108,1.009-0.783,0.991
			c-0.679-0.018-0.711-0.524-0.734-1.036c-0.083-1.777-0.087-1.778-1.789-1.157c-1.034,0.378-2.068,0.758-3.246,1.191
			c1.457,0.942,2.791,1.806,4.127,2.666c2.916,1.879,5.834,3.756,8.751,5.633c0.204,0.131,0.416,0.252,0.608,0.4
			c0.397,0.307,0.449,0.716,0.179,1.102c-0.26,0.372-0.637,0.361-1.012,0.119c-0.67-0.433-1.345-0.859-2.016-1.291
			c-3.5-2.253-7-4.507-10.501-6.759C46.205,71.856,45.992,71.748,45.505,71.469z M54.241,65.159
			c-2.339-2.458-4.989-3.583-8.169-2.807c-3.254,0.794-5.261,2.991-6.008,6.235c-0.665,2.886,0.761,6.319,3.169,7.963
			c0.218,0.149,0.438,0.454,0.72,0.311c0.292-0.148,0.13-0.501,0.132-0.757c0.014-1.942,0.028-3.885-0.003-5.826
			c-0.011-0.698,0.253-1.079,0.912-1.305c1.637-0.562,3.242-1.222,4.89-1.746c1.003-0.319,1.575-0.73,1.461-1.933
			c-0.089-0.934,0.556-1.189,1.357-0.641C53.107,64.929,53.496,65.205,54.241,65.159z"/>
		<path class="st3" d="M20.536,69.509c-1.025-0.264-1.917-0.599-2.67-1.224c-0.373-0.309-0.698-0.661-0.354-1.143
			c0.367-0.514,0.826-0.383,1.26-0.038c1.409,1.12,2.922,1.245,4.445,0.315c1.637-1,2.013-2.573,1.686-4.351
			c-0.163-0.886-0.13-1.497,1.023-1.239c0.16,0.036,0.26,0.01,0.309-0.16c0.063-0.217,0.038-0.427-0.119-0.581
			c-0.404-0.396-0.899-0.649-1.427-0.834c-3.367-1.178-6.55-0.793-9.546,1.142c-0.175,0.113-0.338,0.243-0.512,0.357
			c-0.43,0.282-0.878,0.318-1.197-0.119c-0.361-0.495-0.02-0.828,0.379-1.108c3.4-2.387,7.093-3.084,11.053-1.748
			c0.947,0.32,1.322,0.044,1.669-0.726c0.774-1.718,0.3-3.856-1.112-4.901c-1.445-1.07-3.694-0.906-5.09,0.377
			c-0.178,0.164-0.35,0.341-0.493,0.535c-0.323,0.44-0.709,0.73-1.222,0.348c-0.624-0.465-0.207-0.923,0.107-1.332
			c1.584-2.061,4.773-2.712,7.053-1.451c2.246,1.242,3.198,4.118,2.217,6.708c-0.086,0.226-0.16,0.472-0.304,0.658
			c-0.434,0.562-0.531,1.025-0.07,1.703c0.558,0.82,0.275,1.794-0.586,2.36c-0.433,0.285-0.605,0.549-0.595,1.062
			c0.043,2.213-0.914,3.863-2.879,4.913c-0.151,0.08-0.322,0.159-0.425,0.286c-1.903,2.357-4.339,2.643-7.026,1.744
			c-1.156-0.387-1.156,0.727-1.644,1.158c-0.459,0.406,0.1,0.728,0.394,0.977c0.986,0.835,2.303,0.879,3.47,0.102
			c0.49-0.327,0.992-0.703,1.417-0.042c0.432,0.672-0.184,0.997-0.636,1.303c-1.627,1.099-3.879,1.033-5.311-0.285
			c-0.611-0.563-0.826-0.343-1.255,0.135C9.263,78.063,5.63,81.328,1.6,84.142c-0.28,0.196-0.536,0.461-0.909,0.468
			c-0.323,0.007-0.502-0.209-0.619-0.476c-0.191-0.435,0.028-0.728,0.358-0.977c1.274-0.96,2.571-1.892,3.819-2.887
			c3.569-2.846,6.734-6.099,9.571-9.67c0.199-0.25,0.695-0.495,0.236-0.933c-0.406-0.386-0.433-0.825-0.034-1.177
			c0.491-0.432,0.864-0.057,1.245,0.288c1.412,1.28,3.047,1.553,4.842,0.994C20.232,69.735,20.336,69.635,20.536,69.509z"/>
		<path class="st3" d="M59.791,46.225c0-5.239-0.002-10.478,0.001-15.717c0.001-1.505,0.269-1.701,1.74-1.31
			c1.774,0.472,1.774,0.472,1.774,2.274c0,10.235-0.003,20.47,0.006,30.705c0.001,0.852-0.154,1.594-0.991,2.007
			c-0.621,0.306-1.227,0.212-1.765-0.187c-0.689-0.51-0.767-1.27-0.767-2.056C59.792,56.703,59.791,51.464,59.791,46.225z
			 M61.532,62.894c0.487-0.405,0.304-0.892,0.305-1.317c0.011-9.86,0.008-19.721,0.008-29.581c0-0.243,0.005-0.486-0.006-0.729
			c-0.007-0.164,0.021-0.378-0.21-0.41c-0.295-0.04-0.318,0.193-0.33,0.401c-0.012,0.208-0.007,0.416-0.007,0.625
			c0,9.965-0.002,19.929,0.007,29.894C61.299,62.135,61.151,62.542,61.532,62.894z"/>
		<path class="st3" d="M37.229,21.722c-0.856,0.493-1.673,0.999-2.522,1.445c-4.679,2.454-9.644,3.393-14.895,2.737
			c-0.816-0.102-1.639-0.354-1.82,0.894c-0.068,0.467-0.498,0.674-0.97,0.507c-0.483-0.171-0.545-0.543-0.411-1.015
			c0.515-1.809,0.03-2.847-1.632-3.561c-3.085-1.325-7.207,1.484-7.092,4.833c0.094,2.721,2.616,4.188,5.003,2.896
			c0.426-0.23,0.837-0.481,1.156,0.065c0.299,0.512,0.067,0.914-0.4,1.228c-0.846,0.569-1.794,0.804-2.773,0.659
			c-0.639-0.095-0.95,0.146-1.273,0.605c-0.758,1.077-1.549,2.131-2.324,3.196c-0.342,0.47-0.728,0.951-1.357,0.549
			c-0.712-0.456-0.248-0.952,0.083-1.397c0.765-1.03,1.538-2.055,2.309-3.081c0.205-0.273,0.464-0.49,0.002-0.82
			c-2.259-1.617-2.635-5.303-0.553-7.829c1.655-2.007,3.847-2.886,6.459-2.627c1.724,0.171,3.015,1.032,3.759,2.584
			c0.261,0.545,0.642,0.681,1.121,0.747c7.686,1.066,14.413-0.949,20.118-6.26c0.448-0.417,0.917-1.289,1.599-0.62
			c0.784,0.769-0.107,1.344-0.629,1.746c-0.994,0.764-1.436,1.61-1.473,2.936c-0.061,2.181-1.37,3.716-3.291,4.706
			c-0.41,0.211-0.873,0.395-1.134-0.211c-0.219-0.508-0.006-0.873,0.469-1.097c1.087-0.514,1.839-1.341,2.29-2.446
			C37.216,22.676,37.381,22.253,37.229,21.722z"/>
		<path class="st3" d="M111.759,14.416c0.087-0.614,0.165-1.053,0.729-1.114c0.595-0.065,0.769,0.387,0.966,0.782
			c0.722,1.444,1.178,2.97,1.164,4.592c-0.006,0.688,0.24,0.925,0.899,0.909c0.994-0.025,1.976,0.115,2.916-0.464
			c0.619-0.381,1.418-0.417,2.124-0.164c0.757,0.271,0.943-0.089,1.095-0.716c0.429-1.768,0.376-3.506-0.23-5.221
			c-0.167-0.471-0.4-0.968,0.258-1.222c0.664-0.256,0.953,0.21,1.137,0.733c0.788,2.236,0.818,4.494,0.048,6.73
			c-0.193,0.562-0.135,0.913,0.201,1.391c1.931,2.745,0.499,6.586-2.713,7.372c-1.042,0.255-1.995,0.074-2.842-0.592
			c-0.363-0.286-0.571-0.637-0.232-1.068c0.306-0.389,0.666-0.391,1.101-0.15c1.205,0.667,1.986,0.552,2.979-0.383
			c1.074-1.011,1.413-2.453,0.871-3.699c-0.484-1.113-1.572-1.804-2.726-1.702c-1.035,0.091-1.738,0.667-2.111,1.611
			c-0.217,0.548-0.401,1.135-1.137,0.837c-0.663-0.268-0.452-0.83-0.27-1.337c0.044-0.123,0.044-0.263,0.069-0.43
			c-0.848-0.105-1.689-0.355-1.842,0.923c-0.054,0.451-0.474,0.593-0.892,0.467c-0.497-0.15-0.566-0.532-0.457-0.999
			c0.41-1.753,0.429-3.497-0.126-5.233c-0.139-0.436-0.165-0.736-0.784-0.395c-0.566,0.312-1.041-0.216-1.424-0.608
			c-0.919-0.94-1.075-2.167-1.073-3.385c0.004-2.917,0.294-5.814,0.841-8.682c0.096-0.501,0.221-1.015,0.905-0.842
			c0.623,0.158,0.616,0.647,0.52,1.169c-0.414,2.253-0.628,4.531-0.805,6.812C110.812,11.711,110.695,13.088,111.759,14.416z"/>
		<path class="st3" d="M41.644,15.219c0.053,0.577-0.01,0.912-0.445,1.004c-0.428,0.09-0.821-0.067-0.92-0.484
			c-1.362-5.701-6.01-7.621-10.82-9.043C20.79,4.133,11.742,7.278,6.146,14.463c-0.373,0.478-0.709,1.392-1.503,0.805
			c-0.872-0.644-0.007-1.232,0.363-1.72C12.52,3.653,26.781,1.39,36.966,8.472c2.228,1.55,3.922,3.513,4.569,6.233
			C41.591,14.94,41.635,15.178,41.644,15.219z"/>
		<path class="st3" d="M70.003,47.597c0,6.733,0,13.467,0,20.2c0,0.278,0,0.555-0.007,0.833c-0.01,0.42-0.254,0.644-0.649,0.665
			c-0.439,0.023-0.734-0.196-0.785-0.651c-0.031-0.275-0.019-0.554-0.019-0.832c-0.001-13.536-0.001-27.072-0.001-40.608
			c0-0.069,0-0.139,0-0.208c0.001-0.561-0.063-1.226,0.735-1.234c0.818-0.008,0.726,0.661,0.726,1.22
			C70.003,33.853,70.003,40.725,70.003,47.597z"/>
		<path class="st3" d="M124.605,40.18c-0.012,0.342-0.24,0.563-0.444,0.799c-7.532,8.707-15.063,17.415-22.599,26.119
			c-0.35,0.404-0.712,1.02-1.341,0.45c-0.572-0.518-0.156-0.991,0.223-1.428c7.126-8.233,14.25-16.468,21.374-24.702
			c0.499-0.577,0.996-1.156,1.499-1.73c0.222-0.253,0.495-0.398,0.83-0.251C124.458,39.575,124.624,39.827,124.605,40.18z"/>
		<path class="st3" d="M12.985,48.259c-1.918-2.975-4.342-5.464-7.152-7.585c-0.553-0.418-1.118-0.823-1.695-1.207
			c-0.498-0.33-0.63-0.757-0.304-1.234c0.311-0.455,0.722-0.275,1.095-0.027c3.95,2.629,7.251,5.909,9.868,9.869
			c0.505,0.764,0.361,1.043-0.656,1.475c0.515,0.614,1.02,1.228,1.539,1.831c0.376,0.437,0.443,0.909-0.006,1.28
			c-0.451,0.373-0.81,0.08-1.129-0.316c-3.311-4.108-7.402-7.175-12.298-9.155c-0.546-0.221-0.981-0.533-0.737-1.148
			c0.276-0.696,0.837-0.407,1.325-0.21C6.608,43.35,9.954,45.538,12.985,48.259z"/>
		<path class="st3" d="M90.696,86.278c-0.029,0.381-0.056,0.761-0.089,1.142c-0.027,0.3-0.167,0.58-0.454,0.641
			c-2.829,0.608-5.059,2.457-7.597,3.665c-2.096,0.997-4.111,2.163-6.163,3.252c-0.508,0.269-1.061,0.556-1.413-0.163
			c-0.332-0.679,0.241-0.9,0.706-1.147c3.858-2.05,7.706-4.122,11.584-6.134c0.649-0.337,1.103-0.913,1.784-1.193
			c0.321-0.132,0.268-0.534,0.248-0.845c-0.233-3.546-1.732-6.386-4.719-8.375c-0.499-0.332-1.006-0.659-0.572-1.303
			c0.401-0.595,0.912-0.272,1.361,0.028C89.087,78.33,90.741,81.869,90.696,86.278z"/>
		<path class="st3" d="M86.445,68.978c-0.309-0.401-0.118-0.796,0.034-1.177c2.478-6.184,5.477-12.059,10.048-17.011
			c1.269-1.375,2.038-3.147,3.451-4.421c0.812-0.732,1.683-1.32,2.738-1.643c0.552-0.169,0.998-0.115,1.175,0.469
			c0.169,0.556-0.191,0.796-0.698,0.936c-1.257,0.349-2.251,1.144-2.977,2.17c-1.807,2.553-3.954,4.836-5.755,7.39
			c-2.714,3.85-4.782,8.04-6.499,12.411c-0.249,0.635-0.527,1.135-1.306,1.084C86.586,69.117,86.515,69.047,86.445,68.978z"/>
		<path class="st3" d="M101.895,48.383c0.687-0.022,0.978,0.628,0.63,1.401c-0.953,2.12-1.853,4.26-2.643,6.446
			c-1.881,5.202-3.194,10.547-4.04,16.01c-0.084,0.545,0.07,1.347-0.872,1.19c-0.855-0.142-0.654-0.874-0.569-1.431
			c0.728-4.809,1.823-9.533,3.36-14.151c0.987-2.963,2.126-5.866,3.44-8.7C101.361,48.803,101.479,48.421,101.895,48.383z"/>
		<path class="st3" d="M106.229,0.002c1.225-0.023,2.418,0.198,3.605,0.458c0.508,0.111,0.962,0.328,0.808,0.976
			c-0.159,0.667-0.66,0.598-1.161,0.466c-6.85-1.806-14.145,2.296-16.134,9.288c-0.144,0.506-0.331,0.972-0.974,0.787
			c-0.706-0.203-0.596-0.757-0.43-1.277c1.721-5.389,5.335-8.799,10.786-10.261c0.7-0.188,1.43-0.271,2.151-0.366
			C105.325,0.013,105.779,0.023,106.229,0.002z"/>
		<path class="st3" d="M112.213,59.854c-0.311-0.02-0.509-0.188-0.621-0.471c-0.169-0.427,0.059-0.727,0.316-1.024
			c1.562-1.81,3.121-3.623,4.683-5.434c3.033-3.516,6.067-7.032,9.101-10.547c0.136-0.157,0.269-0.317,0.411-0.469
			c0.308-0.328,0.667-0.386,1.009-0.088c0.333,0.291,0.352,0.693,0.108,1.034c-0.321,0.449-0.706,0.854-1.068,1.274
			c-4.346,5.038-8.692,10.077-13.041,15.112C112.869,59.521,112.679,59.894,112.213,59.854z"/>
		<path class="st3" d="M33.455,93.946c0.55-0.31,1.077-0.622,1.619-0.907c0.412-0.217,0.835-0.218,1.087,0.228
			c0.275,0.488,0.068,0.843-0.41,1.096c-0.704,0.371-1.419,0.734-1.951,1.354c-0.674,0.787-0.825,1.813-0.299,2.366
			c0.687,0.723,1.468,0.471,2.188,0.063c0.842-0.477,1.633-1.044,2.472-1.528c0.353-0.204,0.764-0.32,1.161-0.429
			c0.383-0.105,0.709,0.054,0.833,0.429c0.128,0.388,0.08,0.775-0.389,0.933c-1.296,0.437-2.363,1.297-3.563,1.91
			c-1.554,0.794-2.652,0.775-3.571-0.071c-0.952-0.876-1.196-2.177-0.578-3.64c0.188-0.445,0.099-0.771-0.032-1.169
			c-0.692-2.098,0.371-4.494,2.364-5.401c0.445-0.203,0.891-0.358,1.15,0.2c0.223,0.481,0.003,0.823-0.457,1.106
			C33.516,91.445,33.113,92.32,33.455,93.946z"/>
		<path class="st3" d="M78.511,75.728c-0.023,0.67-0.519,0.805-0.968,0.985c-4.66,1.871-9.32,3.742-13.981,5.612
			c-1.093,0.439-2.186,0.877-3.28,1.313c-0.485,0.193-1.042,0.493-1.3-0.241c-0.224-0.636,0.232-0.921,0.768-1.134
			c3.99-1.589,7.975-3.19,11.961-4.79c1.865-0.749,3.732-1.496,5.591-2.258C77.929,74.959,78.386,74.984,78.511,75.728z"/>
		<path class="st3" d="M42.917,80.676c0.495,0.022,1.168,0.443,1.722,1.038c1.321,1.419,2.612,2.867,3.918,4.3
			c0.344,0.378,0.499,0.797,0.095,1.189c-0.468,0.455-0.875,0.182-1.236-0.217c-1.209-1.334-2.404-2.683-3.645-3.987
			c-0.479-0.504-0.982-1.199-1.843-0.646c-0.697,0.448-0.887,1.448-0.445,2.34c0.688,1.385,1.871,2.183,3.291,2.683
			c0.326,0.115,0.661,0.216,0.966,0.373c0.376,0.193,0.391,0.553,0.277,0.904c-0.11,0.341-0.387,0.484-0.736,0.432
			c-2.656-0.395-5.072-2.584-5.473-4.773C39.467,82.44,40.86,80.609,42.917,80.676z"/>
		<path class="st3" d="M20.979,44.626c-2.125-0.021-3.712-0.339-5.232-0.984c-0.474-0.201-1.094-0.343-0.815-1.064
			c0.288-0.743,0.859-0.503,1.396-0.291c4.209,1.665,8.017,0.956,11.436-1.961c0.824-0.703,1.473-1.566,2.013-2.504
			c0.288-0.5,0.575-1.067,1.259-0.64c0.676,0.423,0.296,0.976,0.007,1.445C28.628,42.551,25.066,44.466,20.979,44.626z"/>
		<path class="st3" d="M106.709,41.166c0.816,1.421,1.549,2.709,2.293,3.99c0.27,0.465,0.587,0.949-0.037,1.345
			c-0.708,0.449-0.982-0.141-1.263-0.623c-0.751-1.286-1.521-2.563-2.229-3.872c-0.321-0.594-0.66-1.033-1.408-0.96
			c-0.164,0.016-0.338-0.062-0.507-0.099c-0.472-0.106-0.753-0.366-0.639-0.883c0.114-0.516,0.488-0.623,0.954-0.544
			c1.097,0.187,2.188,0.287,3.305,0.1c1.612-0.27,3.049-0.9,4.312-1.924c0.45-0.365,0.925-0.797,1.424-0.218
			c0.588,0.683-0.09,1.05-0.53,1.405C110.78,40.176,108.935,40.906,106.709,41.166z"/>
		<path class="st3" d="M98.896,79.338c0-1.803,0.003-3.606-0.002-5.409c-0.001-0.455,0.152-0.961-0.539-1.143
			c-0.327-0.086-0.394-0.475-0.327-0.797c0.072-0.342,0.311-0.541,0.677-0.518c0.796,0.05,1.592,0.102,2.386,0.175
			c0.41,0.037,0.6,0.304,0.611,0.708c0.011,0.414-0.183,0.707-0.597,0.69c-0.743-0.031-0.708,0.439-0.718,0.947
			c-0.06,3.26-0.13,6.52-0.2,9.781c-0.01,0.485-0.037,0.97-0.058,1.455c-0.023,0.525-0.242,0.877-0.822,0.84
			c-0.565-0.037-0.619-0.453-0.619-0.9c0.002-1.943,0.001-3.887,0.001-5.83C98.758,79.338,98.827,79.338,98.896,79.338z"/>
		<path class="st3" d="M86.445,68.978c0.071,0.069,0.141,0.139,0.212,0.208c1.835,1.175,3.666,2.355,5.506,3.522
			c0.481,0.305,1.047,0.593,0.718,1.277c-0.3,0.622-0.867,0.374-1.378,0.258c-1.317-0.301-2.639-0.582-3.96-0.865
			c-0.477-0.102-1.056-0.146-1.035-0.792c0.023-0.686,0.562-0.787,1.217-0.872c-0.94-0.591-1.88-1.181-2.819-1.772
			c-0.264-0.166-0.533-0.326-0.788-0.505c-0.406-0.284-0.508-0.647-0.223-1.074c0.267-0.4,0.623-0.368,1.006-0.185
			C85.424,68.427,85.819,68.925,86.445,68.978z"/>
		<path class="st3" d="M94.657,29.574c0.008-0.415,0.104-0.778,0.605-0.809c0.439-0.027,0.737,0.185,0.813,0.631
			c0.187,1.093,0.325,2.195,0.547,3.28c0.534,2.607,1.519,4.916,4.208,6.028c0.478,0.198,0.585,0.594,0.419,1.029
			c-0.202,0.53-0.646,0.442-1.052,0.285c-1.44-0.556-2.554-1.516-3.377-2.813C95.341,34.878,94.982,32.231,94.657,29.574z"/>
		<path class="st3" d="M91.995,15.587c0.138-0.358,0.252-0.718,0.412-1.056c0.218-0.457,0.614-0.543,1.051-0.373
			c0.406,0.157,0.443,0.506,0.31,0.866c-0.615,1.658-0.59,3.314-0.017,4.976c0.155,0.45,0.093,0.846-0.422,0.998
			c-0.484,0.143-0.819-0.108-0.976-0.547c-0.28-0.783-0.509-1.59-0.489-2.428c0.013-0.536-0.123-0.833-0.645-1.111
			c-1.688-0.898-2.148-3.113-1.048-4.654c0.265-0.372,0.573-0.657,1.033-0.381c0.468,0.281,0.465,0.692,0.232,1.165
			C90.792,14.352,90.897,14.798,91.995,15.587z"/>
		<path class="st3" d="M58.807,86.03c0.836,0.166,1.645-0.095,2.466-0.162c0.456-0.037,0.963-0.108,1.03,0.543
			c0.062,0.609-0.313,0.859-0.875,0.924c-3.37,0.394-6.739,0.794-10.109,1.192c-0.478,0.057-0.855-0.082-0.893-0.612
			c-0.035-0.482,0.24-0.784,0.728-0.844c1.684-0.205,3.372-0.376,5.051-0.613c0.878-0.124,1.796-0.036,2.629-0.446
			C58.835,86.011,58.807,86.03,58.807,86.03z"/>
		<path class="st3" d="M119.157,29.752c0-0.286-0.008-0.494,0.002-0.702c0.02-0.412,0.256-0.646,0.653-0.669
			c0.44-0.025,0.782,0.2,0.792,0.646c0.074,3.281,1.221,6.404,1.397,9.668c0.002,0.035,0.003,0.069,0.003,0.104
			c-0.003,0.512-0.039,1.011-0.725,1.036c-0.629,0.023-0.728-0.44-0.754-0.909c-0.09-1.633-0.373-3.234-0.704-4.833
			C119.521,32.633,119.241,31.168,119.157,29.752z"/>
		<path class="st3" d="M82.887,70.886c0.339-0.002,0.538,0.205,0.757,0.371c2.185,1.65,4.369,3.301,6.554,4.952
			c0.47,0.355,0.924,0.766,0.439,1.366c-0.475,0.588-0.929,0.125-1.337-0.183c-2.186-1.649-4.365-3.307-6.551-4.955
			c-0.365-0.275-0.587-0.595-0.44-1.062C82.4,71.087,82.618,70.925,82.887,70.886z"/>
		<path class="st3" d="M67.315,24.782c-2.552-0.186-4.997-0.375-7.444-0.537c-0.568-0.038-1.114-0.127-1.083-0.81
			c0.033-0.711,0.598-0.699,1.16-0.656c2.446,0.187,4.893,0.355,7.34,0.521c0.603,0.041,1.293,0.031,1.223,0.878
			C68.443,25.007,67.728,24.754,67.315,24.782z"/>
		<path class="st3" d="M110.623,52.285c0.011,0.414-0.176,0.592-0.446,0.72c-0.378,0.179-0.697,0.041-0.925-0.24
			c-0.435-0.537-0.83-1.107-1.239-1.664c-1.126-1.533-2.249-3.069-3.378-4.6c-0.298-0.404-0.47-0.826,0.035-1.159
			c0.442-0.291,0.853-0.143,1.166,0.284c1.513,2.065,3.031,4.126,4.54,6.193C110.495,51.981,110.567,52.177,110.623,52.285z"/>
		<path class="st3" d="M46.535,98.379c-1.261-0.003-2.269-0.216-3.243-0.604c-0.431-0.172-0.756-0.431-0.538-0.935
			c0.189-0.436,0.57-0.599,1.032-0.423c2.277,0.867,4.401,0.605,6.386-0.82c0.4-0.287,0.806-0.187,1.096,0.196
			c0.345,0.454,0.064,0.771-0.3,1.035C49.583,97.829,48.035,98.347,46.535,98.379z"/>
		<path class="st3" d="M102.343,35.119c-0.819-0.025-1.922-0.285-2.934-0.878c-0.455-0.266-0.827-0.578-0.487-1.159
			c0.304-0.52,0.721-0.41,1.164-0.171c1.993,1.071,3.921,0.998,5.757-0.367c0.444-0.33,0.902-0.47,1.285-0.002
			c0.435,0.532,0.021,0.884-0.384,1.191C105.545,34.641,104.189,35.105,102.343,35.119z"/>
		<path class="st3" d="M32.722,29.932c-0.241-0.031-0.485-0.044-0.721-0.097c-1.14-0.257-2.077-0.106-2.655,1.085
			c-0.256,0.528-0.775,0.746-1.303,0.327c-0.497-0.395-0.176-0.803,0.103-1.17c0.672-0.884,1.35-1.763,2.026-2.644
			c0.263-0.342,0.607-0.468,1.01-0.316c0.371,0.14,0.573,0.434,0.412,0.823c-0.158,0.382,0.051,0.386,0.315,0.414
			c0.345,0.036,0.686,0.107,1.031,0.139c0.523,0.049,0.893,0.266,0.806,0.845C33.659,29.911,33.22,30.001,32.722,29.932z"/>
		<path class="st3" d="M12.88,62.306c-0.124,0.203-0.237,0.416-0.375,0.61c-1.063,1.493-2.137,2.979-3.195,4.476
			c-0.362,0.512-0.798,0.852-1.373,0.408c-0.555-0.429-0.133-0.856,0.147-1.248c1.088-1.518,2.179-3.034,3.262-4.555
			c0.279-0.391,0.629-0.521,1.08-0.359C12.727,61.746,12.815,62.002,12.88,62.306z"/>
		<path class="st3" d="M36.49,85.934c0.811,0.05,1.662,0.167,2.463,0.526c0.378,0.169,0.683,0.402,0.511,0.866
			c-0.163,0.441-0.517,0.7-0.98,0.506c-1.548-0.647-3.018-0.52-4.46,0.312c-0.416,0.24-0.827,0.154-1.047-0.307
			c-0.219-0.46,0.008-0.786,0.41-1.03C34.325,86.237,35.352,85.985,36.49,85.934z"/>
		<path class="st3" d="M20.517,35.212c0.704-0.054,0.916,0.255,1.084,0.617c0.559,1.199,1.486,1.988,2.728,2.401
			c0.54,0.18,0.878,0.462,0.656,1.061c-0.209,0.564-0.655,0.506-1.124,0.351c-1.713-0.566-2.916-1.699-3.659-3.322
			C19.946,35.76,20.025,35.299,20.517,35.212z"/>
		<path class="st3" d="M70.938,81.083c1.832,0.309,3.286,1.202,4.298,2.78c0.243,0.379,0.231,0.727-0.133,1.004
			c-0.401,0.304-0.812,0.243-1.08-0.163c-0.808-1.223-1.915-1.944-3.359-2.205c-0.484-0.088-0.633-0.51-0.53-0.968
			C70.228,81.109,70.554,81.023,70.938,81.083z"/>
		<path class="st3" d="M34.61,35.16c-0.011,1.185-1.106,2.115-2.316,1.988c-0.388-0.041-0.69-0.168-0.72-0.592
			c-0.028-0.381,0.142-0.678,0.532-0.793c0.404-0.119,1.026-0.004,0.97-0.67c-0.049-0.58-0.591-0.45-0.99-0.485
			c-0.413-0.036-0.624-0.294-0.642-0.685c-0.021-0.46,0.272-0.678,0.686-0.774C33.344,32.867,34.622,33.902,34.61,35.16z"/>
		<path class="st3" d="M38.89,90.971c-0.006-0.923,0.238-1.774,0.723-2.56c0.299-0.485,0.71-0.695,1.217-0.385
			c0.459,0.281,0.344,0.698,0.102,1.088c-0.67,1.081-0.736,2.203-0.24,3.37c0.215,0.506,0.063,0.904-0.451,1.083
			c-0.507,0.177-0.75-0.161-0.933-0.581C39.028,92.341,38.881,91.673,38.89,90.971z"/>
		<path class="st3" d="M111.984,33.928c0.002,0.216-0.062,0.628-0.606,0.696c-0.571,0.071-0.838-0.27-0.875-0.785
			c-0.088-1.218-0.631-2.17-1.605-2.887c-0.433-0.319-0.569-0.735-0.228-1.156c0.365-0.451,0.809-0.258,1.193,0.031
			C111.153,30.796,111.857,32.09,111.984,33.928z"/>
		<path class="st3" d="M65.661,72.596c-0.476,0.003-0.738-0.145-0.851-0.474c-0.109-0.319-0.058-0.644,0.244-0.827
			c1.059-0.642,2.125-1.275,3.207-1.877c0.276-0.153,0.612-0.121,0.833,0.184c0.2,0.276,0.297,0.658,0.055,0.86
			C68.062,71.366,66.782,71.96,65.661,72.596z"/>
		<path class="st3" d="M100.626,30.276c-1.307-0.003-2.396-0.946-2.519-2.103c-0.043-0.403-0.03-0.786,0.468-0.891
			c0.427-0.089,0.802,0.07,0.91,0.487c0.267,1.035,0.847,1.24,1.775,0.816c0.418-0.191,0.741,0.006,0.928,0.404
			c0.177,0.377,0.011,0.673-0.283,0.904C101.505,30.206,101.036,30.299,100.626,30.276z"/>
		<path class="st3" d="M20.394,57.377c-1.039-0.235-2.08-0.461-3.115-0.71c-0.405-0.097-0.541-0.401-0.468-0.795
			c0.083-0.449,0.398-0.677,0.818-0.608c1.121,0.184,2.236,0.408,3.348,0.643c0.467,0.099,0.565,0.479,0.49,0.888
			C21.353,57.423,20.856,57.339,20.394,57.377z"/>
		<path class="st3" d="M100.156,70.514c-0.45-0.024-0.903-0.028-1.35-0.078c-0.421-0.047-0.584-0.367-0.577-0.741
			c0.008-0.452,0.277-0.709,0.735-0.692c0.796,0.03,1.591,0.086,2.385,0.135c0.461,0.028,0.705,0.298,0.695,0.741
			c-0.01,0.455-0.296,0.689-0.747,0.687c-0.381-0.002-0.761-0.031-1.141-0.047C100.156,70.516,100.156,70.515,100.156,70.514z"/>
		<path class="st3" d="M103.549,21.017c0.353,0.068,0.796,0.151,1.238,0.239c0.441,0.088,0.672,0.358,0.625,0.809
			c-0.056,0.539-0.444,0.67-0.901,0.626c-0.413-0.04-0.821-0.136-1.23-0.211c-0.484-0.089-0.877-0.277-0.827-0.868
			C102.511,20.96,102.992,20.997,103.549,21.017z"/>
		<path class="st3" d="M97.53,21.568c0.674-0.021,1.084,0.61,0.744,1.08c-0.38,0.526-0.907,0.938-1.481,1.256
			c-0.26,0.144-0.531,0.088-0.759-0.126c-0.229-0.215-0.319-0.521-0.179-0.751C96.273,22.343,96.899,21.877,97.53,21.568z"/>
	</g>
</g>
</svg>
