<?xml version="1.0" encoding="utf-8"?>
<!-- Generator: Adobe Illustrator 26.0.3, SVG Export Plug-In . SVG Version: 6.00 Build 0)  -->
<svg version="1.1" id="レイヤー_1" xmlns="http://www.w3.org/2000/svg" xmlns:xlink="http://www.w3.org/1999/xlink" x="0px"
	 y="0px" width="166.68px" height="161.891px" viewBox="0 0 166.68 161.891" style="enable-background:new 0 0 166.68 161.891;"
	 xml:space="preserve">
<style type="text/css">
	.st0{fill:#8D968E;}
	.st1{fill:#ADE2D5;}
	.st2{fill:#9DDDD3;}
	.st3{fill:#1E396A;}
</style>
<path class="st0" d="M64.182,129.941c10.65-8.263,20.823-15.525,32.314-22.572c4.236-2.598,8.194-7.536,12.479-10.051
	c19.268-11.311,38.028-23.531,55.474-37.461c0.067,3.597,0.133,7.193,0.2,10.79c0.006,0.347,0.009,0.711-0.156,1.016
	c-0.194,0.359-0.58,0.564-0.94,0.757c-6.58,3.526-12.756,8.575-18.766,13.01c-7.088,5.231-14.341,10.232-21.668,15.121
	c-14.67,9.787-29.33,21.218-43.968,31.053c-14.157,9.511-28.336,17.408-41.173,28.659c0.917-0.804-1.584-10.154-1.411-11.917
	c0.335-3.406,3.42-4.068,6.115-5.602C49.964,138.599,57.579,135.064,64.182,129.941z"/>
<path class="st0" d="M134.389,50.08c6.2-0.176,12.441-0.109,18.547,0.981c1.198,0.214,2.467,0.508,3.309,1.388
	c0.841,0.88,0.963,2.536-0.061,3.193c-0.621,0.399-1.424,0.313-2.156,0.219c-7.55-0.97-15.093-1.247-22.686-0.841
	c-1.743,0.093-10.42,1.39-8.084-1.894C125.334,50.206,131.283,50.169,134.389,50.08z"/>
<path class="st0" d="M99.884,93.048c2.513-0.118,4.947-0.52,7.084-1.548c0.571-0.275,1.189-0.688,1.246-1.32
	c0.062-0.691-0.581-1.229-1.196-1.549c-2.473-1.29-5.408-1.204-8.195-1.087C92.712,87.8,86.6,88.056,80.489,88.312
	c-3.932,0.165-8.265,0.498-11.036,3.293c6.565,1.044,13.225,1.182,19.86,1.195C92.583,92.807,96.314,93.215,99.884,93.048z"/>
<path class="st0" d="M49.612,124.426c1.011,0.068,2.11,0.184,2.84,0.886c1.386,1.333,0.375,3.882-1.353,4.725
	s-3.762,0.555-5.678,0.393c-5.375-0.454-10.735,0.266-16.102,0.447c-3.023,0.102-8.01,0.828-5.956-3.623
	c1.783-3.864,7.231-3.015,10.688-3.119C39.239,123.979,44.434,124.076,49.612,124.426z"/>
<path class="st1" d="M42.481,32.63c-0.561,1.476-0.222,3.175,0.547,4.554s1.926,2.494,3.088,3.563
	c1.119,1.029,2.439,2.102,3.955,1.988c0.45-0.034,0.889-0.174,1.34-0.176c0.968-0.004,1.82,0.62,2.526,1.283
	c1.131,1.061,2.119,2.338,2.534,3.832c0.369,1.327,0.264,2.734,0.17,4.108c-0.443,6.439-0.605,12.898-0.486,19.351
	c0.006,0.311,0.008,0.64-0.148,0.908c-0.231,0.399-0.73,0.542-1.183,0.626c-3.479,0.645-7.044-0.119-10.578-0.298
	c-3.378-0.171-7.049,0.12-9.832-1.802c-2.424-1.674-3.584-4.712-3.808-7.649c-0.224-2.937,0.343-5.868,0.668-8.795
	c0.03-0.267,0.054-0.551-0.065-0.792c-0.132-0.264-0.407-0.418-0.66-0.57c-2.57-1.546-4.134-4.486-4.386-7.474
	s0.701-5.996,2.278-8.547c1.577-2.551,3.749-4.685,6.068-6.587c1.956-1.604,4.576-4.44,7.341-3.697
	c1.16,0.312,3.506,0.992,3.271,2.29C44.873,30.115,42.995,31.275,42.481,32.63z"/>
<path class="st2" d="M106.176,44.51c-2.347,3.895-5.89,6.897-9.368,9.826c-1.257,1.059-2.701,0.824-3.957-0.234
	c-0.843-0.71-0.978-1.826-0.393-2.75c0.756-1.193,2.536-1.75,3.741-2.358c1.569-0.791,3.155-1.549,4.757-2.272
	c0.876-0.396,1.757-0.781,2.643-1.156C104.111,45.35,105.913,44.946,106.176,44.51z"/>
<path class="st2" d="M39.062,87.105c1.351-0.542,3.061-1.026,4.122-0.029c0.118,0.111,0.226,0.245,0.249,0.406
	c0.042,0.296-0.211,0.544-0.442,0.735c-2.365,1.953-4.836,3.777-7.4,5.461c-1.489,0.978-3.16,2.595-4.517,0.678
	C27.853,89.803,36.43,88.16,39.062,87.105z"/>
<g>
	<g>
		<path class="st3" d="M40.941,86.324c-5.819-1.28-10.776,0.389-15.551,2.965c-1.242,0.67-2.463,1.38-3.701,2.058
			c-0.531,0.291-1.058,0.306-1.423-0.258c-0.359-0.555-0.199-1.071,0.336-1.392c5.119-3.079,10.338-5.919,16.55-5.887
			c2.159,0.011,4.292,0.414,6.404,0.863c0.911,0.194,1.673,0.039,2.455-0.504c10.911-7.585,21.834-15.15,32.768-22.701
			c0.622-0.43,0.861-0.913,0.851-1.651c-0.032-2.284-0.007-4.568-0.012-6.852c-0.002-0.755,0.072-1.519,1.042-1.506
			c0.878,0.012,1.014,0.762,1.016,1.449c0.014,6.313,0.016,12.625,0.002,18.938c-0.002,0.727-0.122,1.54-1.089,1.495
			c-0.958-0.045-0.969-0.858-0.969-1.589c-0.001-2.409-0.016-4.818,0.005-7.226c0.007-0.834-0.174-1.097-0.961-0.546
			c-3.948,2.76-7.907,5.504-11.874,8.236c-0.477,0.329-0.659,0.666-0.497,1.244c1.551,5.555,3.088,11.114,4.624,16.674
			c0.168,0.608,0.453,0.845,1.16,0.769c9.988-1.074,19.965-0.921,29.92,0.406c0.721,0.096,1.964-0.076,1.783,1.179
			c-0.175,1.212-1.298,0.936-2.137,0.82c-6.094-0.842-12.222-1.253-18.365-1.117c-4.057,0.089-8.128,0.258-12.154,0.866
			c-1.194,0.18-1.649-0.416-1.925-1.422c-1.494-5.442-3.008-10.879-4.512-16.319c-0.377-1.363-0.379-1.374-1.535-0.572
			c-4.676,3.24-9.349,6.484-14.016,9.738c-0.292,0.204-0.82,0.322-0.768,0.727c0.063,0.486,0.61,0.293,0.942,0.355
			c1.427,0.263,2.864,0.473,4.293,0.729c0.553,0.099,1.234,0.066,1.439,0.765c0.228,0.779-0.301,1.217-0.85,1.639
			c-4.281,3.289-8.546,6.598-12.842,9.867c-0.687,0.523-1.042,1.071-1.037,1.964c0.03,5.69,0.038,11.38-0.005,17.069
			c-0.009,1.13,0.388,1.249,1.333,0.945c2.839-0.913,5.324-2.504,7.867-3.993c0.701-0.41,1.562-1.324,2.238-0.199
			c0.719,1.196-0.543,1.52-1.27,1.954c-2.174,1.3-4.405,2.485-6.721,3.53c-3.408,1.538-6.814,1.619-10.287,0.327
			c-3.891-1.447-7.78-2.897-11.67-4.347c-0.387-0.144-0.811-0.248-1.058-0.615c-0.252-0.374-0.256-0.789-0.03-1.177
			c0.218-0.375,0.583-0.458,0.975-0.362c0.361,0.088,0.714,0.217,1.064,0.345c4.172,1.521,8.315,3.127,12.523,4.54
			c2.937,0.986,2.977,0.869,2.977-2.138c0-5.233-0.021-10.466,0.019-15.699c0.007-0.936-0.275-1.462-1.183-1.732
			c-2.347-0.697-4.682-1.433-7.016-2.173c-0.475-0.151-0.778-0.145-0.934,0.423c-0.125,0.454-0.502,0.66-0.972,0.571
			c-0.497-0.093-0.878-0.403-0.859-0.92c0.033-0.882-0.506-1.107-1.204-1.292c-0.882-0.233-1.752-0.518-2.613-0.819
			c-0.604-0.211-1.04-0.606-0.784-1.318c0.245-0.683,0.86-0.876,1.425-0.575c2.398,1.277,4.133,0.567,6.213-1.11
			c2.695-2.173,6.19-3.153,9.289-4.749C39.993,86.825,40.352,86.633,40.941,86.324z M51.361,87.981
			c-1.913-0.305-3.718-0.537-5.496-0.899c-0.874-0.178-1.606-0.049-2.387,0.327c-3.213,1.551-6.447,3.059-9.669,4.592
			c-1.048,0.499-2.117,0.967-3.021,1.721c-0.251,0.209-0.637,0.376-0.612,0.735c0.029,0.418,0.493,0.385,0.782,0.475
			c2.493,0.782,5.003,1.513,7.487,2.323c0.698,0.228,1.171,0.036,1.699-0.369c3.356-2.581,6.73-5.138,10.087-7.717
			C50.612,88.874,51.112,88.685,51.361,87.981z"/>
		<path class="st3" d="M37.963,161.891c-0.499-0.003-0.762-0.175-0.947-0.484c-0.216-0.362-0.221-0.739,0.055-1.041
			c0.276-0.302,0.609-0.56,0.947-0.795c16.009-11.093,32.023-22.18,48.033-33.271c25.978-17.997,51.955-35.997,77.933-53.994
			c0.375-0.26,0.757-0.512,1.146-0.751c0.492-0.302,0.966-0.282,1.318,0.207c0.376,0.522,0.283,1.026-0.208,1.43
			c-0.352,0.29-0.73,0.549-1.105,0.809c-24.275,16.809-48.552,33.615-72.826,50.425c-17.582,12.176-35.16,24.36-52.742,36.536
			C39.026,161.336,38.51,161.77,37.963,161.891z"/>
		<path class="st3" d="M37.923,143.459c-0.513-0.002-0.769-0.177-0.94-0.5c-0.199-0.374-0.174-0.75,0.1-1.043
			c0.28-0.298,0.62-0.547,0.959-0.782c28.027-19.415,56.056-38.826,84.085-58.237c13.895-9.623,27.79-19.246,41.686-28.866
			c0.477-0.33,0.967-0.645,1.469-0.936c0.408-0.237,0.811-0.177,1.12,0.192c0.33,0.395,0.388,0.858,0.054,1.255
			c-0.262,0.31-0.613,0.555-0.952,0.789c-23.896,16.553-47.795,33.101-71.693,49.652c-18.094,12.531-36.186,25.065-54.284,37.59
			C38.989,142.944,38.49,143.419,37.923,143.459z"/>
		<path class="st3" d="M101.852,45.88c-3.01-0.594-5.939-0.525-8.853,0.311c-2.733,0.784-5.251,2.052-7.725,3.417
			c-0.727,0.401-1.447,0.815-2.161,1.238c-0.626,0.371-1.262,0.59-1.73-0.167c-0.485-0.785,0.057-1.223,0.673-1.583
			c2.51-1.466,5.072-2.823,7.755-3.96c4.788-2.027,9.667-1.947,14.655-0.947c3.372,0.675,6.786,1.138,10.181,1.7
			c0.645,0.107,1.424,0.077,1.619,0.891c0.189,0.788-0.462,1.172-0.987,1.577c-4.307,3.319-8.604,6.652-12.936,9.938
			c-0.672,0.51-0.938,1.048-0.934,1.875c0.026,5.688,0.039,11.376-0.008,17.063c-0.01,1.143,0.402,1.23,1.328,0.941
			c2.565-0.8,4.842-2.163,7.12-3.532c0.605-0.363,1.199-0.751,1.831-1.059c0.506-0.246,0.981-0.112,1.281,0.404
			c0.304,0.522,0.158,0.979-0.299,1.308c-0.436,0.314-0.919,0.564-1.383,0.839c-2.359,1.4-4.778,2.675-7.333,3.689
			c-2.778,1.103-5.601,1.217-8.401,0.234c-4.306-1.511-8.574-3.131-12.856-4.71c-0.674-0.249-1.251-0.643-0.976-1.466
			c0.298-0.89,1.012-0.688,1.661-0.448c3.814,1.41,7.621,2.84,11.438,4.24c1.168,0.428,2.359,0.779,3.605,0.94
			c0.652,0.084,0.917-0.083,0.916-0.759c-0.012-6.02-0.012-12.04-0.006-18.059c0.001-0.592-0.283-0.918-0.823-1.086
			c-2.416-0.753-4.832-1.502-7.241-2.277c-0.521-0.168-0.756,0.036-0.963,0.471c-0.197,0.415-0.564,0.608-1.028,0.517
			c-0.449-0.088-0.823-0.39-0.828-0.82c-0.012-1.043-0.707-1.285-1.505-1.499c-0.761-0.204-1.515-0.437-2.263-0.685
			c-0.612-0.203-1.038-0.582-0.843-1.298c0.198-0.726,0.754-0.827,1.383-0.651c1.158,0.325,2.331,1.003,3.457,0.926
			c1.145-0.078,1.707-1.531,2.762-2.13c3.038-1.724,6.258-3.07,9.372-4.633C101.161,46.454,101.608,46.407,101.852,45.88z
			 M112.839,47.658c-2.106-0.341-3.836-0.548-5.529-0.922c-1.093-0.242-2.014-0.031-2.98,0.435
			c-3.362,1.62-6.744,3.199-10.119,4.794c-0.827,0.391-1.617,0.84-2.329,1.424c-0.73,0.599-0.618,0.947,0.269,1.208
			c2.426,0.714,4.85,1.437,7.257,2.211c0.748,0.24,1.315,0.16,1.94-0.332c2.118-1.668,4.28-3.281,6.421-4.92
			C109.374,50.329,110.972,49.094,112.839,47.658z"/>
		<path class="st3" d="M28.022,72.95c0.393-4.918,0.785-9.836,1.179-14.754c0.103-1.281,0.2-2.563,0.317-3.843
			c0.068-0.745-0.159-1.343-0.635-1.938c-4.644-5.814-4.473-12.644,0.374-18.288c2.631-3.063,5.836-5.405,9.193-7.574
			c0.578-0.374,1.192-0.543,1.627,0.149c0.429,0.682,0.026,1.18-0.547,1.555c-2.817,1.842-5.64,3.673-7.947,6.173
			c-2.575,2.79-4.202,5.964-3.956,9.878c0.19,3.025,1.4,5.543,3.568,7.702c1.554,1.547,3.267,2.639,5.398,3.121
			c1.773,0.401,3.323-0.071,4.603-1.26c3.375-3.138,5.418-7.088,6.779-11.436c0.201-0.642-0.097-0.897-0.616-1.123
			c-1.813-0.789-3.419-1.889-4.718-3.384c-0.504-0.58-0.796-0.297-1.2,0.074c-1.497,1.377-3.013,2.734-4.523,4.096
			c-0.552,0.498-1.163,0.972-1.824,0.252c-0.691-0.753-0.071-1.29,0.468-1.763c2.747-2.411,5.418-4.902,7.99-7.5
			c0.262-0.265,0.523-0.547,0.912-0.622c0.441-0.085,0.832,0.013,1.094,0.406c0.231,0.348,0.216,0.713-0.025,1.048
			c-0.144,0.201-0.326,0.376-0.498,0.555c-1.599,1.664-1.607,1.672,0.198,3.18c1.059,0.884,2.24,1.563,3.535,2.058
			c0.646,0.247,0.973,0.073,1.261-0.543c0.833-1.783,0.856-1.772-0.848-2.814c-0.643-0.393-1.2-0.887-1.7-1.449
			c-0.416-0.468-0.676-0.976-0.274-1.569c0.392-0.578,0.927-0.393,1.456-0.219c1.853,0.609,3.716,0.86,5.607,0.146
			c0.51-0.193,0.995-0.422,1.389-0.807c0.763-0.748,0.68-1.614-0.223-2.169c-0.503-0.309-1.064-0.472-1.661-0.447
			c-1.059,0.045-1.972-0.038-2.724-1.044c-0.606-0.811-1.514-0.407-2.226,0.121c-0.723,0.537-1.103,1.335-1.517,2.104
			c-0.271,0.503-0.686,0.746-1.238,0.527c-0.606-0.241-0.727-0.744-0.576-1.338c0.553-2.183,2.919-3.923,5.11-3.772
			c0.468,0.032,0.968,0.085,1.286,0.399c0.865,0.856,1.954,0.961,3.064,1.155c1.571,0.275,2.774,1.088,3.209,2.741
			c0.427,1.624-0.443,2.696-1.576,3.641c-0.284,0.237-0.611,0.546-0.943,0.58c-2.083,0.213-2.615,1.712-3.18,3.401
			c-0.507,1.516-0.736,3.248-2.315,4.259c-0.332,0.212-0.367,0.896-0.527,1.367c-1.335,3.936-3.179,7.573-6.158,10.551
			c-3.2,3.198-6.994,3.628-10.845,1.219c-1.149-0.718-1.124-0.716-1.234,0.657c-0.467,5.827-0.952,11.652-1.426,17.479
			c-0.046,0.565-0.135,1.114-0.792,1.254c-0.555,0.118-1.023-0.069-1.101-0.696c-0.061-0.49-0.012-0.994-0.012-1.491
			C28.044,72.951,28.033,72.951,28.022,72.95z"/>
		<path class="st3" d="M20.451,102.863c-0.001,3.115,0,6.229-0.001,9.344c0,0.73,0.007,1.544-0.997,1.526
			c-0.947-0.017-1.048-0.827-1.061-1.548c-0.031-1.785-0.029-3.571-0.015-5.357c0.007-0.8-0.269-0.851-0.86-0.423
			c-1.21,0.877-2.425,1.749-3.662,2.587c-0.568,0.385-0.721,0.836-0.539,1.487c1.554,5.55,3.1,11.102,4.628,16.66
			c0.201,0.73,0.502,0.927,1.319,0.844c6.902-0.695,13.814-0.83,20.746-0.414c2.94,0.176,5.863,0.463,8.779,0.834
			c0.783,0.1,2.148-0.2,2.001,1.211c-0.141,1.359-1.388,0.942-2.21,0.836c-4.114-0.528-8.239-0.798-12.382-1.004
			c-6.07-0.302-12.087,0.128-18.102,0.789c-1.084,0.119-1.566-0.337-1.843-1.355c-1.525-5.6-3.131-11.179-4.633-16.786
			c-0.315-1.176-0.663-1.129-1.534-0.517c-2.65,1.862-5.349,3.653-8.034,5.464c-0.592,0.4-1.28,0.904-1.837,0.076
			c-0.576-0.856,0.111-1.351,0.76-1.793c5.459-3.713,10.944-7.387,16.312-11.233c0.801-0.574,1.125-1.193,1.104-2.168
			c-0.055-2.574-0.019-5.149-0.017-7.724c0-0.374-0.009-0.75,0.033-1.12c0.076-0.658,0.285-1.287,1.087-1.266
			c0.823,0.022,0.954,0.65,0.953,1.331c-0.003,2.866,0.001,5.731,0.002,8.597C20.451,102.116,20.451,102.49,20.451,102.863z"/>
		<path class="st3" d="M126.605,53.588c5.304-0.651,11.283-0.572,17.256-0.427c3.812,0.092,7.61,0.513,11.39,1.032
			c0.51,0.07,1.117,0.065,1.413,0.635c0.163,0.313,0.127,0.648-0.073,0.946c-0.362,0.538-0.92,0.522-1.458,0.451
			c-2.466-0.326-4.935-0.612-7.419-0.776c-4.635-0.306-9.261-0.567-13.916-0.291c-3.271,0.194-6.542,0.34-9.792,0.758
			c-1.142,0.147-1.555-0.425-1.818-1.386c-1.449-5.281-2.919-10.555-4.388-15.83c-0.449-1.611-0.459-1.61-1.791-0.67
			c-1.968,1.387-3.933,2.777-5.9,4.166c-0.588,0.415-1.214,0.939-1.797,0.067c-0.539-0.807,0.046-1.321,0.648-1.74
			c4.02-2.798,8.045-5.589,12.075-8.373c2.22-1.533,4.453-3.049,6.68-4.571c0.614-0.419,1.276-1.05,1.895-0.098
			c0.582,0.896-0.174,1.369-0.785,1.792c-2.799,1.936-5.578,3.906-8.439,5.747c-1.042,0.67-1.173,1.295-0.84,2.431
			c1.412,4.816,2.718,9.664,4.056,14.502C124.096,53.745,124.089,53.747,126.605,53.588z"/>
		<path class="st3" d="M52.075,0.033c2.045-0.144,4.074,0.19,6.021,1.007c0.926,0.388,1.784,0.898,2.525,1.571
			c1.241,1.127,2.236,2.432,1.892,4.225c-0.336,1.747-1.779,2.397-3.286,2.87c-3.987,1.253-7.997,1.258-12.015,0.145
			c-0.714-0.198-1.442-0.485-1.18-1.419c0.277-0.985,1.079-0.693,1.755-0.522c3.615,0.912,7.216,0.962,10.801-0.147
			c2.226-0.689,2.511-1.963,0.771-3.546c-1.612-1.466-3.611-2.001-5.707-2.185c-3.292-0.29-6.488,0.097-9.299,1.977
			c-2.442,1.634-2.979,3.378-2.117,6.174c0.183,0.594,0.143,1.097-0.435,1.385c-0.654,0.325-1.133-0.011-1.427-0.591
			c-0.98-1.933-0.8-3.86,0.143-5.739c0.955-1.902,2.513-3.169,4.452-3.977C47.219,0.322,49.571-0.1,52.075,0.033z"/>
		<path class="st3" d="M76.709,44.118c-0.867-0.31-1.072,0.382-1.389,0.98c-1.323,2.5-3.443,3.874-6.24,3.797
			c-2.701-0.075-4.71-1.484-5.808-4.013c-1.607-3.7,0.695-8.207,4.615-9.096c0.711-0.161,1.379-0.159,1.631,0.665
			c0.276,0.904-0.406,1.116-1.077,1.329c-2.426,0.768-3.744,2.539-3.643,4.859c0.086,1.968,1.532,3.645,3.553,4.122
			c2.442,0.576,4.961-1.073,5.528-3.619c0.416-1.87,0.592-1.956,2.414-1.243c0.404,0.158,0.923,0.51,1.219-0.023
			c0.299-0.536-0.267-0.794-0.628-1.042c-1.184-0.815-2.534-1.224-3.919-1.523c-0.636-0.137-1.153-0.384-1.009-1.135
			c0.132-0.689,0.651-0.907,1.318-0.822c1.938,0.248,3.675,1.008,5.249,2.134c1.207,0.864,1.624,1.937,1.248,2.972
			C79.35,43.622,78.238,44.235,76.709,44.118z"/>
		<path class="st3" d="M57.68,54.382c0.033-7.175,0.587-14.318,1.298-21.452c0.037-0.368,0.127-0.737,0.242-1.09
			c0.166-0.508,0.565-0.69,1.076-0.634c0.564,0.062,0.793,0.443,0.763,0.952c-0.065,1.116-0.153,2.231-0.268,3.342
			c-0.65,6.269-0.984,12.552-1.063,18.855c-0.023,1.818-0.123,3.642-0.135,5.465c-0.004,0.632-0.113,1.237-0.86,1.278
			c-0.798,0.043-1.049-0.539-1.051-1.241C57.676,58.032,57.68,56.207,57.68,54.382z"/>
		<path class="st3" d="M84.9,105.736c-2.389-0.25-4.775-0.535-7.167-0.744c-5.292-0.463-10.592-0.563-15.898-0.245
			c-0.786,0.047-1.575,0.078-2.362,0.073c-0.561-0.003-0.965-0.278-1.007-0.882c-0.041-0.584,0.293-0.935,0.831-1.079
			c0.277-0.075,0.571-0.102,0.86-0.118c8.257-0.464,16.484-0.153,24.677,0.991c0.675,0.094,1.416,0.215,1.324,1.131
			C86.089,105.541,85.55,105.801,84.9,105.736z"/>
		<path class="st3" d="M141.549,77.288c0.1-1.508,0.38-3.049,1.45-4.321c0.826-0.982,1.86-1.547,3.171-1.319
			c1.331,0.231,2.086,1.128,2.427,2.385c0.334,1.232,0.501,2.507,1.891,3.156c0.494,0.231,0.439,0.919,0.048,1.31
			c-1.025,1.027-2.053,2.125-3.737,1.775c-1.502-0.313-2.413-1.403-2.731-3.173c-0.121-0.673-0.114-1.305,0.671-1.5
			c0.764-0.19,1.13,0.286,1.302,0.986c0.088,0.355,0.21,0.724,0.41,1.024c0.249,0.374,0.625,0.843,1.104,0.549
			c0.531-0.326-0.053-0.71-0.154-1.065c-0.215-0.756-0.441-1.509-0.68-2.257c-0.165-0.519-0.34-1.053-1.003-1.127
			c-0.684-0.076-1.069,0.365-1.396,0.864c-1.036,1.583-0.955,3.965,0.214,5.506c0.449,0.591,0.972,1.178,0.137,1.784
			c-0.769,0.558-1.326-0.016-1.797-0.56C141.904,80.182,141.64,78.802,141.549,77.288z"/>
		<path class="st3" d="M38.988,149.219c-0.084-1.39,0.319-2.73,1.132-3.926c0.799-1.175,1.913-1.875,3.381-1.665
			c1.462,0.21,2.187,1.271,2.542,2.588c0.312,1.16,0.437,2.363,1.808,2.893c0.479,0.185,0.452,0.755,0.218,1.206
			c-0.643,1.239-2.618,2.205-3.901,1.922c-1.524-0.336-2.629-1.728-2.752-3.439c-0.044-0.603,0.06-1.103,0.752-1.206
			c0.62-0.093,1.052,0.173,1.194,0.809c0.157,0.701,0.342,1.377,1.053,1.74c0.236,0.12,0.483,0.177,0.697-0.009
			c0.279-0.243,0.034-0.449-0.096-0.64c-0.532-0.78-0.61-1.706-0.863-2.578c-0.163-0.561-0.371-1.135-1.089-1.203
			c-0.681-0.064-1.066,0.372-1.385,0.881c-0.925,1.476-0.801,4.153,0.304,5.517c0.467,0.576,0.83,1.121,0.127,1.7
			c-0.678,0.558-1.24,0.149-1.713-0.384C39.346,152.247,38.938,150.846,38.988,149.219z"/>
		<path class="st3" d="M109.425,100.668c-0.018,1.488,0.358,2.471,1.094,3.322c0.398,0.46,0.555,0.95,0.064,1.431
			c-0.517,0.507-1.031,0.372-1.545-0.055c-2.559-2.127-2.106-7.897,0.76-9.599c1.747-1.037,3.615-0.431,4.409,1.454
			c0.192,0.456,0.331,0.941,0.434,1.425c0.18,0.844,0.479,1.543,1.333,1.967c0.826,0.41,0.851,1.065,0.208,1.711
			c-0.35,0.352-0.719,0.691-1.113,0.992c-1.079,0.825-2.378,0.898-3.498,0.228c-1.04-0.621-1.915-2.304-1.767-3.384
			c0.07-0.509,0.312-0.861,0.85-0.915c0.582-0.059,0.958,0.234,1.116,0.777c0.173,0.597,0.258,1.232,0.8,1.641
			c0.268,0.203,0.587,0.412,0.898,0.143c0.305-0.264,0.033-0.535-0.116-0.767c-0.511-0.792-0.556-1.73-0.839-2.593
			c-0.172-0.525-0.364-1.039-1.042-1.071c-0.612-0.029-1.019,0.298-1.311,0.793C109.641,99.049,109.444,100.016,109.425,100.668z"/>
		<path class="st3" d="M75.257,124.995c-0.053,1.022,0.244,2.028,1.031,2.863c0.458,0.486,0.627,1.003,0.076,1.515
			c-0.535,0.496-1.051,0.309-1.546-0.117c-2.444-2.101-2.114-7.64,0.567-9.458c1.812-1.229,3.876-0.602,4.675,1.441
			c0.195,0.499,0.319,1.029,0.436,1.553c0.17,0.762,0.482,1.345,1.253,1.722c0.879,0.431,0.908,1.09,0.19,1.773
			c-0.389,0.37-0.789,0.743-1.234,1.04c-1.098,0.733-2.246,0.797-3.388,0.088c-1.061-0.658-1.857-2.323-1.676-3.415
			c0.077-0.464,0.3-0.771,0.78-0.829c0.578-0.069,0.941,0.188,1.112,0.753c0.19,0.629,0.299,1.309,0.913,1.714
			c0.249,0.164,0.539,0.318,0.809,0.13c0.357-0.248,0.076-0.521-0.072-0.745c-0.494-0.751-0.578-1.632-0.82-2.463
			c-0.178-0.612-0.393-1.228-1.174-1.251c-0.724-0.021-1.105,0.472-1.402,1.054C75.419,123.085,75.255,123.856,75.257,124.995z"/>
		<path class="st3" d="M55.341,101.244c0,3.363,0.004,6.727-0.005,10.09c-0.001,0.411-0.014,0.837-0.118,1.23
			c-0.115,0.434-0.465,0.688-0.931,0.686c-0.471-0.003-0.806-0.261-0.898-0.713c-0.09-0.442-0.119-0.904-0.119-1.357
			c-0.007-6.602-0.014-13.205,0.007-19.807c0.003-0.817-0.273-2.013,1-2.041c1.418-0.031,1.043,1.237,1.051,2.071
			C55.361,94.683,55.341,97.964,55.341,101.244z"/>
		<path class="st3" d="M156.768,71.459c0.011,2.498-1.457,4.148-3.551,3.977c-0.283-0.023-0.602-0.059-0.83-0.206
			c-0.738-0.474-1.337-1.227-2.409-0.613c-0.333,0.191-0.714-0.301-0.949-0.659c-0.969-1.48-0.809-4.022,0.349-5.504
			c1.038-1.328,2.822-1.859,4.462-1.329C155.574,67.688,156.759,69.44,156.768,71.459z M150.615,72.412
			c0.161-0.871,0.203-1.415,0.369-1.92c0.194-0.592,0.617-1.036,1.304-0.871c0.708,0.17,0.816,0.738,0.691,1.374
			c-0.071,0.364-0.195,0.722-0.219,1.088c-0.034,0.503-0.015,1.063,0.62,1.185c0.635,0.122,1.017-0.291,1.203-0.841
			c0.379-1.117,0.177-2.135-0.701-2.945c-0.731-0.674-1.579-0.712-2.388-0.155C150.502,70.007,150.198,70.958,150.615,72.412z"/>
		<path class="st3" d="M54.107,143.396c0.011,2.563-1.385,4.191-3.469,4.06c-0.425-0.027-0.856-0.093-1.163-0.37
			c-0.572-0.515-1.029-1.065-1.938-0.485c-0.376,0.24-0.822-0.219-1.096-0.618c-0.969-1.413-0.908-3.861,0.139-5.292
			c1.13-1.543,2.887-2.149,4.588-1.583C53.013,139.721,54.098,141.306,54.107,143.396z M48.086,143.907
			c0.11-0.521,0.151-1.07,0.346-1.557c0.239-0.595,0.74-0.938,1.402-0.675c0.602,0.239,0.714,0.751,0.53,1.347
			c-0.097,0.315-0.217,0.633-0.248,0.957c-0.054,0.564,0.021,1.139,0.691,1.281c0.589,0.126,0.898-0.314,1.133-0.779
			c0.45-0.887,0.188-2.283-0.583-2.983c-0.691-0.628-1.502-0.729-2.306-0.293C47.968,141.795,47.675,142.762,48.086,143.907z"/>
		<path class="st3" d="M88.392,119.11c-0.034,2.333-1.477,3.995-3.43,3.918c-0.362-0.014-0.782-0.062-1.066-0.254
			c-0.699-0.473-1.268-1.112-2.27-0.576c-0.354,0.19-0.73-0.27-0.972-0.625c-1.014-1.484-0.887-4.002,0.281-5.504
			c1.093-1.405,2.897-1.932,4.56-1.332C87.241,115.367,88.42,117.146,88.392,119.11z M82.314,120.035
			c0.037-0.535,0.032-0.984,0.107-1.418c0.136-0.785,0.458-1.562,1.401-1.391c1.042,0.188,0.902,0.999,0.609,1.765
			c-0.044,0.116-0.095,0.233-0.114,0.354c-0.1,0.66-0.054,1.329,0.71,1.502c0.713,0.161,1.056-0.442,1.212-1.002
			c0.316-1.13,0.05-2.168-0.887-2.907c-0.772-0.609-1.634-0.528-2.42,0.038C82.044,117.615,81.816,118.716,82.314,120.035z"/>
		<path class="st3" d="M114.246,95.049c0.008-2.204,1.09-3.741,3.034-4.309c1.69-0.494,3.528,0.219,4.526,1.755
			c1.094,1.684,1.002,4.191-0.206,5.589c-1.096,1.269-2.956,1.387-4.194,0.281c-0.214-0.192-0.322-0.671-0.77-0.382
			c-1.359,0.875-1.722-0.186-2.148-1.104C114.218,96.299,114.241,95.671,114.246,95.049z M116.39,96.025
			c0.199-0.868,0.272-1.494,0.493-2.062c0.211-0.543,0.693-0.857,1.303-0.651c0.613,0.207,0.767,0.707,0.611,1.304
			c-0.083,0.319-0.223,0.624-0.3,0.944c-0.141,0.586,0.009,1.128,0.581,1.346c0.63,0.24,1.049-0.216,1.242-0.738
			c0.401-1.082,0.309-2.123-0.568-2.972c-0.765-0.739-1.672-0.774-2.496-0.203C116.29,93.66,115.964,94.633,116.39,96.025z"/>
		<path class="st3" d="M53.459,21.171c1.495,0.143,2.057-0.445,1.889-1.929c-0.163-1.442-0.391-2.868-0.806-4.266
			c-0.165-0.555-0.411-0.79-0.994-0.895c-1.547-0.279-3.082-0.632-4.611-1.001c-0.724-0.175-1.419-0.53-1.111-1.452
			c0.288-0.86,1.025-0.667,1.682-0.487c2.486,0.681,5.004,1.156,7.593,1.166c0.206,0.001,0.415,0.019,0.619,0.054
			c0.583,0.101,1.057,0.371,1.036,1.03c-0.021,0.635-0.438,1.005-1.064,0.968c-1.105-0.066-1.129,0.473-0.855,1.303
			c0.487,1.476,0.586,3.002,0.504,4.546c-0.168,3.142-3.067,3.53-5.007,2.788c-0.426-0.163-0.647-0.533-0.558-1
			c0.084-0.439,0.345-0.762,0.818-0.818C52.878,21.143,53.17,21.171,53.459,21.171z"/>
		<path class="st3" d="M114.494,60.781c0-3.273,0-6.547,0.001-9.82c0-0.331,0-0.663,0.012-0.994c0.023-0.624,0.308-1.057,0.969-1.05
			c0.669,0.007,0.927,0.458,0.928,1.08c0.005,2.445,0.009,4.889,0.009,7.334c0.001,4.516,0.001,9.033,0,13.549
			c0,0.331-0.002,0.663-0.013,0.994c-0.02,0.578-0.307,0.97-0.894,0.992c-0.659,0.025-0.98-0.4-0.993-1.023
			c-0.024-1.201-0.018-2.403-0.019-3.605C114.492,65.753,114.494,63.267,114.494,60.781z"/>
		<path class="st3" d="M122.106,65.363c5.465,0.183,10.551,0.509,15.606,1.229c0.702,0.1,1.55,0.159,1.382,1.177
			c-0.151,0.915-0.903,0.935-1.662,0.831c-5.305-0.728-10.633-1.148-15.99-1.159c-0.291-0.001-0.582,0.001-0.872-0.014
			c-0.663-0.034-1.147-0.316-1.139-1.041c0.008-0.733,0.531-0.988,1.173-1.016C121.226,65.341,121.85,65.363,122.106,65.363z"/>
		<path class="st3" d="M40.509,18.699c1.727-0.13,1.893,0.047,1.671,1.833c-0.13,1.049,0.076,2.064,0.298,3.075
			c0.147,0.67-0.015,1.185-0.7,1.363c-0.711,0.185-1.208-0.266-1.233-0.889c-0.08-2.023-0.731-3.443-2.709-4.489
			c-1.341-0.709-1.525-2.489-1.043-4.047c0.447-1.446,1.431-2.405,2.892-2.824c1.176-0.337,2.378,0.107,3.076,1.08
			c0.343,0.478,0.516,0.973,0.032,1.451c-0.463,0.457-0.99,0.446-1.43-0.008c-0.566-0.584-1.13-0.851-1.823-0.236
			c-0.781,0.694-1.139,1.537-0.74,2.556C39.094,18.315,39.612,18.814,40.509,18.699z"/>
		<path class="st3" d="M79.95,88.409c-0.913,0-1.826,0-2.739,0c-3.268,0.001-4.899-1.289-5.602-4.478
			c-0.151-0.685-0.182-1.395-0.293-2.09c-0.118-0.742-0.017-1.409,0.859-1.483c0.773-0.065,1.025,0.514,1.119,1.212
			c0.111,0.819,0.25,1.64,0.464,2.437c0.368,1.369,1.214,2.187,2.704,2.352c1.452,0.161,2.891,0.152,4.342,0.049
			c1.157-0.082,2.319-0.109,3.48-0.139c0.636-0.017,1.2,0.159,1.232,0.917c0.034,0.801-0.524,1.101-1.21,1.117
			c-1.451,0.033-2.904,0.01-4.356,0.01C79.949,88.345,79.949,88.377,79.95,88.409z"/>
		<path class="st3" d="M25.482,125.182c-5.248,0.273-7.068-2.226-7.177-6.993c-0.013-0.547,0.138-1.016,0.779-1.068
			c0.635-0.052,1.007,0.271,1.123,0.905c0.178,0.976,0.286,1.976,0.576,2.919c0.457,1.483,1.398,2.166,2.958,2.191
			c2.32,0.037,4.643,0.127,6.958-0.134c0.164-0.019,0.332-0.032,0.496-0.023c0.67,0.036,1.291,0.202,1.3,1.018
			c0.009,0.813-0.579,1.017-1.27,1.028C29.071,125.059,26.914,124.988,25.482,125.182z"/>
		<path class="st3" d="M133.567,50.781c-0.954,0-1.908,0.001-2.862,0c-3.232-0.005-4.782-1.229-5.503-4.402
			c-0.182-0.804-0.261-1.634-0.345-2.457c-0.063-0.611,0.193-1.099,0.843-1.167c0.625-0.066,1.016,0.319,1.129,0.924
			c0.122,0.651,0.176,1.314,0.289,1.966c0.382,2.203,1.494,3.166,3.719,3.221c1.908,0.047,3.813,0.016,5.714-0.185
			c0.451-0.048,0.912-0.027,1.368-0.015c0.654,0.016,1.147,0.246,1.144,1.006c-0.002,0.75-0.506,1.025-1.141,1.039
			c-1.451,0.032-2.903,0.01-4.354,0.01C133.567,50.741,133.567,50.761,133.567,50.781z"/>
		<path class="st3" d="M35.201,79.03c1.395-0.075,2.988,0.152,4.574,0.477c0.681,0.139,1.223,0.432,1.064,1.23
			c-0.155,0.775-0.724,0.89-1.434,0.749c-4.511-0.895-8.881-0.472-13.088,1.433c-0.663,0.3-1.334,0.41-1.676-0.409
			c-0.319-0.764,0.235-1.14,0.835-1.412C28.492,79.73,31.643,78.967,35.201,79.03z"/>
		<path class="st3" d="M57.41,115.128c3.436,0.252,6.732,0.564,10.011,1.041c0.638,0.093,1.172,0.316,1.068,1.077
			c-0.096,0.696-0.624,0.987-1.27,0.9c-3.736-0.501-7.492-0.795-11.247-1.098c-0.616-0.05-1.03-0.362-1-1.028
			c0.034-0.757,0.522-0.949,1.202-0.898C56.627,115.156,57.085,115.128,57.41,115.128z"/>
		<path class="st3" d="M102.625,39.169c-1.057-0.202-2.106-0.482-3.173-0.591c-2.267-0.231-4.471,0.098-6.572,1.01
			c-0.735,0.319-1.498,0.568-1.878-0.41c-0.34-0.877,0.422-1.162,1.021-1.418c3.532-1.506,7.138-1.747,10.81-0.55
			c0.634,0.207,1.172,0.545,0.943,1.346C103.616,39.116,103.186,39.324,102.625,39.169z"/>
		<path class="st3" d="M111.226,78.032c2.934,0.273,6.023,0.513,9.087,0.992c0.667,0.104,1.291,0.291,1.131,1.131
			c-0.142,0.743-0.709,0.916-1.425,0.831c-3.118-0.369-6.231-0.788-9.374-0.904c-0.286-0.011-0.571-0.094-0.854-0.153
			c-0.562-0.118-0.887-0.464-0.85-1.043c0.039-0.604,0.442-0.849,1.015-0.854C110.328,78.03,110.7,78.032,111.226,78.032z"/>
		<path class="st3" d="M35.372,74.538c1.302-0.073,2.563,0.151,3.808,0.505c0.692,0.197,1.32,0.504,1.127,1.349
			c-0.201,0.884-0.88,0.803-1.592,0.628c-1.654-0.407-3.319-0.725-5.038-0.38c-0.315,0.063-0.67,0.035-0.985-0.042
			c-0.444-0.109-0.69-0.445-0.712-0.911c-0.022-0.481,0.218-0.761,0.676-0.912C33.547,74.483,34.464,74.564,35.372,74.538z"/>
		<path class="st3" d="M97.675,33.978c-0.995,0-1.992,0.038-2.985-0.013c-0.655-0.034-1.29-0.282-1.264-1.083
			c0.027-0.813,0.648-0.976,1.334-0.947c1.946,0.081,3.893,0.163,5.838,0.259c0.678,0.034,1.124,0.38,1.062,1.098
			c-0.064,0.732-0.602,0.929-1.253,0.895c-0.91-0.048-1.82-0.107-2.729-0.161C97.676,34.01,97.676,33.994,97.675,33.978z"/>
		<path class="st3" d="M87.228,70.463c0.68-0.014,1.661,1.168,1.662,2.048c0.001,0.642-0.363,0.996-1.003,1.006
			c-1.509,0.023-2.615-0.52-2.631-1.269C85.24,71.537,86.408,70.48,87.228,70.463z"/>
		<path class="st3" d="M26.599,113.927c-0.512-0.364-1.154-0.388-1.811-0.415c-0.349-0.014-0.606-0.32-0.655-0.659
			c-0.14-0.96,0.555-1.4,1.244-1.783c0.647-0.359,1.299-0.345,1.712,0.372c0.381,0.661,0.921,1.334,0.344,2.153
			C27.257,113.845,26.971,113.922,26.599,113.927z"/>
		<path class="st3" d="M47.116,21.898c0.386,0.04,0.696,0.172,0.852,0.494c0.206,0.425,0.479,0.734,0.924,0.943
			c0.504,0.237,0.73,0.703,0.52,1.242c-0.236,0.608-0.766,0.728-1.338,0.561c-1.039-0.302-1.736-0.959-1.874-2.071
			C46.114,22.384,46.429,21.957,47.116,21.898z"/>
	</g>
	<ellipse class="st3" cx="50.536" cy="16.161" rx="1.108" ry="1.441"/>
</g>
<path class="st1" d="M49.543,2.352c2.187-0.311,4.513,0.062,6.356,1.279c0.622,0.411,1.23,1.006,1.242,1.751
	c0.009,0.577-0.357,1.109-0.83,1.439c-0.473,0.33-1.042,0.49-1.603,0.621c-2.874,0.673-5.887,0.75-8.792,0.224
	c-0.631-0.114-1.278-0.257-1.906-0.128c-0.622,0.127-1.154,0.573-1.282,1.205C40.363,4.823,46.671,2.76,49.543,2.352z"/>
</svg>
