<?xml version="1.0" encoding="UTF-8"?> <svg xmlns="http://www.w3.org/2000/svg" id="service26.svg" width="87.281" height="121.5" viewBox="0 0 87.281 121.5"><defs><style> .cls-1 { fill: #55afc0; } .cls-1, .cls-2 { fill-rule: evenodd; } .cls-2 { fill: #173960; } </style></defs><path id="べた塗り_6" data-name="べた塗り 6" class="cls-1" d="M755,4659v14l16-5s-1,15.23,1,15,15-5,15-5l36-23-17,5-1-14-16,5-1-15-15,4-13,8-3,5-7,3-3,1-8,6Z" transform="translate(-737.219 -4597.84)"></path><path id="シェイプ_13" data-name="シェイプ 13" class="cls-2" d="M823.875,4654.53a1.245,1.245,0,0,0-1.373-.05l-0.086.05a1.267,1.267,0,0,0-.881-0.03l-14.344,4.95v-14.03c0-.02-0.006-0.05-0.008-0.07a1.325,1.325,0,0,0-.013-0.14,1.059,1.059,0,0,0-.031-0.12c-0.007-.03-0.009-0.05-0.018-0.08,0-.01-0.011-0.02-0.015-0.03a1.316,1.316,0,0,0-.058-0.12,0.662,0.662,0,0,0-.052-0.1c-0.023-.03-0.048-0.07-0.074-0.1s-0.047-.06-0.074-0.09-0.059-.05-0.09-0.08a0.5,0.5,0,0,0-.087-0.07,0.611,0.611,0,0,0-.112-0.07,0.377,0.377,0,0,0-.092-0.05,0.545,0.545,0,0,0-.122-0.04,0.435,0.435,0,0,0-.105-0.04c-0.039-.01-0.078-0.01-0.118-0.02s-0.084-.01-0.127-0.01h-0.116c-0.043.01-.085,0.01-0.128,0.02l-0.128.03c-0.025.01-.05,0.01-0.074,0.02l-15.2,5.36v-14.35a1.231,1.231,0,0,0-1.233-1.23c-0.064,0-.126.01-0.188,0.01-0.038,0-.077-0.01-0.116-0.01h-0.123a0.436,0.436,0,0,0-.113.01l-0.138.03c-0.026.01-.052,0.01-0.078,0.02l-15.867,5.2a0.024,0.024,0,0,0-.022.01,0.557,0.557,0,0,0-.119.05,0.539,0.539,0,0,0-.11.06,0.024,0.024,0,0,0-.023.01l-11.443,7.24c0.025-2.53.036-6.76,0.036-13.84a1.277,1.277,0,0,0-.028-0.26,2.037,2.037,0,0,0,.028-0.29c0-2.32-3.511-3.35-6.991-3.35s-6.991,1.03-6.991,3.35a1.9,1.9,0,0,0,.029.29,1.279,1.279,0,0,0-.029.26v22.66l-9.041,5.72a5.232,5.232,0,0,0-.575,1.79v25.18c0,0.01,0,.02,0,0.03a1.223,1.223,0,0,0,.583,1.11l48.714,29.82c0.008,0.01.017,0.01,0.026,0.02l0.031,0.02a0.019,0.019,0,0,1,.02.01H786.6l0.051,0.03a1.37,1.37,0,0,0,.2.08c0.016,0,.03.01,0.046,0.01a0.033,0.033,0,0,0,.028.01,1.332,1.332,0,0,0,.285.04h0c0.011,0,.021-0.01.031-0.01a0.988,0.988,0,0,0,.244-0.03h0.038l0.076-.03,0.145-.06a0.32,0.32,0,0,1,.081-0.04,0.03,0.03,0,0,1,.027-0.01l35.8-21.92a1.222,1.222,0,0,0,.836-1.16v-40.5A1.244,1.244,0,0,0,823.875,4654.53Zm-47.728,44.92v10.11l-3.909-2.39v-10.11Zm2.463-.7a1.232,1.232,0,0,0-.02-0.2c0-.01,0-0.02,0-0.03a1.2,1.2,0,0,0-.562-0.81l-6.376-3.91-0.067-.03-0.13-.06-0.108-.03a0.268,0.268,0,0,0-.122-0.03,0.594,0.594,0,0,0-.131-0.02c-0.028,0-.055-0.01-0.084-0.01-0.009,0-.018.01-0.027,0.01a0.579,0.579,0,0,0-.131.01,0.44,0.44,0,0,0-.113.02,0.425,0.425,0,0,0-.108.03,0.5,0.5,0,0,0-.118.04c-0.036.02-.068,0.04-0.1,0.06a0.252,0.252,0,0,0-.1.06c-0.034.02-.063,0.05-0.094,0.07s-0.061.05-.088,0.08-0.049.06-.074,0.09-0.054.07-.077,0.1c0,0.01-.012.02-0.017,0.03a0.426,0.426,0,0,0-.039.08,0.626,0.626,0,0,0-.054.11,1.117,1.117,0,0,0-.039.12,1.1,1.1,0,0,0-.026.11,1.272,1.272,0,0,0-.016.15c0,0.02-.007.05-0.007,0.07V4706l-30.092-18.42v-23.5l13.773-5.23v14.3a0.939,0.939,0,0,0,.015.14,1.271,1.271,0,0,0,.061.59,1.239,1.239,0,0,0,1.157.8,1.27,1.27,0,0,0,.427-0.07l14.808-5.49a1.189,1.189,0,0,0,.372.07h0v13.78c0,0.03.006,0.05,0.007,0.07a1.039,1.039,0,0,0,.043.26c0.007,0.02.009,0.05,0.017,0.07s0.013,0.03.019,0.05,0.022,0.05.034,0.07a0.794,0.794,0,0,0,.069.13l0.04,0.06c0.033,0.05.07,0.09,0.109,0.14,0.01,0.01.019,0.02,0.03,0.03a1.3,1.3,0,0,0,.167.14l0.045,0.03c0.047,0.02.1,0.05,0.145,0.07l0.07,0.03a0.8,0.8,0,0,0,.147.05c0.022,0,.043.01,0.066,0.01a0.859,0.859,0,0,0,.225.03,0.891,0.891,0,0,0,.227-0.03,0.235,0.235,0,0,0,.081-0.02c0.031-.01.062-0.01,0.094-0.02l14.047-4.85v36.63l-7.364-4.51v-12.64A0.08,0.08,0,0,1,778.61,4698.75Zm9.281-47.31c0,0.04.006,0.09,0.013,0.13a0.957,0.957,0,0,0,.031.13c0.007,0.02.009,0.05,0.018,0.08,0,0.01.012,0.02,0.017,0.03,0.01,0.03.022,0.05,0.034,0.08s0.044,0.09.069,0.13c0.013,0.02.026,0.04,0.041,0.06a0.852,0.852,0,0,0,.105.13,0.141,0.141,0,0,1,.034.04,1.227,1.227,0,0,0,.167.13l0.042,0.03a0.907,0.907,0,0,0,.146.08l0.072,0.03c0.047,0.01.094,0.03,0.143,0.04,0.023,0.01.046,0.01,0.07,0.02a1.65,1.65,0,0,0,.223.02,1.755,1.755,0,0,0,.228-0.02,0.252,0.252,0,0,1,.083-0.02l0.1-.03,6.384-2.25-25.087,15.87-14.9,5.52V4657.5l31.964-20.22v14.08C787.883,4651.39,787.889,4651.41,787.891,4651.44Zm0.551,27.05,33.582-20.81v37.69l-33.582,20.55v-37.43Zm-1.029-2.27a1.659,1.659,0,0,0-.308.06l-14.344,4.96v-13.39l31.964-20.23v13.56c0,0.03.006,0.05,0.008,0.08s0.005,0.08.012,0.13,0.019,0.08.031,0.13c0.007,0.02.009,0.04,0.017,0.07a0.205,0.205,0,0,1,.017.04c0.011,0.03.023,0.05,0.036,0.08s0.042,0.08.067,0.12a0.369,0.369,0,0,0,.042.07c0.032,0.04.068,0.09,0.106,0.13a0.159,0.159,0,0,1,.033.04,1.16,1.16,0,0,0,.166.13l0.047,0.03a0.871,0.871,0,0,0,.142.08l0.071,0.03c0.048,0.01.1,0.03,0.146,0.04,0.023,0.01.044,0.01,0.067,0.02a1.68,1.68,0,0,0,.225.02,1.755,1.755,0,0,0,.227-0.02,0.247,0.247,0,0,1,.081-0.02l0.094-.03,7.764-2.68Zm-14.007-34.62,6.282-2.06-26.033,16.47a1.165,1.165,0,0,0-.242.21l-7.793,2.96,2.4-1.52a0.67,0.67,0,0,0,.141.01,1.387,1.387,0,0,0,.285-0.03,24.513,24.513,0,0,0,11.894-6.79,1.219,1.219,0,0,0,.323-0.59,4.808,4.808,0,0,0,.054-0.63Zm-24.11-6.67a14.975,14.975,0,0,0,9.05,0c0,4.93-.011,12.65-0.083,14.51a22.2,22.2,0,0,1-8.967,5.41v-19.92Zm4.525-3.53a2.271,2.271,0,1,1-4.365.88A8.832,8.832,0,0,1,753.821,4631.4Zm-5.3,48.27a0.487,0.487,0,0,0-.01-0.07,1.381,1.381,0,0,0-.06-0.2c0-.01-0.006-0.02-0.01-0.03a1.207,1.207,0,0,0-.491-0.57l-3.649-2.24-0.069-.03-0.127-.06a0.528,0.528,0,0,1-.113-0.04,0.47,0.47,0,0,0-.117-0.02,0.638,0.638,0,0,0-.137-0.02c-0.026,0-.052-0.01-0.079-0.01-0.009,0-.017.01-0.026,0.01a0.619,0.619,0,0,0-.136.01,0.4,0.4,0,0,0-.108.02,0.469,0.469,0,0,0-.114.03,0.476,0.476,0,0,0-.113.04l-0.1.06a0.513,0.513,0,0,0-.1.06c-0.033.02-.062,0.05-0.093,0.07s-0.061.05-.088,0.08-0.048.06-.072,0.09-0.056.07-.08,0.1c0,0.01-.012.02-0.016,0.03s-0.024.05-.037,0.07c-0.02.04-.041,0.08-0.057,0.12s-0.026.08-.037,0.12-0.021.07-.028,0.11-0.011.1-.014,0.14-0.008.05-.008,0.08v5.5c0,0.01,0,.02,0,0.03a1.239,1.239,0,0,0,.016.16c0,0.03.006,0.05,0.011,0.08a1.263,1.263,0,0,0,.06.19l0.009,0.03a1.218,1.218,0,0,0,.491.57l3.649,2.24a0.063,0.063,0,0,0,.041.01,0.684,0.684,0,0,0,.229.1l0.075,0.03a1.417,1.417,0,0,0,.294.04h0a1.314,1.314,0,0,0,.283-0.04,0.19,0.19,0,0,0,.072-0.02,1.287,1.287,0,0,0,.195-0.08,0.28,0.28,0,0,0,.079-0.04,1.259,1.259,0,0,0,.177-0.13c0.017-.01.035-0.03,0.052-0.04a1.145,1.145,0,0,0,.18-0.23s0.01-.01.014-0.01c0.015-.03.023-0.05,0.036-0.08s0.041-.08.058-0.12,0.026-.08.037-0.12,0.021-.07.028-0.11a1.327,1.327,0,0,0,.014-0.14c0-.03.007-0.05,0.007-0.08v-5.5c0-.01,0-0.02,0-0.03A1.086,1.086,0,0,0,748.52,4679.67Zm-3.629.15,1.183,0.73v2.61l-1.183-.72v-2.62Zm11.008,3.71c0-.02,0-0.04-0.009-0.06a1.088,1.088,0,0,0-.063-0.2,0.041,0.041,0,0,0-.007-0.02,1.23,1.23,0,0,0-.491-0.58l-3.65-2.23c-0.021-.02-0.044-0.02-0.066-0.04l-0.131-.06-0.107-.03a0.539,0.539,0,0,0-.123-0.03c-0.044-.01-0.088-0.01-0.132-0.02-0.028,0-.054-0.01-0.082-0.01-0.01,0-.018.01-0.028,0.01-0.045,0-.09.01-0.135,0.01s-0.072.01-.107,0.02l-0.119.03a0.491,0.491,0,0,1-.108.04l-0.113.06c-0.031.02-.063,0.04-0.092,0.06a0.617,0.617,0,0,0-.1.08c-0.027.02-.055,0.05-0.08,0.07s-0.051.06-.076,0.09-0.053.07-.076,0.1c0,0.01-.012.02-0.017,0.03a0.373,0.373,0,0,0-.038.08,0.627,0.627,0,0,0-.055.11,0.915,0.915,0,0,0-.039.13,0.655,0.655,0,0,0-.026.1,1.089,1.089,0,0,0-.015.15c0,0.02-.007.05-0.007,0.07v5.5c0,0.01,0,.02,0,0.03a1.4,1.4,0,0,0,.017.17c0,0.02,0,.04.01,0.07a1.184,1.184,0,0,0,.063.2c0,0.01,0,.01.006,0.02a1.281,1.281,0,0,0,.492.58l3.649,2.23c0.012,0.01.026,0.01,0.039,0.02a1.712,1.712,0,0,0,.231.1,0.2,0.2,0,0,1,.074.02,1.427,1.427,0,0,0,.295.04h0a0.893,0.893,0,0,0,.283-0.04,0.2,0.2,0,0,0,.074-0.02,0.717,0.717,0,0,0,.193-0.08,0.285,0.285,0,0,0,.08-0.04,1.3,1.3,0,0,0,.175-0.13,0.188,0.188,0,0,0,.054-0.04,1.372,1.372,0,0,0,.178-0.22c0-.01.011-0.01,0.016-0.02,0.015-.03.024-0.05,0.038-0.08s0.039-.08.054-0.12a0.931,0.931,0,0,0,.039-0.12c0.01-.04.02-0.07,0.027-0.11a1.27,1.27,0,0,0,.015-0.15c0-.02.007-0.04,0.007-0.07v-5.5a0.08,0.08,0,0,0,0-.02A1.37,1.37,0,0,0,755.9,4683.53Zm-3.629.16,1.183,0.73v2.61l-1.183-.72v-2.62Zm11.772,4.38c0-.02-0.006-0.05-0.011-0.07a1.381,1.381,0,0,0-.06-0.2,0.03,0.03,0,0,0-.009-0.02,1.2,1.2,0,0,0-.491-0.58l-3.649-2.23a0.251,0.251,0,0,0-.07-0.04l-0.127-.06-0.113-.03a0.248,0.248,0,0,0-.116-0.03c-0.046-.01-0.092-0.01-0.139-0.02-0.026,0-.051-0.01-0.078-0.01-0.008,0-.016.01-0.025,0.01a0.665,0.665,0,0,0-.141.01c-0.034.01-.069,0.01-0.1,0.02l-0.121.03a0.477,0.477,0,0,1-.106.04l-0.111.06c-0.032.02-.065,0.04-0.094,0.06a0.6,0.6,0,0,0-.1.08,0.441,0.441,0,0,0-.083.07c-0.027.03-.049,0.06-0.073,0.09s-0.056.07-.079,0.1c-0.006.01-.012,0.02-0.017,0.03s-0.024.05-.037,0.07c-0.02.04-.04,0.08-0.057,0.12s-0.026.08-.037,0.12-0.021.07-.028,0.11-0.011.1-.014,0.15a0.525,0.525,0,0,0-.008.07v5.5c0,0.01,0,.02,0,0.03a0.958,0.958,0,0,0,.017.16c0,0.03,0,.05.01,0.08a1.263,1.263,0,0,0,.06.19c0,0.01.006,0.02,0.01,0.03a1.207,1.207,0,0,0,.491.57l3.649,2.24c0.013,0.01.027,0.01,0.04,0.02a1.685,1.685,0,0,0,.229.1,0.215,0.215,0,0,1,.076.02,1.4,1.4,0,0,0,.293.04h0a0.893,0.893,0,0,0,.283-0.04,0.2,0.2,0,0,0,.073-0.02,0.743,0.743,0,0,0,.2-0.08,0.289,0.289,0,0,0,.078-0.04,1.259,1.259,0,0,0,.177-0.13c0.017-.01.036-0.03,0.052-0.04a1.385,1.385,0,0,0,.18-0.22,0.034,0.034,0,0,1,.014-0.02c0.015-.03.024-0.05,0.037-0.08s0.041-.08.057-0.12,0.026-.08.037-0.12a0.8,0.8,0,0,0,.028-0.11,1.327,1.327,0,0,0,.014-0.14c0-.03.008-0.05,0.008-0.08v-5.5c0-.01,0-0.02,0-0.03A1.239,1.239,0,0,0,764.042,4688.07Zm-3.63.15,1.183,0.73v2.61l-1.183-.72v-2.62ZM817,4686.03c0-.02,0-0.04-0.007-0.07a1.089,1.089,0,0,0-.015-0.15c-0.006-.03-0.017-0.07-0.026-0.1s-0.023-.09-0.039-0.13-0.035-.07-0.055-0.11a0.373,0.373,0,0,0-.038-0.08,0.035,0.035,0,0,0-.017-0.02c-0.023-.04-0.05-0.07-0.076-0.11s-0.049-.06-0.076-0.09-0.055-.05-0.083-0.07a0.638,0.638,0,0,0-.1-0.08l-0.1-.06-0.1-.06a0.6,0.6,0,0,1-.119-0.04l-0.107-.03c-0.038-.01-0.078-0.01-0.117-0.02s-0.083-.01-0.125-0.01h-0.03a0.265,0.265,0,0,0-.088.01,0.515,0.515,0,0,0-.124.01l-0.128.03-0.1.03a0.729,0.729,0,0,0-.132.07,0.2,0.2,0,0,0-.067.03l-3.649,2.23a1.237,1.237,0,0,0-.492.58s0,0.01-.005.01a1.4,1.4,0,0,0-.064.21c0,0.02-.006.04-0.009,0.06a1.372,1.372,0,0,0-.018.18c0,0.01,0,.01,0,0.02v5.51c0,0.02.006,0.04,0.007,0.06a1.442,1.442,0,0,0,.015.16c0.006,0.03.017,0.06,0.026,0.1s0.023,0.08.039,0.13,0.035,0.07.055,0.11,0.022,0.05.038,0.08c0,0.01.011,0.01,0.015,0.02a1.436,1.436,0,0,0,.179.22,0.185,0.185,0,0,0,.053.04,0.769,0.769,0,0,0,.176.13c0.026,0.02.053,0.03,0.08,0.05a1.229,1.229,0,0,0,.193.07l0.074,0.03a1.312,1.312,0,0,0,.283.03h0a1.427,1.427,0,0,0,.295-0.04c0.026-.01.05-0.01,0.075-0.02a1.712,1.712,0,0,0,.231-0.1c0.012-.01.026-0.01,0.039-0.02l3.649-2.23a1.232,1.232,0,0,0,.492-0.58c0-.01,0-0.01.006-0.02a0.954,0.954,0,0,0,.063-0.2,0.5,0.5,0,0,0,.009-0.07,1.081,1.081,0,0,0,.018-0.17c0-.01,0-0.02,0-0.03v-5.5Zm-3.648,2.93,1.183-.72v2.61l-1.183.72v-2.61Zm-4.72,1.48a0.671,0.671,0,0,0-.029-0.11c-0.011-.04-0.021-0.08-0.036-0.12s-0.038-.08-0.059-0.12-0.021-.05-0.035-0.08a0.039,0.039,0,0,1-.016-0.02c-0.025-.04-0.054-0.07-0.083-0.11a0.642,0.642,0,0,1-.068-0.08c-0.029-.03-0.062-0.05-0.094-0.08a0.466,0.466,0,0,0-.088-0.07,0.6,0.6,0,0,0-.111-0.07,0.4,0.4,0,0,0-.093-0.05,0.594,0.594,0,0,0-.126-0.04,0.388,0.388,0,0,0-.1-0.03,0.486,0.486,0,0,0-.119-0.02,0.524,0.524,0,0,0-.125-0.01c-0.01,0-.019-0.01-0.028-0.01-0.029,0-.056.01-0.085,0.01s-0.087.01-.13,0.01l-0.12.03a0.533,0.533,0,0,1-.111.04c-0.044.02-.084,0.04-0.125,0.06l-0.072.03-3.649,2.24a1.185,1.185,0,0,0-.491.58,0.053,0.053,0,0,0-.006.01,1.4,1.4,0,0,0-.064.21c0,0.02,0,.04-0.008.06a1.232,1.232,0,0,0-.018.17c0,0.01,0,.02,0,0.03v5.5c0,0.02.006,0.05,0.007,0.07a1.091,1.091,0,0,0,.016.15,0.662,0.662,0,0,0,.025.1,0.8,0.8,0,0,0,.04.13c0.015,0.04.035,0.08,0.054,0.12,0.014,0.02.023,0.05,0.039,0.08,0,0,.01.01,0.015,0.01a1.106,1.106,0,0,0,.179.23c0.017,0.01.035,0.03,0.053,0.04a1.249,1.249,0,0,0,.176.13c0.026,0.01.052,0.03,0.079,0.04a1.307,1.307,0,0,0,.193.08,0.2,0.2,0,0,0,.074.02,1.314,1.314,0,0,0,.283.04h0a1.427,1.427,0,0,0,.3-0.04l0.074-.03a0.985,0.985,0,0,0,.231-0.1c0.013,0,.027-0.01.039-0.01l3.649-2.24a1.218,1.218,0,0,0,.491-0.57c0-.01.008-0.03,0.013-0.04a1.386,1.386,0,0,0,.057-0.18c0-.03.007-0.06,0.011-0.08a1.239,1.239,0,0,0,.016-0.16c0-.01,0-0.02,0-0.03v-5.5c0-.03-0.006-0.05-0.008-0.08A1.327,1.327,0,0,0,808.636,4690.44Zm-3.627,3.15,1.183-.73v2.61l-1.183.73v-2.61Zm-4.516,1.38a0.556,0.556,0,0,0-.026-0.1,0.8,0.8,0,0,0-.039-0.13c-0.015-.04-0.035-0.08-0.054-0.12-0.014-.02-0.023-0.05-0.039-0.08a0.035,0.035,0,0,1-.017-0.02c-0.023-.03-0.051-0.07-0.078-0.1s-0.047-.06-0.073-0.09-0.059-.05-0.089-0.08-0.06-.05-0.092-0.07a0.591,0.591,0,0,0-.109-0.07,0.42,0.42,0,0,0-.1-0.05,0.56,0.56,0,0,0-.126-0.04,0.37,0.37,0,0,0-.1-0.03,0.5,0.5,0,0,0-.122-0.02,0.491,0.491,0,0,0-.121-0.01c-0.01,0-.019-0.01-0.029-0.01-0.031,0-.06.01-0.09,0.01s-0.082.01-.123,0.01a0.593,0.593,0,0,0-.128.04l-0.1.03-0.132.06-0.066.03-3.649,2.24a1.187,1.187,0,0,0-.492.58s0,0.01-.006.01a1.289,1.289,0,0,0-.063.21c0,0.02-.006.04-0.009,0.06a1.409,1.409,0,0,0-.018.17c0,0.01,0,.02,0,0.03v5.5c0,0.02,0,.05.006,0.07a1.272,1.272,0,0,0,.016.15,0.556,0.556,0,0,0,.026.1,0.8,0.8,0,0,0,.039.13c0.016,0.04.035,0.08,0.054,0.12,0.014,0.02.023,0.05,0.039,0.08,0,0,.011.01,0.015,0.01a1.106,1.106,0,0,0,.179.23c0.017,0.01.036,0.03,0.053,0.04a1.249,1.249,0,0,0,.176.13c0.026,0.01.052,0.03,0.079,0.04a1.307,1.307,0,0,0,.193.08,0.2,0.2,0,0,0,.074.02,1.332,1.332,0,0,0,.284.04h0a1.427,1.427,0,0,0,.3-0.04l0.074-.03a0.974,0.974,0,0,0,.232-0.1c0.012,0,.026-0.01.038-0.01l3.649-2.24a1.187,1.187,0,0,0,.492-0.58,0.053,0.053,0,0,0,.006-0.01,1.4,1.4,0,0,0,.064-0.21c0-.02,0-0.04.008-0.06a1.232,1.232,0,0,0,.018-0.17c0-.01,0-0.02,0-0.03v-5.5c0-.02,0-0.05-0.006-0.07A1.272,1.272,0,0,0,800.493,4694.97Zm-3.626,3.15,1.183-.73V4700l-1.183.73v-2.61Zm-42.9-71.91a1.584,1.584,0,0,0,.373.04,1.563,1.563,0,0,0,1.379-.81,4.746,4.746,0,0,1,3.012-2.51,8.573,8.573,0,0,1,2.693.2c1.76,0.31,3.954.69,5.558-.97a6.535,6.535,0,0,0,1.425-3.01,6.416,6.416,0,0,1,.646-1.74c0.744-1.13,2.166-1.26,4.42-1.34,2.085-.07,4.448-0.15,6.118-1.85a6.555,6.555,0,0,0,1.425-2.36,11.415,11.415,0,0,0-.774-9.53,9.212,9.212,0,0,0-9.06-4.41,17.2,17.2,0,0,0-7.363,2.53,9.548,9.548,0,0,0-4.529,7.81,17.956,17.956,0,0,0,.208,2.48c0.208,1.59.387,2.96-.3,3.87a4.663,4.663,0,0,1-1.907,1.18,9.34,9.34,0,0,0-2.122,1.17c-2.458,1.94-2.574,5.35-2.448,7.74A1.619,1.619,0,0,0,753.968,4626.21Zm2.728-7.31a7.144,7.144,0,0,1,1.579-.84,6.75,6.75,0,0,0,2.882-1.95c1.306-1.71,1.03-3.82.787-5.69a15.9,15.9,0,0,1-.187-2.14,7.144,7.144,0,0,1,3.383-5.74,14.672,14.672,0,0,1,6.388-2.17h0a5.7,5.7,0,0,1,.826-0.06,6.837,6.837,0,0,1,5.757,3.26,8.893,8.893,0,0,1,.6,7.42,4.208,4.208,0,0,1-.874,1.5c-0.98,1-2.664,1.05-4.447,1.11-2.295.08-4.9,0.17-6.395,2.45a8.355,8.355,0,0,0-.966,2.46,4.618,4.618,0,0,1-.817,1.93c-0.661.69-1.71,0.54-3.364,0.26a10.333,10.333,0,0,0-3.513-.21,5.937,5.937,0,0,0-3.1,1.59A4.483,4.483,0,0,1,756.7,4618.9Z" transform="translate(-737.219 -4597.84)"></path></svg> 